<svg width="2145" height="477" viewBox="0 0 2145 477" fill="none" xmlns="http://www.w3.org/2000/svg">
<g id="about-me-mountains">
<g id="mountain5">
<path id="Vector" d="M100 352.626C118.334 337.25 186.87 283.685 225.241 276.195C263.068 268.804 294.666 265.376 349.547 259.412C371.601 257.015 493.889 252.22 529.978 242.63C581.017 229.067 583.508 218.437 628.212 185.089C659.618 161.659 703.936 125.637 742.482 122.754C774.554 120.357 783.098 127.906 814.662 120.357C834.715 115.562 829.347 107.903 922.914 62.8163C962.758 43.6164 1000.94 38.3755 1027.17 36.4436C1047.18 34.9675 1064.92 40.9712 1095.33 41.2387C1141.61 41.6449 1168.96 28.8053 1187.54 24.4561C1230.95 14.3014 1231.34 8.43638 1259.72 2.87851C1318.78 -8.68304 1359.68 16.253 1449.28 47.8764C1469.17 54.9005 1464.45 53.8999 1475.33 57.4665C1568.43 87.9307 1636.92 65.4416 1670.71 58.0212C1737.65 43.3191 1793 31.6486 1793 31.6486V465.618C1793 465.618 157.062 482.401 135.008 475.208" fill="url(#paint0_linear_32_400)"/>
</g>
<g id="mountain1">
<path id="Vector_2" d="M1.7354 1.90638C-3.95305e-07 0.666645 61.6344 -7.6714 129.636 23.9804C180.449 47.6232 196.211 77.5744 245.278 98.0685C294.775 118.738 293.029 69.4119 404.725 93.3399C478.308 109.105 474.66 140.856 516.863 157.971C551.659 172.08 575.037 166.057 607.977 159.551C642.641 152.705 657.541 145.76 685.075 148.514C736.065 153.615 739.204 179.979 814.733 202.108C844.356 210.786 867.37 228.768 891.831 243.096C918.625 258.796 932.751 278.961 956.66 287.233C979.441 295.11 1010.42 287.035 1079.31 299.839C1122.02 307.782 1179.31 330.712 1196.7 364.47L1173.92 414.915L0 399.15L1.75751 1.90638H1.7354Z" fill="url(#paint1_linear_32_400)"/>
</g>
<g id="mountain2">
<path id="Vector_3" d="M0.0110148 133.96C0.0110148 113.192 53.267 109.999 89.8943 103.746C134.142 96.1975 203.443 112.61 228.177 120.74C250.125 127.959 276.312 149.111 326.364 190.604C366.218 223.649 369.565 235.772 399.651 243.474C421.775 249.135 470.924 244.33 518.574 237.813C572.546 230.429 574.297 231.088 609.845 232.152C628.104 232.7 643.003 224.362 681.756 251.033C718.879 276.596 724.638 311.396 768.875 337.903C801.901 357.684 824.84 338.462 832.483 337.903C851.402 336.509 857.987 336.926 872.59 343.564C885.034 349.225 897.159 364.288 926.518 383.225C935.251 388.853 963.123 403.148 990.125 396.445C1005.33 392.671 1025.37 364.563 1063.41 353.01C1101.46 341.457 1174.04 351.123 1208.61 349.236C1230.89 348.018 1215.53 441.767 1215.53 441.767L948.642 447.428L4.15167 394.558C4.15167 394.558 0 156.275 0 133.96H0.0110148Z" fill="url(#paint2_linear_32_400)"/>
</g>
<g id="mountain3">
<path id="Vector_4" d="M1074 354.755C1085.6 339.766 1128.95 287.548 1153.23 280.247C1177.16 273.042 1197.15 269.7 1231.86 263.886C1245.82 261.549 1323.18 256.875 1346.01 247.526C1378.29 234.304 1379.87 223.941 1408.15 191.433C1428.02 168.592 1456.05 133.476 1480.44 130.666C1500.73 128.329 1506.13 135.688 1526.1 128.329C1538.78 123.654 1535.39 116.189 1594.58 72.236C1619.78 53.5191 1643.94 48.4101 1660.53 46.5268C1673.19 45.0878 1684.41 50.9405 1703.65 51.2012C1732.93 51.5972 1750.23 39.0807 1761.99 34.8409C1789.44 24.9416 1789.69 19.2241 1807.65 13.8061C1845.01 2.5354 1870.88 26.8442 1927.56 57.672C1940.15 64.5194 1937.16 63.5439 1944.04 67.0208C2002.93 96.7186 2046.26 74.7953 2067.64 67.5616C2109.98 53.2294 2145 41.8524 2145 41.8524V464.904C2145 464.904 1110.1 481.265 1096.15 474.253" fill="url(#paint3_linear_32_400)"/>
</g>
<g id="mountain4">
<path id="Vector_5" d="M2144.99 167.698C2109.29 162.41 2079.64 153.754 2014.3 165.954C1963.35 175.466 1926.22 192.658 1873.66 211.265C1816.73 231.408 1717.29 269.752 1669.09 268.776C1620.61 267.788 1551.18 226.954 1464.52 232.176C1443.08 233.47 1403.73 242.467 1302.58 282.72C1152.99 342.227 1141.98 344.784 1083.8 364.631C1038.33 380.144 916.07 412.662 849.405 413.43C802.941 413.968 718.715 383.808 668.992 364.631C620.131 345.793 519.526 297.059 379.193 254.831C291.996 228.588 178.889 204.287 127.753 186.865C71.8008 167.797 30.0081 169.542 0 158V476.163H2145V174.676" fill="url(#paint4_linear_32_400)"/>
</g>
</g>
<defs>
<linearGradient id="paint0_linear_32_400" x1="946.5" y1="0" x2="946.5" y2="477" gradientUnits="userSpaceOnUse">
<stop offset="0.0288722" stop-color="#B4DDD4"/>
<stop offset="0.721596" stop-color="#3F937F"/>
</linearGradient>
<linearGradient id="paint1_linear_32_400" x1="598.349" y1="0" x2="598.349" y2="414.915" gradientUnits="userSpaceOnUse">
<stop stop-color="#B8E1D4"/>
<stop offset="1" stop-color="#6BBEA4"/>
</linearGradient>
<linearGradient id="paint2_linear_32_400" x1="613.5" y1="163.809" x2="610.345" y2="447.428" gradientUnits="userSpaceOnUse">
<stop stop-color="#64B5B8"/>
<stop offset="1" stop-color="#026B6F"/>
</linearGradient>
<linearGradient id="paint3_linear_32_400" x1="1609.5" y1="11" x2="1609.5" y2="476" gradientUnits="userSpaceOnUse">
<stop offset="0.0840499" stop-color="#B4DDD4"/>
<stop offset="1" stop-color="#28BA98"/>
</linearGradient>
<linearGradient id="paint4_linear_32_400" x1="1072.5" y1="158" x2="1072.5" y2="476.163" gradientUnits="userSpaceOnUse">
<stop stop-color="#8BC49B"/>
<stop offset="1" stop-color="#279846"/>
</linearGradient>
</defs>
</svg>
