<svg width="2145" height="903" viewBox="0 0 2145 903" fill="none" xmlns="http://www.w3.org/2000/svg">
<g id="about-me-field" clip-path="url(#clip0_30_397)">
<g id="mountain3">
<path id="Vector" d="M206 555.5C220.717 538.473 275.732 479.154 306.533 470.86C336.897 462.675 362.262 458.879 406.315 452.275C424.018 449.619 522.181 444.309 551.151 433.689C592.12 418.67 594.12 406.898 630.005 369.969C655.215 344.022 690.79 304.131 721.731 300.939C747.476 298.284 754.335 306.644 779.671 298.283C795.769 292.973 791.459 284.493 866.567 234.563C898.551 213.301 929.197 207.497 950.252 205.358C966.321 203.723 980.56 210.372 1004.97 210.668C1042.12 211.118 1064.08 196.899 1078.99 192.083C1113.83 180.837 1114.14 174.342 1136.93 168.188C1184.33 155.384 1217.16 182.999 1289.09 218.019C1305.06 225.797 1301.27 224.689 1310 228.639C1384.73 262.375 1439.71 237.47 1466.84 229.253C1520.57 212.972 1565 200.048 1565 200.048V680.628C1565 680.628 251.804 699.213 234.101 691.248" fill="url(#paint0_linear_30_397)"/>
</g>
<g id="mountain1">
<path id="Vector_2" d="M1.7354 57.9064C-3.95305e-07 56.6666 61.6344 48.3286 129.636 79.9804C180.449 103.623 196.211 133.574 245.278 154.068C294.775 174.738 293.029 125.412 404.725 149.34C478.308 165.105 474.66 196.856 516.863 213.971C551.659 228.08 575.037 222.057 607.977 215.551C642.641 208.705 657.541 201.76 685.075 204.514C736.065 209.615 739.204 235.979 814.733 258.108C844.356 266.786 867.37 284.768 891.831 299.096C918.625 314.796 932.751 334.961 956.66 343.233C979.441 351.11 1010.42 343.035 1079.31 355.839C1122.02 363.782 1179.31 386.712 1196.7 420.47L1173.92 470.915L0 455.15L1.75751 57.9064H1.7354Z" fill="url(#paint1_linear_30_397)"/>
</g>
<g id="mountain2">
<path id="Vector_3" d="M0.0110148 189.96C0.0110148 169.192 53.267 165.999 89.8943 159.746C134.142 152.197 203.443 168.61 228.177 176.74C250.125 183.959 276.312 205.111 326.364 246.604C366.218 279.649 369.565 291.772 399.651 299.474C421.775 305.135 470.924 300.33 518.574 293.813C572.546 286.429 574.297 287.088 609.845 288.152C628.104 288.7 643.003 280.362 681.756 307.033C718.879 332.596 724.638 367.396 768.875 393.903C801.901 413.684 824.84 394.462 832.483 393.903C851.402 392.509 857.987 392.926 872.59 399.564C885.034 405.225 897.159 420.288 926.518 439.225C935.251 444.853 963.123 459.148 990.125 452.445C1005.33 448.671 1025.37 420.563 1063.41 409.01C1101.46 397.457 1174.04 407.123 1208.61 405.236C1230.89 404.018 1215.53 497.767 1215.53 497.767L948.642 503.428L4.15167 450.558C4.15167 450.558 0 212.275 0 189.96H0.0110148Z" fill="url(#paint2_linear_30_397)"/>
</g>
<g id="mountain3_2">
<path id="Vector_4" d="M1074 457.5C1085.6 440.473 1128.95 381.154 1153.23 372.86C1177.16 364.675 1197.15 360.879 1231.86 354.275C1245.82 351.619 1323.18 346.309 1346.01 335.689C1378.29 320.67 1379.87 308.898 1408.15 271.969C1428.02 246.022 1456.05 206.131 1480.44 202.939C1500.73 200.284 1506.13 208.644 1526.1 200.283C1538.78 194.973 1535.39 186.493 1594.58 136.563C1619.78 115.301 1643.94 109.497 1660.53 107.358C1673.19 105.723 1684.41 112.372 1703.65 112.668C1732.93 113.118 1750.23 98.8992 1761.99 94.0828C1789.44 82.8374 1789.69 76.3425 1807.65 70.1877C1845.01 57.3844 1870.88 84.9987 1927.56 120.019C1940.15 127.797 1937.16 126.689 1944.04 130.639C2002.93 164.375 2046.26 139.47 2067.64 131.253C2109.98 114.972 2145 102.048 2145 102.048V582.628C2145 582.628 1110.1 601.213 1096.15 593.248" fill="url(#paint3_linear_30_397)"/>
</g>
<g id="mountain4">
<path id="Vector_5" d="M2144.99 243.507C2109.29 238.219 2079.64 229.563 2014.3 241.763C1963.35 251.275 1926.22 268.466 1873.66 287.073C1816.73 307.217 1717.29 345.561 1669.09 344.584C1620.61 343.597 1551.18 302.762 1464.52 307.984C1443.08 309.279 1403.73 318.275 1302.58 358.529C1152.99 418.036 1141.98 420.592 1083.8 440.439C1038.33 455.952 916.07 488.471 849.405 489.239C802.941 489.776 718.715 459.617 668.992 440.439C620.131 421.602 519.526 372.868 379.193 330.64C291.996 304.397 178.889 280.096 127.753 262.674C71.8008 243.606 30.0081 245.35 0 233.809V551.972H2145V250.485" fill="url(#paint4_linear_30_397)"/>
</g>
<g id="field">
<path id="field_2" d="M2144.99 380.253C1964.38 450.696 1460.99 538.547 1137.92 549.905C810.79 561.408 369.153 452.034 314.503 437.583C178.073 401.515 62.8335 354.278 -17 317.102L-15.9989 1003.92L2144.89 1004.63L2145 380.253H2144.99Z" fill="#8CC76D"/>
<path id="Vector_6" d="M1021.79 1001.54C1045.43 982.735 1079.94 958.654 1094.32 947.977C1102.41 941.969 1132.24 913.73 1145.78 896.617C1157.66 881.604 1168.8 876.381 1164.74 848.371C1158.66 806.436 1114.34 803.061 1106.5 798.569C1095.67 792.342 966.72 755.693 857.309 742.54C765.809 731.538 701.061 716.39 675.832 669.387C671.694 661.677 655.758 637.021 663.648 616.471C669.784 600.476 688.943 593.403 708.344 588.451C755.943 576.311 789.801 585.004 841.064 591.565C890.483 597.885 928.138 598.648 962.957 599.348C969.535 599.484 964.094 599.317 1067.24 596.235C1081.37 595.817 1105.97 595.085 1136.31 586.895C1156.15 581.535 1167.27 576.667 1170.17 574.441C1186.43 561.988 1193.19 558.875 1195.48 557.799C1198.81 556.221 1212.93 545.575 1213.39 545.502C1220.11 544.437 1232.44 544.437 1232.44 544.437C1232.44 544.437 1215.79 577.053 1214.88 579.101C1213.35 582.486 1212.57 583.865 1210.82 586.884C1205.4 596.224 1190.23 613.034 1151.22 624.244C1124.14 632.027 1072.67 638.254 1023.91 638.254C1000.3 638.254 955.386 636.697 912.853 636.697C899.312 636.697 876.291 638.254 839.718 632.027C839.497 631.986 786.888 624.735 778.776 624.244C753.04 622.687 728.662 625.801 727.315 633.584C725.958 641.367 743.461 647.354 772.011 655.377C815.284 667.527 844.904 668.896 887.128 672.5C892.459 672.96 957.527 678.581 1022.56 688.067C1031.68 689.394 1069.27 696.738 1144.46 711.417C1199.14 722.094 1226.98 727.861 1251.45 748.777C1262.6 758.305 1284.28 776.838 1293.43 809.476C1304.13 847.63 1291.5 882.973 1277.18 923.101C1268.46 947.506 1235.28 1005.61 1235.28 1005.61C1235.28 1005.61 1018.67 1004.08 1021.81 1001.57L1021.79 1001.54Z" fill="url(#paint5_linear_30_397)"/>
<path id="Vector_7" opacity="0.8" d="M401.156 761.512C411.109 761.512 419.178 755.371 419.178 747.795C419.178 740.219 411.109 734.078 401.156 734.078C391.203 734.078 383.134 740.219 383.134 747.795C383.134 755.371 391.203 761.512 401.156 761.512Z" fill="#F6DCC0"/>
<path id="Vector_8" opacity="0.8" d="M2030.08 823.152C2040.03 823.152 2048.1 817.01 2048.1 809.434C2048.1 801.858 2040.03 795.717 2030.08 795.717C2020.12 795.717 2012.06 801.858 2012.06 809.434C2012.06 817.01 2020.12 823.152 2030.08 823.152Z" fill="#F6DCC0"/>
<path id="Vector_9" opacity="0.8" d="M1457.31 660.173C1467.26 660.173 1475.33 654.031 1475.33 646.455C1475.33 638.879 1467.26 632.738 1457.31 632.738C1447.35 632.738 1439.28 638.879 1439.28 646.455C1439.28 654.031 1447.35 660.173 1457.31 660.173Z" fill="#F6DCC0"/>
<path id="Vector_10" opacity="0.8" d="M436.361 867.574C444.096 867.574 450.366 862.62 450.366 856.51C450.366 850.4 444.096 845.446 436.361 845.446C428.626 845.446 422.356 850.4 422.356 856.51C422.356 862.62 428.626 867.574 436.361 867.574Z" fill="#F6DCC0"/>
</g>
<g id="orangeflower">
<path id="Vector_11" d="M694.661 744.255C694.244 741.946 693.004 739.94 690.777 738.885C689.449 738.258 688.012 738.018 686.542 737.913C684.128 737.746 683.042 737.913 681.846 740.389C680.914 742.322 679.696 744.161 679.191 746.229C678.325 749.761 679.63 753.49 680.179 756.875C680.475 758.756 681.166 760.386 681.649 762.214C682.987 767.333 682.461 766.55 682.033 771.951C681.55 778.021 659.345 911.287 659.345 911.287L667.343 912.677C668.67 905.489 679.773 829.443 680.376 821.774C681.638 805.988 683.459 790.223 685.116 774.448C685.445 771.324 685.752 768.19 686.048 765.056C686.103 764.439 686.169 763.802 686.432 763.227C686.652 762.757 686.981 762.36 687.31 761.963C689.647 759.048 691.172 755.538 692.565 752.09C693.443 749.917 695.089 746.637 694.661 744.255Z" fill="#123A1B"/>
<path id="Vector_12" d="M688.21 708.859C686.575 708.671 690.689 688.821 693.706 683.441C695.056 681.038 699.137 674.592 696.888 672.565C693.542 669.546 689.395 672.858 678.182 674.592C664.435 676.723 643.788 674.999 642.998 679.92C641.725 687.797 661.33 706.979 659.279 708.232C658.961 708.431 636.239 691.935 630.458 691.809C622.317 691.632 613.441 695.069 608.57 704.712C607.33 707.167 604.785 712.484 607.605 716.851C610.326 721.051 618.302 716.298 626.31 714.825C638.137 712.641 647.88 716.862 648.099 717.719C648.33 718.617 628.911 725.815 623.996 729.357C623.996 729.357 617.599 734.779 618.598 738.969C619.465 742.636 650.502 760.323 660.716 762.966C670.93 765.609 683.262 739.992 685.785 739.188C692.916 736.91 698.797 756.457 713.257 758.014C722.604 759.017 730.525 754.462 738.227 750.032C747.136 744.903 757.909 738.718 758.381 729.796C758.798 721.835 750.833 715.243 744.7 712.484C730.964 706.3 722.791 715.19 721.562 711.993C720.487 709.173 724.261 707.188 736.318 701.368C745.885 696.751 752.325 703.468 753.675 701.734C755.375 699.54 729.999 678.739 717.338 677.862C691.984 676.107 690.777 709.141 688.221 708.849L688.21 708.859Z" fill="#EF7633"/>
<path id="Vector_13" d="M711.796 727.836C713.518 722.016 704.398 714.477 691.427 710.998C678.456 707.519 666.546 709.418 664.824 715.238C663.103 721.058 672.222 728.597 685.193 732.076C698.164 735.555 710.075 733.657 711.796 727.836Z" fill="#701538"/>
<path id="Vector_14" d="M667.606 876.466C670.393 862.509 670.546 847.663 666.761 831.752C663.272 817.125 655.582 800.65 635.384 784.968C645.499 794.037 652.937 803.345 657.03 812.069C659.915 818.222 661.133 824.052 662.011 829.756C664.062 843.171 664.194 856.073 662.438 868.328C661.55 874.523 662.142 875.819 661.835 881.659C661.671 884.709 660.661 890.215 660.903 899.189C660.946 900.652 660.903 909.543 660.277 910.88C659.805 911.914 663.898 910.807 664.556 912.123C664.578 912.175 660.277 910.786 660.277 910.88C662.34 911.674 662.46 911.434 664.556 912.123C668.977 902.637 665.543 886.841 667.617 876.466H667.606Z" fill="#123A1B"/>
<path id="Vector_15" d="M673.903 879.151C681.945 867.179 692.521 856.282 706.74 847.203C719.807 838.856 737.273 831.908 763.263 833.726C749.374 833.695 737.262 835.596 728.002 839.263C721.474 841.854 716.384 845.281 711.633 848.864C700.475 857.274 691.084 866.562 683.525 876.623C679.707 881.7 676.361 886.987 673.486 892.44C672.049 895.167 670.733 897.946 669.537 900.767C668.966 902.125 668.418 903.483 667.902 904.862C667.507 905.917 667.738 908.853 666.322 909.375C666.267 909.396 665.949 909.846 665.872 909.908C663.799 909.135 661.758 908.184 659.74 907.307C663.36 897.518 667.935 888.032 673.903 879.13V879.151Z" fill="#123A1B"/>
</g>
<g id="yellowflower">
<path id="Vector_16" d="M600.154 781.403C599.668 779.772 598.614 778.408 596.913 777.81C595.901 777.454 594.842 777.388 593.775 777.416C592.022 777.468 591.243 777.676 590.586 779.545C590.068 781.004 589.335 782.423 589.136 783.961C588.799 786.569 590.039 789.169 590.704 791.578C591.071 792.911 591.704 794.038 592.192 795.329C593.567 798.921 593.124 798.404 593.247 802.331C593.383 806.75 588.068 904.568 588.068 904.568L593.95 904.985C594.335 899.704 596.231 843.996 596.052 838.41C595.691 826.918 595.736 815.404 595.667 803.902C595.658 801.624 595.617 799.339 595.586 797.057C595.576 796.608 595.57 796.139 595.724 795.71C595.839 795.359 596.059 795.048 596.256 794.733C597.71 792.456 598.524 789.807 599.257 787.229C599.722 785.59 600.636 783.109 600.139 781.422L600.154 781.403Z" fill="#123A1B"/>
<path id="Vector_17" d="M592.661 756.317C591.469 756.301 592.837 741.668 594.591 737.574C595.375 735.739 597.804 730.79 596.01 729.493C593.351 727.56 590.628 730.253 582.67 732.317C572.917 734.862 557.873 735.118 557.703 738.725C557.419 744.503 573.111 756.919 571.736 757.976C571.524 758.139 553.796 747.894 549.618 748.224C543.726 748.688 537.597 751.822 534.857 759.139C534.157 761.001 532.741 765.029 535.13 767.966C537.429 770.802 542.809 766.787 548.47 765.143C556.828 762.704 564.209 765.045 564.433 765.65C564.664 766.277 551.24 772.895 547.971 775.807C547.971 775.807 543.792 780.18 544.848 783.14C545.768 785.723 569.589 796.223 577.183 797.4C584.768 798.566 591.612 779.169 593.374 778.406C598.336 776.24 604.154 789.923 614.719 789.995C621.547 790.043 626.898 786.172 632.101 782.422C638.118 778.076 645.403 772.814 645.023 766.34C644.681 760.564 638.409 756.384 633.749 754.839C623.331 751.379 618.151 758.388 617.013 756.169C616.01 754.22 618.578 752.509 626.812 747.42C633.345 743.393 638.539 747.769 639.37 746.421C640.417 744.719 620.431 731.549 611.224 731.832C592.784 732.413 594.566 756.347 592.694 756.323L592.661 756.317Z" fill="#F5A736"/>
<path id="Vector_18" d="M592.383 773.359C602.024 774.925 610.467 772.686 611.243 768.358C612.018 764.03 604.832 759.251 595.192 757.685C585.552 756.118 577.108 758.357 576.332 762.686C575.557 767.014 582.743 771.793 592.383 773.359Z" fill="#701538"/>
<path id="Vector_19" d="M592.54 859.405C597.172 850.572 603.644 842.31 612.764 835.043C621.151 828.365 632.677 822.348 650.777 821.789" fill="#123A1B"/>
<path id="Vector_20" d="M587.924 866.07C586.693 853.615 583.007 841.024 575.715 828.449C569.005 816.892 558.265 804.75 537.152 796.195C548.038 801.507 556.722 807.646 562.425 814.07C566.448 818.602 568.976 823.249 571.185 827.868C576.368 838.736 579.796 849.617 581.461 860.391C582.302 865.838 583.136 866.796 584.378 871.806C585.023 874.425 585.584 879.317 588.095 886.85C588.508 888.077 590.757 895.607 590.572 896.884C590.438 897.868 593.615 895.978 594.51 896.938C594.542 896.977 590.547 896.804 590.572 896.884C592.52 897.074 592.56 896.843 594.51 896.938C595.811 887.884 588.846 875.325 587.933 866.067L587.924 866.07Z" fill="#123A1B"/>
</g>
<g id="circleleaf">
<path id="Vector_21" d="M300.286 754.273C311.795 753.573 318.158 758.87 318.871 764.125C319.585 769.39 313.507 775.951 301.921 777.435C295.316 778.281 269.82 769.975 268.711 768.502C268.755 767.155 292.201 754.764 300.297 754.263L300.286 754.273Z" fill="#246D61"/>
<path id="Vector_22" d="M275.272 784.226C286.77 786.785 291.498 792.636 290.687 796.94C289.875 801.245 282.019 804.734 270.214 802.759C263.489 801.631 240.845 788.269 240.175 786.817C240.603 785.772 267.186 782.429 275.272 784.226Z" fill="#246D61"/>
<path id="Vector_23" d="M252.529 815.286C262.447 821.387 264.817 828.418 262.524 832.211C260.231 836.003 251.596 836.755 241.196 831.103C235.271 827.886 218.694 808.015 218.584 806.437C219.352 805.591 245.562 810.992 252.54 815.286H252.529Z" fill="#246D61"/>
<path id="Vector_24" d="M228.985 843.473C238.903 849.574 241.273 856.605 238.98 860.397C236.687 864.19 228.052 864.942 217.652 859.29C211.727 856.072 195.15 836.201 195.04 834.624C195.808 833.777 222.018 839.179 228.996 843.473H228.985Z" fill="#246D61"/>
<path id="Vector_25" d="M183.334 807.795C175.49 799.395 167.832 798.236 164.244 800.973C160.657 803.71 161.194 811.943 168.644 820.875C172.889 825.963 196.039 838.531 197.695 838.395C198.452 837.539 188.852 813.698 183.334 807.795Z" fill="#246D61"/>
<path id="Vector_26" d="M211.442 777.028C205.035 767.583 197.651 765.327 193.669 767.5C189.686 769.673 188.896 777.895 194.821 787.809C198.2 793.451 219.056 809.247 220.713 809.362C221.601 808.631 215.94 783.672 211.431 777.028H211.442Z" fill="#246D61"/>
<path id="Vector_27" d="M237.784 751.463C232.836 741.256 225.869 738.027 221.601 739.647C217.334 741.277 215.337 749.3 219.736 759.904C222.249 765.953 240.56 784.382 242.183 784.717C243.171 784.111 241.262 758.64 237.784 751.463Z" fill="#246D61"/>
<path id="Vector_28" d="M172.242 857.232C188.479 835.188 206.67 814.523 227.46 796.303C246.572 779.556 269.337 764.417 295.251 762.767C280.791 765.264 266.912 770.748 254.844 778.751C246.33 784.393 238.771 791.236 231.475 798.246C214.316 814.753 198.419 832.43 183.937 851.11C176.62 860.544 169.664 870.228 163.081 880.143C159.79 885.095 156.597 890.11 153.492 895.177C152 897.611 150.541 900.055 149.093 902.511C147.985 904.402 146.306 909.385 144.474 910.566C144.408 910.607 143.772 911.443 143.651 911.568C141.995 910.628 140.492 909.364 138.956 908.236C149.159 890.757 160.152 873.613 172.231 857.221L172.242 857.232Z" fill="#3C837C"/>
</g>
<g id="bush2">
<path id="Vector_29" d="M389.482 882.996C392.444 872.925 397.447 863.094 405.412 853.796C412.741 845.25 423.47 836.798 442.176 832.765C432.39 835.575 424.282 839.389 418.599 843.86C414.584 847.015 411.775 850.473 409.241 853.963C403.283 862.164 398.752 870.626 395.691 879.256C394.144 883.612 392.971 888.011 392.181 892.451C391.786 894.666 391.478 896.891 391.27 899.116C391.171 900.182 391.095 901.258 391.04 902.334C390.996 903.159 391.83 905.176 390.941 905.834C390.908 905.855 390.787 906.242 390.743 906.304C389.109 906.189 387.452 905.928 385.839 905.73C386.19 898.103 387.266 890.487 389.471 882.996H389.482Z" fill="#346456"/>
<path id="Vector_30" d="M380.321 883.383C378.489 873.071 373.639 863.345 367.715 852.741C363.535 845.271 353.332 827.73 343.732 822.579C346.628 826.246 354.78 835.879 357.6 840.872C360.068 845.25 361.791 848.781 363.897 852.521C365.499 855.363 372.476 870.146 374.561 879.026C375.614 883.519 376.294 888.011 376.591 892.493C376.744 894.739 376.788 896.975 376.755 899.221C376.733 900.297 376.689 901.373 376.635 902.439C376.591 903.264 375.537 905.186 376.349 905.928C376.382 905.96 376.459 906.346 376.492 906.419C378.127 906.461 379.805 906.377 381.429 906.336C381.923 898.709 381.692 891.03 380.332 883.372L380.321 883.383Z" fill="#346456"/>
<path id="Vector_31" d="M381.242 883.226C382.427 872.831 385.653 862.342 391.906 851.915C397.655 842.335 406.772 832.295 424.535 825.379C415.374 829.694 408.034 834.74 403.196 840.047C399.784 843.798 397.611 847.642 395.713 851.487C391.248 860.514 388.253 869.571 386.728 878.566C385.96 883.111 385.565 887.635 385.543 892.127C385.543 894.373 385.62 896.62 385.806 898.845C385.894 899.921 386.004 900.987 386.136 902.052C386.234 902.878 387.397 904.727 386.64 905.521C386.607 905.552 386.552 905.949 386.53 906.012C384.896 906.148 383.228 906.158 381.593 906.221C380.617 898.646 380.365 890.957 381.253 883.226H381.242Z" fill="#346456"/>
<path id="Vector_32" d="M375.636 874.743C371.939 863.721 366.234 853.117 357.611 843.327C349.678 834.332 338.356 825.703 319.398 822.61C329.371 825.013 337.731 828.659 343.732 833.225C347.967 836.443 351.028 840.099 353.815 843.798C360.364 852.511 365.499 861.61 369.174 871.023C371.039 875.777 372.52 880.604 373.639 885.493C374.199 887.938 374.66 890.403 375.033 892.879C375.208 894.07 375.362 895.261 375.504 896.452C375.603 897.372 374.934 899.681 375.856 900.36C375.888 900.38 376.042 900.798 376.086 900.872C377.71 900.61 379.333 900.203 380.935 899.858C380.025 891.364 378.39 882.933 375.647 874.743H375.636Z" fill="#346456"/>
<path id="Vector_33" d="M404.896 882.787C407.858 872.716 412.861 862.885 420.826 853.587C428.155 845.041 438.885 836.589 457.591 832.556C447.804 835.366 439.697 839.18 434.014 843.651C429.998 846.806 427.19 850.264 424.655 853.754C418.698 861.955 414.167 870.417 411.106 879.047C409.559 883.403 408.385 887.802 407.595 892.242C407.2 894.457 406.893 896.682 406.685 898.907C406.586 899.973 406.509 901.049 406.454 902.125C406.41 902.95 407.244 904.967 406.355 905.625C406.322 905.646 406.202 906.032 406.158 906.095C404.523 905.98 402.867 905.719 401.254 905.521C401.605 897.894 402.68 890.278 404.885 882.787H404.896Z" fill="#346456"/>
<path id="Vector_34" d="M395.735 883.174C393.903 872.862 389.054 863.136 383.129 852.532C378.949 845.062 368.746 827.521 359.146 822.37C362.043 826.037 370.194 835.67 373.014 840.663C375.483 845.041 377.205 848.572 379.311 852.312C380.913 855.154 387.891 869.937 389.975 878.817C391.029 883.31 391.709 887.802 392.005 892.284C392.159 894.53 392.203 896.766 392.17 899.012C392.148 900.088 392.104 901.164 392.049 902.23C392.005 903.055 390.952 904.977 391.764 905.719C391.797 905.75 391.873 906.137 391.906 906.21C393.541 906.252 395.22 906.168 396.843 906.127C397.337 898.5 397.107 890.821 395.746 883.163L395.735 883.174Z" fill="#346456"/>
<path id="Vector_35" d="M396.668 883.017C397.853 872.622 401.078 862.133 407.332 851.706C413.081 842.126 422.198 832.086 439.96 825.17C430.799 829.485 423.459 834.531 418.621 839.838C415.209 843.589 413.037 847.433 411.139 851.278C406.674 860.304 403.678 869.362 402.153 878.358C401.385 882.902 400.99 887.426 400.969 891.918C400.969 894.164 401.045 896.411 401.232 898.636C401.32 899.712 401.429 900.778 401.561 901.843C401.66 902.669 402.823 904.518 402.066 905.312C402.033 905.343 401.978 905.74 401.956 905.803C400.321 905.939 398.654 905.949 397.019 906.012C396.042 898.437 395.79 890.748 396.679 883.017H396.668Z" fill="#346456"/>
<path id="Vector_36" d="M391.051 874.513C387.353 863.491 381.648 852.887 373.025 843.098C365.093 834.102 353.771 825.473 334.812 822.38C344.785 824.783 353.145 828.429 359.147 832.995C363.381 836.213 366.442 839.869 369.229 843.568C375.779 852.281 380.913 861.38 384.589 870.794C386.454 875.547 387.935 880.374 389.054 885.263C389.613 887.708 390.074 890.173 390.447 892.649C390.623 893.84 390.776 895.031 390.919 896.222C391.018 897.142 390.348 899.451 391.27 900.13C391.303 900.151 391.457 900.569 391.5 900.642C393.124 900.38 394.748 899.973 396.35 899.628C395.439 891.135 393.804 882.704 391.062 874.513H391.051Z" fill="#346456"/>
<path id="Vector_37" d="M375.636 874.743C371.939 863.721 366.234 853.117 357.611 843.327C349.678 834.332 338.356 825.703 319.398 822.61C329.371 825.013 337.731 828.659 343.732 833.225C347.967 836.443 351.028 840.099 353.815 843.798C360.364 852.511 365.499 861.61 369.174 871.023C371.039 875.777 372.52 880.604 373.639 885.493C374.199 887.938 374.66 890.403 375.033 892.879C375.208 894.07 375.362 895.261 375.504 896.452C375.603 897.372 374.934 899.681 375.856 900.36C375.888 900.38 376.042 900.798 376.086 900.872C377.71 900.61 379.333 900.203 380.935 899.858C380.025 891.364 378.39 882.933 375.647 874.743H375.636Z" fill="#346456"/>
</g>
<g id="leaves2">
<g id="Group">
<path id="Vector_38" d="M111.317 824.167C109.616 821.044 105.667 817.617 104.931 816.886C103.889 815.851 102.836 811.934 102.211 810.043C101.344 807.431 100.433 796.795 100.269 792.752C100.06 787.758 100.137 785.136 98.645 782.973C96.1874 779.421 94.5308 778.377 86.851 777.06C81.3435 776.11 79.7198 777.06 78.1399 772.181C75.9676 765.495 73.8941 758.276 71.3159 754.494C69.001 751.099 66.1594 749.709 55.8465 748.142C53.1257 747.724 37.426 743.639 32.489 742.082C20.6402 738.363 14.4195 730.831 13.2127 731.823C11.0514 733.599 25.9941 752.342 29.45 756.677C37.9526 767.344 40.7064 768.755 42.758 769.486C44.9851 770.28 48.2984 770.959 50.2403 773.832C52.0396 776.496 50.6353 778.084 52.3248 780.121C54.5958 782.859 58.0847 781.145 64.031 783.726C66.0387 784.603 69.0448 785.899 70.9209 788.667C72.4788 790.966 72.3691 794.654 72.0838 801.935C71.645 812.989 71.5901 813.971 72.6434 815.225C75.3532 818.474 80.0489 816.875 85.6551 821.096C86.9278 822.057 88.9684 825.181 90.2191 828.451C92.3256 833.925 89.9997 837.718 91.9965 841.698C93.5763 844.853 95.3865 844.728 100.74 847.152C104.526 848.865 108.771 851.331 110.658 849.753C110.955 849.513 111.086 849.231 111.163 849.074C116.309 838.073 114.005 829.861 114.005 829.861C113.335 827.49 113.555 828.284 111.339 824.178L111.317 824.167Z" fill="#147F5E"/>
<path id="Vector_39" d="M114.608 865.403C107.641 842.387 98.7547 819.988 87.1143 798.906C76.4174 779.526 62.3634 760.48 42.1216 751.851C52.994 757.983 62.5719 766.466 70.0322 776.538C75.2874 783.642 79.4674 791.488 83.3841 799.407C92.5889 818.035 100.466 837.3 106.95 857.003C110.22 866.949 113.149 877.02 115.694 887.165C116.967 892.242 118.163 897.33 119.249 902.449C119.775 904.904 120.28 907.36 120.763 909.825C121.136 911.727 121.114 916.365 122.255 917.859C122.299 917.911 122.573 918.789 122.639 918.925C124.219 918.601 125.766 917.953 127.291 917.441C123.901 899.942 119.797 882.495 114.619 865.393L114.608 865.403Z" fill="#507264"/>
</g>
<g id="Group_2">
<path id="Vector_40" d="M132.831 825.327C134.532 822.203 138.481 818.777 139.216 818.045C140.259 817.011 141.312 813.093 141.937 811.202C142.804 808.59 143.714 797.955 143.879 793.912C144.087 788.918 144.011 786.296 145.503 784.133C147.96 780.581 149.617 779.536 157.297 778.22C162.804 777.269 164.428 778.22 166.008 773.341C168.18 766.655 170.254 759.436 172.832 755.654C175.147 752.258 177.988 750.869 188.301 749.302C191.022 748.884 206.722 744.799 211.659 743.242C223.508 739.523 229.728 731.99 230.935 732.983C233.096 734.759 218.154 753.501 214.698 757.837C206.195 768.504 203.441 769.914 201.39 770.646C199.163 771.44 195.849 772.119 193.907 774.992C192.108 777.656 193.512 779.244 191.823 781.281C189.552 784.018 186.063 782.305 180.117 784.885C178.109 785.763 175.103 787.058 173.227 789.827C171.669 792.125 171.779 795.813 172.064 803.095C172.503 814.148 172.558 815.13 171.504 816.384C168.794 819.633 164.099 818.035 158.493 822.256C157.22 823.217 155.179 826.34 153.929 829.611C151.822 835.085 154.148 838.877 152.151 842.858C150.571 846.013 148.761 845.888 143.407 848.311C139.622 850.025 135.376 852.49 133.489 850.913C133.193 850.672 133.061 850.39 132.985 850.234C127.839 839.233 130.143 831.021 130.143 831.021C130.812 828.649 130.593 829.443 132.809 825.338L132.831 825.327Z" fill="#147F5E"/>
<path id="Vector_41" d="M129.54 866.563C136.506 843.547 145.393 821.148 157.033 800.065C167.73 780.685 181.784 761.64 202.026 753.01C191.154 759.143 181.576 767.626 174.116 777.697C168.86 784.802 164.68 792.648 160.764 800.567C151.559 819.194 143.682 838.459 137.198 858.163C133.928 868.109 130.999 878.18 128.454 888.325C127.181 893.402 125.985 898.49 124.899 903.609C124.372 906.064 123.868 908.519 123.385 910.985C123.012 912.886 123.034 917.525 121.893 919.019C121.849 919.071 121.575 919.949 121.509 920.085C119.929 919.761 118.382 919.113 116.857 918.601C120.247 901.102 124.35 883.655 129.529 866.552L129.54 866.563Z" fill="#507264"/>
</g>
<g id="Group_3">
<path id="Vector_42" d="M123.403 886.669C123.403 879.732 134.243 883.138 138.587 875.104C143.579 865.858 145.872 867.007 147.693 853.708C148.209 849.957 147.66 845.872 147.112 842.163C146.344 836.94 143.14 832.959 141.791 827.965C141.418 826.576 141.286 825.05 141.922 823.745C143.535 820.454 147.978 822.627 150.732 821.321C156.843 818.416 160.507 811.74 159.718 805.326C159.059 799.925 155.45 795.004 150.524 792.256C149.909 791.911 149.262 791.588 148.812 791.076C146.497 788.422 158.116 783.24 159.838 781.997C165.225 778.11 166.706 774.903 167.737 772.166C169.921 766.388 169.712 761.374 169.559 757.707C169.306 751.658 168.067 750.885 168.341 745.556C168.418 744.104 168.747 739.695 170.766 734.566C173.969 726.469 179.147 722.29 178.665 721.841C178.017 721.235 170.744 730.449 158.017 737.46C146.453 743.822 141.615 745.556 136.755 749.025C134.286 750.791 129.547 752.514 127.649 759.431C127.1 761.436 125.828 768.687 126.431 772.155C127.298 777.107 128.055 783.825 127.035 786.04C126.102 788.077 124.698 787.774 117.917 790.094C114.352 791.305 109.996 792.277 107.55 795.234C105.224 798.054 105.268 802.087 106.288 805.545C107.407 809.327 109.173 813.026 110.622 816.703C112.136 820.527 115.35 822.334 114.286 827.067C113.551 830.305 111.181 832.959 108.724 835.299C105.334 838.517 101.066 842.007 100.298 846.781C99.2336 853.384 101.132 859.924 104.236 865.795C105.805 868.762 107.659 871.583 109.623 874.32C111.412 876.817 112.553 879.836 115.679 881.09C116.316 881.341 117.007 881.529 117.555 881.926C118.51 882.626 118.312 883.88 118.378 884.903C118.4 885.227 118.444 885.551 118.609 885.833C119.037 886.575 123.381 887.985 123.381 886.69L123.403 886.669Z" fill="#5DB6A0"/>
<path id="Vector_43" d="M121.033 849.685C123.26 827.234 127.495 805.023 134.692 783.553C141.308 763.829 151.292 743.822 169.427 732.393C159.992 739.915 152.279 749.39 146.98 759.974C143.239 767.444 140.716 775.404 138.466 783.386C133.167 802.171 129.295 821.31 126.881 840.617C125.663 850.364 124.818 860.164 124.336 869.974C124.094 874.884 123.952 879.784 123.908 884.705C123.886 887.066 123.886 889.417 123.908 891.778C123.919 893.595 124.873 897.879 124.05 899.456C124.017 899.519 123.919 900.365 123.897 900.512C122.284 900.48 120.638 900.156 119.026 899.937C118.839 883.19 119.377 866.37 121.033 849.685Z" fill="#3C837C"/>
</g>
</g>
<g id="threebushes">
<g id="Group_4">
<path id="Vector_44" d="M615.794 890.236C618.373 881.47 622.728 872.904 629.662 864.807C636.036 857.368 645.384 850.003 661.676 846.493C653.151 848.937 646.097 852.26 641.138 856.156C637.638 858.904 635.191 861.913 632.986 864.953C627.797 872.089 623.858 879.465 621.192 886.976C619.843 890.769 618.822 894.603 618.142 898.458C617.802 900.391 617.539 902.323 617.352 904.267C617.265 905.196 617.199 906.137 617.155 907.067C617.122 907.788 617.835 909.543 617.067 910.117C617.034 910.138 616.924 910.472 616.902 910.525C615.476 910.42 614.039 910.201 612.635 910.023C612.942 903.379 613.885 896.745 615.794 890.236Z" fill="#346456"/>
<path id="Vector_45" d="M607.818 890.57C606.228 881.596 602.004 873.123 596.847 863.898C593.216 857.389 584.318 842.115 575.958 837.633C578.482 840.82 585.58 849.219 588.037 853.565C590.188 857.368 591.691 860.45 593.523 863.71C594.916 866.186 600.994 879.057 602.816 886.788C603.737 890.695 604.319 894.613 604.582 898.521C604.714 900.474 604.757 902.428 604.725 904.371C604.703 905.311 604.67 906.241 604.615 907.171C604.571 907.892 603.66 909.563 604.362 910.211C604.384 910.232 604.461 910.577 604.483 910.639C605.909 910.681 607.369 910.608 608.784 910.566C609.223 903.932 609.014 897.236 607.829 890.57H607.818Z" fill="#346456"/>
<path id="Vector_46" d="M608.619 890.434C609.651 881.376 612.459 872.256 617.901 863.177C622.904 854.83 630.847 846.096 646.316 840.067C638.34 843.828 631.955 848.216 627.731 852.834C624.758 856.094 622.86 859.447 621.214 862.79C617.33 870.647 614.719 878.535 613.392 886.37C612.723 890.319 612.382 894.268 612.36 898.176C612.36 900.129 612.426 902.083 612.591 904.026C612.668 904.956 612.766 905.886 612.876 906.816C612.964 907.537 613.973 909.145 613.315 909.835C613.293 909.866 613.238 910.201 613.216 910.263C611.801 910.389 610.342 910.389 608.916 910.441C608.071 903.838 607.851 897.152 608.619 890.424V890.434Z" fill="#346456"/>
<path id="Vector_47" d="M603.737 883.048C600.523 873.447 595.553 864.222 588.037 855.697C581.126 847.861 571.274 840.35 554.762 837.654C563.44 839.744 570.725 842.92 575.947 846.9C579.634 849.7 582.3 852.887 584.724 856.104C590.429 863.689 594.894 871.619 598.098 879.809C599.722 883.947 601.016 888.146 601.982 892.409C602.464 894.54 602.87 896.682 603.189 898.834C603.342 899.868 603.474 900.903 603.594 901.947C603.682 902.752 603.09 904.758 603.902 905.353C603.935 905.374 604.066 905.74 604.099 905.792C605.514 905.573 606.93 905.217 608.323 904.914C607.533 897.518 606.107 890.184 603.715 883.048H603.737Z" fill="#346456"/>
<path id="Vector_48" d="M629.212 890.058C631.79 881.293 636.146 872.726 643.08 864.629C649.454 857.191 658.801 849.825 675.094 846.315C666.569 848.76 659.514 852.082 654.555 855.979C651.056 858.726 648.609 861.735 646.404 864.775C641.215 871.911 637.276 879.287 634.61 886.798C633.261 890.591 632.24 894.425 631.56 898.28C631.22 900.213 630.957 902.146 630.77 904.089C630.682 905.019 630.616 905.959 630.573 906.889C630.54 907.61 631.253 909.365 630.485 909.939C630.452 909.96 630.342 910.295 630.32 910.347C628.894 910.242 627.457 910.023 626.052 909.845C626.36 903.201 627.303 896.567 629.212 890.058Z" fill="#346456"/>
<path id="Vector_49" d="M621.236 890.392C619.645 881.418 615.421 872.945 610.265 863.72C606.634 857.212 597.736 841.937 589.376 837.456C591.899 840.642 598.998 849.042 601.455 853.388C603.606 857.191 605.109 860.273 606.941 863.532C608.334 866.008 614.412 878.879 616.233 886.61C617.155 890.518 617.736 894.435 618 898.343C618.131 900.296 618.175 902.25 618.142 904.193C618.12 905.134 618.087 906.063 618.033 906.993C617.989 907.714 617.078 909.386 617.78 910.033C617.802 910.054 617.879 910.399 617.901 910.462C619.327 910.504 620.786 910.43 622.202 910.389C622.64 903.755 622.432 897.058 621.247 890.392H621.236Z" fill="#346456"/>
<path id="Vector_50" d="M622.048 890.256C623.079 881.199 625.888 872.078 631.33 862.999C636.332 854.652 644.276 845.918 659.745 839.89C651.769 843.651 645.384 848.039 641.16 852.656C638.187 855.916 636.289 859.27 634.643 862.613C630.759 870.469 628.148 878.357 626.82 886.192C626.151 890.141 625.811 894.091 625.789 897.998C625.789 899.952 625.855 901.905 626.02 903.848C626.096 904.778 626.195 905.708 626.305 906.638C626.393 907.359 627.402 908.968 626.744 909.657C626.722 909.689 626.667 910.023 626.645 910.085C625.23 910.211 623.77 910.211 622.344 910.263C621.499 903.66 621.28 896.974 622.048 890.246V890.256Z" fill="#346456"/>
<path id="Vector_51" d="M617.155 882.849C613.94 873.248 608.97 864.023 601.455 855.498C594.543 847.663 584.691 840.151 568.18 837.456C576.858 839.545 584.143 842.721 589.365 846.702C593.051 849.501 595.717 852.688 598.142 855.906C603.847 863.49 608.312 871.42 611.516 879.611C613.139 883.748 614.434 887.948 615.399 892.21C615.882 894.341 616.288 896.483 616.606 898.635C616.76 899.67 616.892 900.704 617.012 901.749C617.1 902.553 616.508 904.559 617.319 905.155C617.352 905.175 617.484 905.541 617.517 905.593C618.932 905.374 620.347 905.019 621.741 904.716C620.951 897.319 619.525 889.985 617.133 882.849H617.155Z" fill="#346456"/>
<path id="Vector_52" d="M603.737 883.048C600.523 873.447 595.553 864.222 588.037 855.697C581.126 847.861 571.274 840.35 554.762 837.654C563.44 839.744 570.725 842.92 575.947 846.9C579.634 849.7 582.3 852.887 584.724 856.104C590.429 863.689 594.894 871.619 598.098 879.809C599.722 883.947 601.016 888.146 601.982 892.409C602.464 894.54 602.87 896.682 603.189 898.834C603.342 899.868 603.474 900.903 603.594 901.947C603.682 902.752 603.09 904.758 603.902 905.353C603.935 905.374 604.066 905.74 604.099 905.792C605.514 905.573 606.93 905.217 608.323 904.914C607.533 897.518 606.107 890.184 603.715 883.048H603.737Z" fill="#346456"/>
</g>
<g id="Group_5">
<path id="Vector_53" d="M657.485 888.157C660.063 879.391 664.419 870.825 671.352 862.728C677.727 855.289 687.074 847.924 703.366 844.414C694.842 846.858 687.787 850.181 682.828 854.077C679.328 856.825 676.882 859.834 674.677 862.874C669.487 870.01 665.549 877.385 662.883 884.897C661.533 888.69 660.513 892.524 659.833 896.379C659.493 898.312 659.229 900.244 659.043 902.188C658.955 903.117 658.889 904.058 658.845 904.987C658.812 905.708 659.525 907.463 658.758 908.038C658.725 908.059 658.615 908.393 658.593 908.446C657.167 908.341 655.73 908.122 654.325 907.944C654.632 901.3 655.576 894.665 657.485 888.157Z" fill="#346456"/>
<path id="Vector_54" d="M649.509 888.491C647.918 879.517 643.694 871.044 638.538 861.819C634.906 855.31 626.009 840.036 617.649 835.554C620.172 838.741 627.27 847.14 629.728 851.486C631.878 855.289 633.381 858.371 635.213 861.631C636.607 864.107 642.685 876.978 644.506 884.709C645.428 888.616 646.009 892.534 646.272 896.441C646.404 898.395 646.448 900.349 646.415 902.292C646.393 903.232 646.36 904.162 646.305 905.092C646.261 905.813 645.351 907.484 646.053 908.132C646.075 908.153 646.152 908.498 646.174 908.56C647.6 908.602 649.059 908.529 650.474 908.487C650.913 901.853 650.705 895.156 649.52 888.491H649.509Z" fill="#346456"/>
<path id="Vector_55" d="M650.321 888.355C651.352 879.297 654.161 870.177 659.602 861.098C664.605 852.75 672.548 844.016 688.018 837.988C680.042 841.749 673.656 846.137 669.432 850.755C666.459 854.015 664.561 857.368 662.916 860.711C659.032 868.568 656.421 876.456 655.093 884.291C654.424 888.24 654.084 892.189 654.062 896.097C654.062 898.05 654.128 900.004 654.292 901.947C654.369 902.877 654.468 903.807 654.578 904.737C654.665 905.457 655.675 907.066 655.016 907.756C654.994 907.787 654.94 908.122 654.918 908.184C653.502 908.31 652.043 908.31 650.617 908.362C649.772 901.759 649.553 895.073 650.321 888.345V888.355Z" fill="#346456"/>
<path id="Vector_56" d="M645.428 880.969C642.213 871.368 637.243 862.143 629.728 853.618C622.816 845.782 612.964 838.271 596.452 835.575C605.131 837.665 612.415 840.841 617.638 844.821C621.324 847.621 623.99 850.807 626.415 854.025C632.12 861.61 636.585 869.54 639.788 877.73C641.412 881.868 642.707 886.067 643.672 890.33C644.155 892.461 644.561 894.603 644.879 896.755C645.033 897.789 645.164 898.824 645.285 899.868C645.373 900.673 644.78 902.679 645.592 903.274C645.625 903.295 645.757 903.661 645.79 903.713C647.205 903.494 648.62 903.138 650.014 902.835C649.224 895.439 647.797 888.105 645.406 880.969H645.428Z" fill="#346456"/>
<path id="Vector_57" d="M670.914 887.969C673.492 879.203 677.847 870.637 684.781 862.54C691.155 855.101 700.503 847.736 716.795 844.226C708.27 846.67 701.216 849.993 696.257 853.889C692.757 856.637 690.311 859.646 688.105 862.686C682.916 869.822 678.977 877.197 676.311 884.709C674.962 888.502 673.942 892.336 673.261 896.191C672.921 898.124 672.658 900.056 672.471 902C672.384 902.929 672.318 903.87 672.274 904.8C672.241 905.52 672.954 907.275 672.186 907.85C672.153 907.871 672.044 908.205 672.022 908.258C670.595 908.153 669.158 907.934 667.754 907.756C668.061 901.112 669.005 894.477 670.914 887.969Z" fill="#346456"/>
<path id="Vector_58" d="M662.937 888.303C661.347 879.329 657.123 870.856 651.966 861.631C648.335 855.122 639.437 839.848 631.077 835.366C633.601 838.553 640.699 846.952 643.157 851.298C645.307 855.101 646.81 858.183 648.642 861.443C650.035 863.919 656.113 876.79 657.935 884.521C658.856 888.428 659.438 892.346 659.701 896.253C659.833 898.207 659.876 900.161 659.844 902.104C659.822 903.044 659.789 903.974 659.734 904.904C659.69 905.625 658.779 907.296 659.482 907.944C659.504 907.965 659.58 908.31 659.602 908.372C661.028 908.414 662.488 908.341 663.903 908.299C664.342 901.665 664.133 894.968 662.948 888.303H662.937Z" fill="#346456"/>
<path id="Vector_59" d="M663.738 888.167C664.77 879.109 667.578 869.989 673.02 860.91C678.023 852.562 685.966 843.828 701.435 837.8C693.459 841.561 687.074 845.949 682.85 850.567C679.877 853.827 677.979 857.18 676.333 860.523C672.45 868.38 669.838 876.267 668.511 884.103C667.842 888.052 667.502 892.001 667.48 895.909C667.48 897.862 667.545 899.816 667.71 901.759C667.787 902.689 667.885 903.619 667.995 904.549C668.083 905.269 669.092 906.878 668.434 907.568C668.412 907.599 668.357 907.933 668.335 907.996C666.92 908.121 665.461 908.122 664.035 908.174C663.19 901.571 662.97 894.885 663.738 888.157V888.167Z" fill="#346456"/>
<path id="Vector_60" d="M658.856 880.76C655.642 871.159 650.672 861.934 643.157 853.409C636.245 845.573 626.393 838.062 609.881 835.366C618.559 837.456 625.844 840.632 631.066 844.612C634.753 847.412 637.419 850.598 639.843 853.816C645.548 861.401 650.014 869.331 653.217 877.521C654.841 881.658 656.135 885.858 657.101 890.121C657.584 892.252 657.99 894.394 658.308 896.546C658.461 897.58 658.593 898.615 658.714 899.659C658.801 900.464 658.209 902.47 659.021 903.065C659.054 903.086 659.185 903.452 659.218 903.504C660.634 903.285 662.049 902.929 663.442 902.626C662.652 895.23 661.226 887.896 658.834 880.76H658.856Z" fill="#346456"/>
<path id="Vector_61" d="M645.428 880.969C642.213 871.368 637.243 862.143 629.728 853.618C622.816 845.782 612.964 838.271 596.452 835.575C605.131 837.665 612.415 840.841 617.638 844.821C621.324 847.621 623.99 850.807 626.415 854.025C632.12 861.61 636.585 869.54 639.788 877.73C641.412 881.868 642.707 886.067 643.672 890.33C644.155 892.461 644.561 894.603 644.879 896.755C645.033 897.789 645.164 898.824 645.285 899.868C645.373 900.673 644.78 902.679 645.592 903.274C645.625 903.295 645.757 903.661 645.79 903.713C647.205 903.494 648.62 903.138 650.014 902.835C649.224 895.439 647.797 888.105 645.406 880.969H645.428Z" fill="#346456"/>
</g>
<g id="Group_6">
<path id="Vector_62" d="M578.493 889.202C581.071 880.436 585.426 871.869 592.36 863.773C598.734 856.334 608.082 848.969 624.374 845.458C615.849 847.903 608.795 851.225 603.836 855.122C600.336 857.87 597.89 860.879 595.684 863.919C590.495 871.055 586.556 878.43 583.89 885.942C582.541 889.734 581.521 893.569 580.84 897.424C580.5 899.356 580.237 901.289 580.05 903.233C579.963 904.162 579.897 905.103 579.853 906.032C579.82 906.753 580.533 908.508 579.765 909.083C579.732 909.104 579.623 909.438 579.601 909.49C578.174 909.386 576.737 909.167 575.333 908.989C575.64 902.344 576.584 895.71 578.493 889.202Z" fill="#346456"/>
<path id="Vector_63" d="M570.517 889.536C568.926 880.562 564.702 872.089 559.545 862.864C555.914 856.355 547.016 841.081 538.656 836.599C541.18 839.786 548.278 848.185 550.736 852.531C552.886 856.334 554.389 859.416 556.221 862.676C557.615 865.152 563.692 878.023 565.514 885.754C566.435 889.661 567.017 893.579 567.28 897.486C567.412 899.44 567.456 901.394 567.423 903.337C567.401 904.277 567.368 905.207 567.313 906.137C567.269 906.858 566.358 908.529 567.061 909.177C567.083 909.198 567.159 909.543 567.181 909.605C568.608 909.647 570.067 909.574 571.482 909.532C571.921 902.898 571.712 896.201 570.528 889.536H570.517Z" fill="#346456"/>
<path id="Vector_64" d="M571.328 889.4C572.36 880.342 575.168 871.222 580.61 862.143C585.613 853.795 593.556 845.061 609.025 839.033C601.049 842.794 594.664 847.182 590.44 851.8C587.467 855.059 585.569 858.413 583.923 861.756C580.04 869.613 577.428 877.5 576.101 885.336C575.432 889.285 575.092 893.234 575.07 897.141C575.07 899.095 575.135 901.049 575.3 902.992C575.377 903.922 575.475 904.852 575.585 905.781C575.673 906.502 576.682 908.111 576.024 908.801C576.002 908.832 575.947 909.166 575.925 909.229C574.51 909.355 573.051 909.354 571.625 909.407C570.78 902.804 570.56 896.118 571.328 889.39V889.4Z" fill="#346456"/>
<path id="Vector_65" d="M566.435 882.014C563.221 872.413 558.251 863.188 550.736 854.663C543.824 846.827 533.972 839.316 517.46 836.62C526.138 838.71 533.423 841.886 538.645 845.866C542.332 848.666 544.998 851.852 547.422 855.07C553.127 862.655 557.593 870.584 560.796 878.775C562.42 882.912 563.714 887.112 564.68 891.375C565.163 893.506 565.569 895.648 565.887 897.8C566.04 898.834 566.172 899.868 566.293 900.913C566.38 901.718 565.788 903.723 566.6 904.319C566.633 904.34 566.764 904.706 566.797 904.758C568.213 904.538 569.628 904.183 571.021 903.88C570.231 896.484 568.805 889.149 566.413 882.014H566.435Z" fill="#346456"/>
<path id="Vector_66" d="M591.921 889.014C594.499 880.248 598.855 871.681 605.789 863.585C612.163 856.146 621.51 848.781 637.802 845.271C629.278 847.715 622.223 851.037 617.264 854.934C613.765 857.682 611.318 860.691 609.113 863.731C603.924 870.867 599.985 878.242 597.319 885.754C595.97 889.546 594.949 893.381 594.269 897.236C593.929 899.169 593.666 901.101 593.479 903.045C593.391 903.974 593.325 904.915 593.282 905.844C593.249 906.565 593.962 908.32 593.194 908.895C593.161 908.916 593.051 909.25 593.029 909.302C591.603 909.198 590.166 908.979 588.761 908.801C589.069 902.156 590.012 895.522 591.921 889.014Z" fill="#346456"/>
<path id="Vector_67" d="M583.945 889.348C582.354 880.374 578.13 871.901 572.974 862.676C569.343 856.167 560.445 840.893 552.085 836.411C554.608 839.598 561.707 847.997 564.164 852.343C566.315 856.146 567.818 859.228 569.65 862.488C571.043 864.964 577.121 877.835 578.942 885.566C579.864 889.473 580.445 893.391 580.709 897.298C580.84 899.252 580.884 901.206 580.851 903.149C580.829 904.089 580.796 905.019 580.742 905.949C580.698 906.67 579.787 908.341 580.489 908.989C580.511 909.01 580.588 909.355 580.61 909.417C582.036 909.459 583.495 909.386 584.911 909.344C585.349 902.71 585.141 896.013 583.956 889.348H583.945Z" fill="#346456"/>
<path id="Vector_68" d="M584.746 889.212C585.777 880.154 588.586 871.034 594.028 861.955C599.031 853.607 606.974 844.873 622.443 838.845C614.467 842.606 608.082 846.994 603.858 851.612C600.885 854.871 598.987 858.225 597.341 861.568C593.457 869.425 590.846 877.312 589.519 885.148C588.849 889.097 588.509 893.046 588.487 896.953C588.487 898.907 588.553 900.861 588.718 902.804C588.794 903.734 588.893 904.664 589.003 905.593C589.091 906.314 590.1 907.923 589.442 908.613C589.42 908.644 589.365 908.978 589.343 909.041C587.928 909.166 586.469 909.166 585.042 909.219C584.198 902.616 583.978 895.93 584.746 889.201V889.212Z" fill="#346456"/>
<path id="Vector_69" d="M579.864 881.805C576.649 872.204 571.68 862.979 564.164 854.454C557.252 846.618 547.4 839.107 530.889 836.411C539.567 838.501 546.852 841.677 552.074 845.657C555.76 848.457 558.426 851.643 560.851 854.861C566.556 862.446 571.021 870.376 574.225 878.566C575.849 882.703 577.143 886.903 578.109 891.166C578.591 893.297 578.997 895.439 579.315 897.591C579.469 898.625 579.601 899.66 579.721 900.704C579.809 901.509 579.217 903.515 580.029 904.11C580.061 904.131 580.193 904.497 580.226 904.549C581.641 904.33 583.057 903.974 584.45 903.671C583.66 896.275 582.234 888.941 579.842 881.805H579.864Z" fill="#346456"/>
<path id="Vector_70" d="M566.435 882.014C563.221 872.413 558.251 863.188 550.736 854.663C543.824 846.827 533.972 839.316 517.46 836.62C526.138 838.71 533.423 841.886 538.645 845.866C542.332 848.666 544.998 851.852 547.422 855.07C553.127 862.655 557.593 870.584 560.796 878.775C562.42 882.912 563.714 887.112 564.68 891.375C565.163 893.506 565.569 895.648 565.887 897.8C566.04 898.834 566.172 899.868 566.293 900.913C566.38 901.718 565.788 903.723 566.6 904.319C566.633 904.34 566.764 904.706 566.797 904.758C568.213 904.538 569.628 904.183 571.021 903.88C570.231 896.484 568.805 889.149 566.413 882.014H566.435Z" fill="#346456"/>
</g>
</g>
<g id="bush">
<g id="Group_7">
<path id="Vector_71" d="M68.8609 885.649C73.5676 871.201 81.2035 857.17 93.1182 844.017C104.067 831.929 119.943 820.103 147.173 814.983C132.9 818.682 121.018 823.895 112.603 830.143C106.657 834.551 102.455 839.451 98.6366 844.403C89.6732 856.042 82.7724 868.108 77.9889 880.467C75.5753 886.715 73.6992 893.036 72.3607 899.419C71.6915 902.605 71.1649 905.813 70.7699 909.031C70.5834 910.577 70.4298 912.123 70.2982 913.669C70.1995 914.871 71.3185 917.806 70.0129 918.736C69.9581 918.768 69.7715 919.321 69.7167 919.405C67.3579 919.175 64.9772 918.736 62.6403 918.391C63.4632 907.369 65.3502 896.389 68.85 885.649H68.8609Z" fill="#346456"/>
<path id="Vector_72" d="M55.5968 885.858C53.3806 870.876 46.776 856.616 38.6464 841.06C32.9195 830.1 18.8874 804.337 5.20636 796.522C9.24374 801.934 20.6318 816.185 24.5046 823.519C27.8837 829.933 30.2425 835.115 33.1279 840.6C35.3222 844.779 44.8012 866.415 47.4562 879.349C48.7947 885.879 49.5847 892.408 49.826 898.907C49.9467 902.156 49.9357 905.405 49.7821 908.644C49.7053 910.2 49.6066 911.747 49.464 913.303C49.3542 914.494 47.7634 917.231 48.8935 918.349C48.9374 918.391 49.0361 918.955 49.08 919.06C51.4497 919.185 53.8634 919.122 56.2332 919.133C57.2754 908.132 57.2535 897.005 55.6078 885.868L55.5968 885.858Z" fill="#346456"/>
<path id="Vector_73" d="M56.9463 885.681C59.0966 870.689 64.1982 855.645 73.6773 840.799C82.3884 827.155 96.0035 812.988 121.983 803.648C108.544 809.551 97.726 816.561 90.507 824.052C85.4054 829.338 82.1031 834.833 79.1958 840.308C72.3607 853.2 67.6431 866.186 65.0649 879.13C63.7594 885.67 63.0023 892.2 62.7939 898.698C62.6842 901.947 62.7171 905.196 62.8927 908.435C62.9695 909.992 63.0901 911.538 63.2328 913.084C63.3425 914.275 64.9552 917.002 63.8252 918.12C63.7813 918.162 63.6825 918.736 63.6496 918.83C61.2799 918.977 58.8662 918.924 56.4965 918.945C55.3993 907.944 55.3664 896.828 56.9573 885.681H56.9463Z" fill="#346456"/>
<path id="Vector_74" d="M49.1788 873.196C44.2966 857.107 36.4851 841.561 24.4169 827.081C13.3141 813.771 -2.7038 800.858 -30 795.666C-15.6827 799.521 -3.73509 805.11 4.75657 811.943C10.7578 816.759 15.0146 822.161 18.8874 827.624C27.9935 840.475 35.0369 853.837 39.974 867.586C42.4644 874.523 44.4173 881.564 45.8325 888.679C46.5347 892.242 47.1052 895.814 47.5331 899.408C47.7415 901.132 47.9171 902.866 48.0597 904.601C48.1694 905.938 47.0942 909.25 48.4108 910.263C48.4656 910.305 48.6631 910.911 48.718 911.005C51.0768 910.692 53.4465 910.169 55.7724 909.72C54.8179 897.402 52.7992 885.148 49.1678 873.196H49.1788Z" fill="#346456"/>
<path id="Vector_75" d="M91.1654 885.931C95.872 871.482 103.508 857.452 115.423 844.298C126.372 832.211 142.247 820.384 169.477 815.265C155.204 818.964 143.322 824.177 134.907 830.424C128.961 834.833 124.759 839.733 120.941 844.685C111.978 856.323 105.077 868.39 100.293 880.749C97.8797 886.997 96.0036 893.317 94.6652 899.701C93.9959 902.887 93.4693 906.095 93.0743 909.312C92.8878 910.859 92.7342 912.405 92.6026 913.951C92.5038 915.152 93.6229 918.088 92.3173 919.018C92.2625 919.049 92.076 919.603 92.0211 919.687C89.6623 919.457 87.2816 919.018 84.9447 918.673C85.7675 907.651 87.6546 896.671 91.1544 885.931H91.1654Z" fill="#346456"/>
<path id="Vector_76" d="M77.9012 886.14C75.685 871.159 69.0804 856.898 60.9508 841.342C55.2238 830.383 41.1918 804.619 27.5107 796.805C31.5481 802.216 42.9362 816.467 46.809 823.801C50.1881 830.215 52.5469 835.397 55.4323 840.882C57.6265 845.061 67.1056 866.698 69.7606 879.631C71.0991 886.161 71.889 892.691 72.1304 899.189C72.2511 902.438 72.2401 905.687 72.0865 908.926C72.0097 910.483 71.911 912.029 71.7683 913.585C71.6586 914.776 70.0678 917.514 71.1978 918.631C71.2417 918.673 71.3405 919.237 71.3843 919.342C73.7541 919.467 76.1678 919.405 78.5375 919.415C79.5798 908.414 79.5578 897.288 77.9122 886.151L77.9012 886.14Z" fill="#346456"/>
<path id="Vector_77" d="M79.2508 885.962C81.4011 870.97 86.5027 855.926 95.9818 841.081C104.693 827.436 118.308 813.27 144.288 803.93C130.848 809.832 120.031 816.843 112.812 824.333C107.71 829.62 104.408 835.115 101.5 840.59C94.6652 853.482 89.9477 866.468 87.3694 879.412C86.0639 885.952 85.3069 892.482 85.0984 898.98C84.9887 902.229 85.0216 905.478 85.1971 908.717C85.2739 910.273 85.3946 911.82 85.5372 913.366C85.647 914.557 87.2597 917.284 86.1297 918.402C86.0858 918.443 85.9871 919.018 85.9542 919.112C83.5844 919.258 81.1707 919.206 78.801 919.227C77.7039 908.226 77.6709 897.11 79.2617 885.962H79.2508Z" fill="#346456"/>
<path id="Vector_78" d="M71.4831 873.436C66.601 857.347 58.7895 841.801 46.7212 827.321C35.6184 814.011 19.6006 801.099 -7.69562 795.906C6.62172 799.761 18.5693 805.351 27.061 812.183C33.0622 816.999 37.319 822.401 41.1918 827.865C50.2978 840.715 57.3413 854.077 62.2783 867.826C64.7688 874.763 66.7217 881.805 68.1369 888.919C68.8391 892.482 69.4096 896.055 69.8374 899.649C70.0459 901.372 70.2215 903.107 70.3641 904.841C70.4738 906.178 69.3986 909.49 70.7151 910.503C70.77 910.545 70.9675 911.151 71.0223 911.245C73.3811 910.932 75.7509 910.409 78.0768 909.96C77.1223 897.643 75.1036 885.388 71.4721 873.436H71.4831Z" fill="#346456"/>
<path id="Vector_79" d="M49.1788 873.196C44.2966 857.107 36.4851 841.561 24.4169 827.081C13.3141 813.771 -2.7038 800.858 -30 795.666C-15.6827 799.521 -3.73509 805.11 4.75657 811.943C10.7578 816.759 15.0146 822.161 18.8874 827.624C27.9935 840.475 35.0369 853.837 39.974 867.586C42.4644 874.523 44.4173 881.564 45.8325 888.679C46.5347 892.242 47.1052 895.814 47.5331 899.408C47.7415 901.132 47.9171 902.866 48.0597 904.601C48.1694 905.938 47.0942 909.25 48.4108 910.263C48.4656 910.305 48.6631 910.911 48.718 911.005C51.0768 910.692 53.4465 910.169 55.7724 909.72C54.8179 897.402 52.7992 885.148 49.1678 873.196H49.1788Z" fill="#346456"/>
</g>
</g>
<g id="leaves4">
<g id="Group_8">
<path id="Vector_80" d="M2105.66 835.48C2103.6 831.679 2098.78 827.506 2097.9 826.618C2096.63 825.358 2095.35 820.586 2094.59 818.293C2093.53 815.111 2092.43 802.169 2092.22 797.252C2091.96 791.179 2092.07 787.987 2090.24 785.353C2087.24 781.025 2085.23 779.754 2075.88 778.153C2069.17 776.997 2067.19 778.153 2065.27 772.214C2062.62 764.075 2060.09 755.295 2056.96 750.688C2054.14 746.546 2050.68 744.863 2038.14 742.952C2034.83 742.446 2015.72 737.467 2009.72 735.587C1995.29 731.052 1987.73 721.891 1986.26 723.099C1983.63 725.268 2001.82 748.075 2006.02 753.343C2016.37 766.327 2019.72 768.041 2022.22 768.93C2024.93 769.9 2028.96 770.727 2031.32 774.218C2033.51 777.461 2031.8 779.393 2033.85 781.872C2036.62 785.208 2040.86 783.122 2048.1 786.262C2050.55 787.326 2054.19 788.906 2056.49 792.284C2058.39 795.083 2058.26 799.566 2057.91 808.428C2057.38 821.877 2057.31 823.075 2058.6 824.604C2061.9 828.56 2067.6 826.618 2074.43 831.752C2075.98 832.919 2078.46 836.72 2079.99 840.697C2082.55 847.359 2079.73 851.976 2082.15 856.82C2084.07 860.652 2086.28 860.518 2092.79 863.462C2097.4 865.549 2102.56 868.544 2104.85 866.623C2105.21 866.323 2105.37 865.993 2105.46 865.796C2111.73 852.41 2108.92 842.411 2108.92 842.411C2108.1 839.519 2108.37 840.49 2105.66 835.491V835.48Z" fill="#147F5E"/>
<path id="Vector_81" d="M2109.66 885.67C2101.19 857.657 2090.37 830.399 2076.2 804.741C2063.17 781.159 2046.07 757.971 2021.43 747.476C2034.66 754.934 2046.33 765.263 2055.4 777.524C2061.8 786.179 2066.87 795.724 2071.65 805.361C2082.85 828.033 2092.43 851.48 2100.32 875.454C2104.31 887.571 2107.86 899.811 2110.98 912.164C2112.53 918.341 2113.98 924.539 2115.3 930.767C2115.94 933.752 2116.56 936.748 2117.15 939.743C2117.6 942.057 2117.57 947.707 2118.97 949.525C2119.03 949.597 2119.36 950.651 2119.44 950.826C2121.36 950.424 2123.24 949.649 2125.11 949.019C2120.99 927.72 2115.99 906.483 2109.69 885.67H2109.66Z" fill="#507264"/>
</g>
<g id="Group_9">
<path id="Vector_82" d="M2131.84 836.885C2133.9 833.084 2138.71 828.911 2139.6 828.023C2140.87 826.763 2142.15 821.99 2142.91 819.697C2143.96 816.516 2145.07 803.574 2145.28 798.657C2145.54 792.583 2145.43 789.392 2147.26 786.758C2150.25 782.43 2152.27 781.159 2161.62 779.558C2168.32 778.401 2170.31 779.558 2172.23 773.619C2174.88 765.48 2177.4 756.7 2180.54 752.093C2183.36 747.951 2186.82 746.267 2199.36 744.356C2202.67 743.85 2221.78 738.872 2227.78 736.992C2242.2 732.457 2249.76 723.295 2251.24 724.504C2253.86 726.673 2235.67 749.48 2231.48 754.748C2221.13 767.731 2217.78 769.446 2215.28 770.334C2212.57 771.305 2208.53 772.132 2206.18 775.623C2203.99 778.866 2205.69 780.798 2203.64 783.277C2200.88 786.613 2196.64 784.527 2189.4 787.667C2186.95 788.731 2183.3 790.311 2181.01 793.689C2179.11 796.488 2179.24 800.971 2179.58 809.833C2180.12 823.282 2180.19 824.48 2178.9 826.009C2175.59 829.965 2169.9 828.023 2163.06 833.156C2161.51 834.324 2159.04 838.125 2157.51 842.101C2154.95 848.764 2157.77 853.381 2155.35 858.225C2153.43 862.057 2151.22 861.923 2144.71 864.867C2140.1 866.953 2134.94 869.949 2132.65 868.028C2132.29 867.728 2132.13 867.398 2132.04 867.201C2125.77 853.815 2128.58 843.816 2128.58 843.816C2129.39 840.924 2129.12 841.895 2131.84 836.895V836.885Z" fill="#147F5E"/>
<path id="Vector_83" d="M2127.83 887.075C2136.3 859.062 2147.13 831.803 2161.3 806.146C2174.32 782.564 2191.43 759.375 2216.06 748.881C2202.84 756.339 2191.17 766.668 2182.1 778.928C2175.7 787.584 2170.62 797.128 2165.85 806.766C2154.65 829.438 2145.07 852.885 2137.17 876.859C2133.19 888.975 2129.63 901.215 2126.52 913.569C2124.97 919.746 2123.52 925.943 2122.19 932.172C2121.55 935.157 2120.93 938.152 2120.35 941.148C2119.89 943.462 2119.93 949.112 2118.53 950.93C2118.47 951.002 2118.14 952.056 2118.06 952.231C2116.14 951.828 2114.25 951.054 2112.39 950.424C2116.51 929.125 2121.51 907.888 2127.81 887.075H2127.83Z" fill="#507264"/>
</g>
<g id="Group_10">
<path id="Vector_84" d="M2118.76 893.913C2118.76 885.463 2131.95 889.616 2137.25 879.834C2143.32 868.585 2146.12 869.98 2148.33 853.784C2148.96 849.218 2148.29 844.25 2147.63 839.736C2146.7 833.373 2142.8 828.529 2141.15 822.455C2140.7 820.761 2140.53 818.902 2141.32 817.322C2143.28 813.324 2148.69 815.958 2152.03 814.368C2159.46 810.825 2163.93 802.716 2162.98 794.897C2162.17 788.328 2157.78 782.337 2151.79 778.99C2151.05 778.577 2150.26 778.185 2149.71 777.544C2146.89 774.311 2161.04 768 2163.13 766.492C2169.69 761.761 2171.48 757.857 2172.74 754.52C2175.4 747.486 2175.14 741.392 2174.95 736.92C2174.65 729.565 2173.13 728.615 2173.48 722.139C2173.57 720.372 2173.97 715.001 2176.44 708.762C2180.33 698.908 2186.63 693.826 2186.05 693.279C2185.27 692.545 2176.41 703.763 2160.92 712.284C2146.84 720.031 2140.96 722.138 2135.05 726.363C2132.04 728.512 2126.27 730.619 2123.96 739.037C2123.29 741.475 2121.75 750.296 2122.49 754.52C2123.54 760.553 2124.46 768.733 2123.22 771.419C2122.08 773.898 2120.37 773.536 2112.14 776.346C2107.8 777.823 2102.49 779.001 2099.52 782.605C2096.69 786.045 2096.75 790.941 2097.99 795.155C2099.35 799.752 2101.5 804.255 2103.28 808.728C2105.12 813.376 2109.04 815.576 2107.73 821.34C2106.84 825.275 2103.96 828.519 2100.97 831.359C2096.84 835.274 2091.65 839.519 2090.71 845.334C2089.41 853.371 2091.72 861.324 2095.51 868.472C2097.42 872.077 2099.68 875.516 2102.07 878.853C2104.24 881.889 2105.63 885.567 2109.44 887.085C2110.22 887.395 2111.05 887.612 2111.73 888.108C2112.89 888.965 2112.65 890.494 2112.72 891.733C2112.74 892.126 2112.8 892.528 2113.01 892.869C2113.53 893.768 2118.82 895.483 2118.82 893.913H2118.76Z" fill="#5DB6A0"/>
<path id="Vector_85" d="M2115.89 848.898C2118.59 821.567 2123.75 794.536 2132.52 768.413C2140.58 744.398 2152.72 720.052 2174.8 706.149C2163.31 715.301 2153.93 726.838 2147.49 739.719C2142.94 748.808 2139.86 758.497 2137.12 768.217C2130.66 791.075 2125.96 814.378 2123.02 837.877C2121.53 849.745 2120.5 861.665 2119.93 873.605C2119.63 879.576 2119.46 885.556 2119.4 891.526C2119.37 894.398 2119.37 897.259 2119.4 900.131C2119.43 902.341 2120.59 907.557 2119.58 909.479C2119.53 909.551 2119.43 910.584 2119.38 910.759C2117.42 910.718 2115.41 910.326 2113.46 910.057C2113.23 889.678 2113.89 869.205 2115.9 848.898H2115.89Z" fill="#3C837C"/>
</g>
</g>
</g>
<defs>
<linearGradient id="paint0_linear_30_397" x1="885.5" y1="165" x2="885.5" y2="693.232" gradientUnits="userSpaceOnUse">
<stop offset="0.530777" stop-color="#B4DDD4"/>
<stop offset="1" stop-color="#28BA98"/>
</linearGradient>
<linearGradient id="paint1_linear_30_397" x1="598.349" y1="56" x2="598.349" y2="470.915" gradientUnits="userSpaceOnUse">
<stop stop-color="#B8E1D4"/>
<stop offset="1" stop-color="#6BBEA4"/>
</linearGradient>
<linearGradient id="paint2_linear_30_397" x1="613.5" y1="219.809" x2="610.345" y2="503.428" gradientUnits="userSpaceOnUse">
<stop stop-color="#64B5B8"/>
<stop offset="1" stop-color="#026B6F"/>
</linearGradient>
<linearGradient id="paint3_linear_30_397" x1="1609.5" y1="67" x2="1609.5" y2="595.232" gradientUnits="userSpaceOnUse">
<stop offset="0.0840499" stop-color="#B4DDD4"/>
<stop offset="1" stop-color="#28BA98"/>
</linearGradient>
<linearGradient id="paint4_linear_30_397" x1="1072.5" y1="233.809" x2="1072.5" y2="551.972" gradientUnits="userSpaceOnUse">
<stop stop-color="#8BC49B"/>
<stop offset="1" stop-color="#279846"/>
</linearGradient>
<linearGradient id="paint5_linear_30_397" x1="960.154" y1="640.981" x2="1066.09" y2="1102.07" gradientUnits="userSpaceOnUse">
<stop offset="0.42" stop-color="#E3D5A5"/>
<stop offset="0.87" stop-color="#F1BBA3"/>
</linearGradient>
<clipPath id="clip0_30_397">
<rect width="2145" height="903" fill="white"/>
</clipPath>
</defs>
</svg>
