<svg width="2145" height="1179" viewBox="0 0 2145 1179" fill="none" xmlns="http://www.w3.org/2000/svg">
<g id="field" clip-path="url(#clip0_29_142)">
<g id="mountain1">
<path id="Vector" d="M1.7354 483.098C-3.95305e-07 481.858 61.6344 473.52 129.636 505.172C180.449 528.815 196.211 558.766 245.278 579.26C294.775 599.93 293.029 550.603 404.725 574.531C478.308 590.297 474.66 622.047 516.863 639.162C551.659 653.271 575.037 647.248 607.977 640.742C642.641 633.896 657.541 626.951 685.075 629.705C736.065 634.807 739.204 661.17 814.733 683.299C844.356 691.977 867.37 709.959 891.831 724.287C918.625 739.987 932.751 760.152 956.66 768.424C979.441 776.302 1010.42 768.227 1079.31 781.03C1122.02 788.973 1179.31 811.903 1196.7 845.661L1173.92 896.106L0 880.341L1.75751 483.098H1.7354Z" fill="url(#paint0_linear_29_142)"/>
</g>
<g id="mountain2">
<path id="Vector_2" d="M0.0110148 612.151C0.0110148 591.383 53.267 588.19 89.8943 581.937C134.142 574.389 203.443 590.801 228.177 598.931C250.125 606.15 276.312 627.302 326.364 668.795C366.218 701.84 369.565 713.964 399.651 721.665C421.775 727.326 470.924 722.521 518.574 716.004C572.546 708.621 574.297 709.279 609.845 710.343C628.104 710.892 643.003 702.554 681.756 729.224C718.879 754.787 724.638 789.588 768.875 816.094C801.901 835.875 824.84 816.653 832.483 816.094C851.402 814.701 857.987 815.117 872.59 821.755C885.034 827.416 897.159 842.48 926.518 861.416C935.251 867.044 963.123 881.339 990.125 874.636C1005.33 870.862 1025.37 842.754 1063.41 831.201C1101.46 819.649 1174.04 829.314 1208.61 827.427C1230.89 826.209 1215.53 919.958 1215.53 919.958L948.642 925.619L4.15167 872.749C4.15167 872.749 0 634.467 0 612.151H0.0110148Z" fill="url(#paint1_linear_29_142)"/>
</g>
<g id="mountain3">
<path id="Vector_3" d="M1079 929.5C1090.52 912.473 1133.59 853.154 1157.71 844.86C1181.48 836.675 1201.34 832.879 1235.82 826.275C1249.68 823.619 1326.53 818.309 1349.21 807.689C1381.29 792.67 1382.85 780.898 1410.95 743.969C1430.68 718.022 1458.53 678.131 1482.76 674.939C1502.91 672.284 1508.28 680.644 1528.12 672.283C1540.72 666.973 1537.35 658.493 1596.15 608.563C1621.19 587.301 1645.18 581.497 1661.66 579.358C1674.24 577.723 1685.39 584.372 1704.5 584.668C1733.58 585.118 1750.77 570.899 1762.45 566.083C1789.73 554.837 1789.97 548.342 1807.81 542.188C1844.92 529.384 1870.62 556.999 1926.93 592.019C1939.44 599.797 1936.47 598.689 1943.31 602.639C2001.81 636.375 2044.85 611.47 2066.09 603.253C2108.15 586.972 2142.94 574.048 2142.94 574.048V1054.63C2142.94 1054.63 1114.86 1073.21 1101 1065.25" fill="url(#paint2_linear_29_142)"/>
</g>
<g id="mountain4">
<path id="Vector_4" d="M2144.99 659.698C2109.29 654.41 2079.64 645.754 2014.3 657.954C1963.35 667.466 1926.22 684.658 1873.66 703.265C1816.73 723.408 1717.29 761.752 1669.09 760.776C1620.61 759.788 1551.18 718.954 1464.52 724.176C1443.08 725.47 1403.73 734.467 1302.58 774.72C1152.99 834.227 1141.98 836.784 1083.8 856.631C1038.33 872.144 916.07 904.662 849.405 905.43C802.941 905.968 718.715 875.808 668.992 856.631C620.131 837.793 519.526 789.059 379.193 746.831C291.996 720.588 178.889 696.287 127.753 678.865C71.8008 659.797 30.0081 661.542 0 650V968.163H2145V666.676" fill="url(#paint3_linear_29_142)"/>
</g>
<g id="field_2">
<path id="Vector_5" d="M2144.99 772.741C1965.8 846.709 1466.37 938.954 1145.84 950.88C821.281 962.959 383.117 848.113 328.896 832.94C193.539 795.068 79.2057 745.467 0 706.432L0.993246 1427.61L2144.89 1428.35L2145 772.741H2144.99Z" fill="#8CC76D"/>
<path id="Vector_6" d="M1038.79 1425.18C1062.43 1405.44 1096.94 1380.15 1111.32 1368.93C1119.41 1362.63 1149.24 1332.97 1162.78 1315C1174.66 1299.24 1185.8 1293.75 1181.74 1264.34C1175.66 1220.3 1131.34 1216.75 1123.5 1212.04C1112.67 1205.5 983.72 1167.01 874.309 1153.2C782.809 1141.65 718.061 1125.74 692.832 1076.38C688.694 1068.28 672.758 1042.39 680.648 1020.81C686.784 1004.01 705.943 996.585 725.344 991.385C772.943 978.637 806.802 987.765 858.064 994.654C907.483 1001.29 945.138 1002.09 979.957 1002.83C986.535 1002.97 981.094 1002.8 1084.24 999.559C1098.37 999.12 1122.97 998.352 1153.31 989.75C1173.15 984.122 1184.27 979.01 1187.17 976.673C1203.43 963.595 1210.19 960.326 1212.48 959.196C1215.81 957.539 1229.93 946.359 1230.39 946.283C1237.11 945.164 1249.44 945.164 1249.44 945.164C1249.44 945.164 1232.79 979.416 1231.88 981.566C1230.35 985.121 1229.57 986.569 1227.82 989.739C1222.4 999.548 1207.23 1017.2 1168.22 1028.97C1141.14 1037.15 1089.67 1043.68 1040.91 1043.68C1017.3 1043.68 972.386 1042.05 929.853 1042.05C916.312 1042.05 893.291 1043.68 856.718 1037.15C856.497 1037.1 803.888 1029.49 795.776 1028.97C770.04 1027.34 745.662 1030.61 744.315 1038.78C742.958 1046.95 760.461 1053.24 789.011 1061.67C832.284 1074.43 861.904 1075.86 904.128 1079.65C909.459 1080.13 974.527 1086.03 1039.56 1095.99C1048.68 1097.39 1086.27 1105.1 1161.46 1120.52C1216.14 1131.73 1243.98 1137.78 1268.45 1159.75C1279.6 1169.75 1301.28 1189.22 1310.43 1223.49C1321.13 1263.56 1308.5 1300.67 1294.18 1342.81C1285.46 1368.44 1252.28 1429.46 1252.28 1429.46C1252.28 1429.46 1035.67 1427.85 1038.81 1425.22L1038.79 1425.18Z" fill="url(#paint4_linear_29_142)"/>
<path id="Vector_7" opacity="0.8" d="M418.156 1173.12C428.109 1173.12 436.178 1166.67 436.178 1158.72C436.178 1150.76 428.109 1144.31 418.156 1144.31C408.203 1144.31 400.134 1150.76 400.134 1158.72C400.134 1166.67 408.203 1173.12 418.156 1173.12Z" fill="#F6DCC0"/>
<path id="Vector_8" opacity="0.8" d="M1474.31 1066.7C1484.26 1066.7 1492.33 1060.25 1492.33 1052.3C1492.33 1044.34 1484.26 1037.89 1474.31 1037.89C1464.35 1037.89 1456.28 1044.34 1456.28 1052.3C1456.28 1060.25 1464.35 1066.7 1474.31 1066.7Z" fill="#F6DCC0"/>
</g>
<g id="orangeflower">
<path id="Vector_9" d="M777.782 1014.76C777.365 1012.33 776.125 1010.23 773.898 1009.12C772.57 1008.46 771.133 1008.21 769.663 1008.1C767.249 1007.92 766.163 1008.1 764.967 1010.7C764.035 1012.73 762.817 1014.66 762.312 1016.83C761.446 1020.54 762.751 1024.46 763.3 1028.01C763.596 1029.99 764.287 1031.7 764.77 1033.62C766.108 1038.99 765.582 1038.17 765.154 1043.84C764.671 1050.22 742.466 1190.17 742.466 1190.17L750.464 1191.62C751.791 1184.08 762.894 1104.22 763.497 1096.16C764.759 1079.59 766.58 1063.03 768.237 1046.47C768.566 1043.18 768.873 1039.89 769.169 1036.6C769.224 1035.95 769.29 1035.29 769.553 1034.68C769.773 1034.19 770.102 1033.77 770.431 1033.35C772.768 1030.29 774.293 1026.61 775.686 1022.99C776.564 1020.71 778.21 1017.26 777.782 1014.76V1014.76Z" fill="#123A1B"/>
<path id="Vector_10" d="M771.331 977.588C769.696 977.391 773.81 956.546 776.827 950.895C778.177 948.372 782.258 941.603 780.009 939.475C776.663 936.304 772.516 939.782 761.303 941.603C747.556 943.841 726.909 942.031 726.119 947.198C724.846 955.47 744.451 975.613 742.4 976.93C742.082 977.138 719.36 959.815 713.579 959.683C705.438 959.497 696.562 963.106 691.691 973.233C690.451 975.811 687.906 981.395 690.726 985.981C693.447 990.392 701.423 985.4 709.431 983.853C721.258 981.56 731.001 985.992 731.22 986.892C731.451 987.835 712.032 995.394 707.117 999.114C707.117 999.114 700.72 1004.81 701.719 1009.21C702.585 1013.06 733.623 1031.63 743.837 1034.41C754.051 1037.18 766.383 1010.28 768.906 1009.44C776.037 1007.05 781.918 1027.57 796.378 1029.21C805.725 1030.26 813.646 1025.48 821.348 1020.83C830.257 1015.44 841.03 1008.94 841.502 999.574C841.919 991.214 833.954 984.292 827.821 981.395C814.085 974.9 805.912 984.237 804.683 980.88C803.608 977.917 807.382 975.833 819.439 969.722C829.006 964.873 835.446 971.927 836.795 970.106C838.496 967.802 813.12 945.958 800.459 945.037C775.105 943.194 773.898 977.885 771.342 977.577L771.331 977.588Z" fill="#EF7633"/>
<path id="Vector_11" d="M794.917 997.517C796.639 991.404 787.519 983.488 774.548 979.835C761.577 976.181 749.667 978.175 747.945 984.287C746.224 990.399 755.343 998.316 768.314 1001.97C781.285 1005.62 793.196 1003.63 794.917 997.517Z" fill="#701538"/>
<path id="Vector_12" d="M750.727 1153.6C753.514 1138.94 753.667 1123.35 749.882 1106.64C746.393 1091.28 738.703 1073.98 718.505 1057.51C728.62 1067.04 736.058 1076.81 740.151 1085.97C743.036 1092.43 744.254 1098.56 745.132 1104.55C747.183 1118.63 747.315 1132.18 745.559 1145.05C744.671 1151.56 745.263 1152.92 744.956 1159.05C744.791 1162.25 743.782 1168.04 744.024 1177.46C744.067 1179 744.024 1188.33 743.398 1189.74C742.926 1190.82 747.019 1189.66 747.677 1191.04C747.699 1191.1 743.398 1189.64 743.398 1189.74C745.461 1190.57 745.581 1190.32 747.677 1191.04C752.098 1181.08 748.664 1164.49 750.738 1153.6H750.727Z" fill="#123A1B"/>
<path id="Vector_13" d="M757.024 1156.42C765.066 1143.84 775.642 1132.4 789.861 1122.87C802.928 1114.1 820.394 1106.81 846.384 1108.72C832.495 1108.68 820.383 1110.68 811.123 1114.53C804.595 1117.25 799.505 1120.85 794.754 1124.61C783.596 1133.44 774.205 1143.2 766.646 1153.76C762.828 1159.09 759.482 1164.65 756.607 1170.37C755.17 1173.24 753.854 1176.15 752.658 1179.12C752.087 1180.54 751.539 1181.97 751.023 1183.42C750.628 1184.53 750.859 1187.61 749.443 1188.16C749.388 1188.18 749.07 1188.65 748.993 1188.72C746.92 1187.9 744.879 1186.91 742.861 1185.99C746.481 1175.71 751.056 1165.74 757.024 1156.4V1156.42Z" fill="#123A1B"/>
</g>
<g id="yellowflower">
<path id="Vector_14" d="M683.275 1053.77C682.789 1052.06 681.735 1050.62 680.034 1050C679.023 1049.62 677.963 1049.55 676.896 1049.58C675.143 1049.64 674.364 1049.86 673.707 1051.82C673.189 1053.35 672.456 1054.84 672.257 1056.45C671.92 1059.19 673.161 1061.92 673.825 1064.45C674.193 1065.85 674.825 1067.04 675.313 1068.39C676.688 1072.17 676.245 1071.62 676.369 1075.75C676.504 1080.39 671.189 1183.11 671.189 1183.11L677.071 1183.55C677.456 1178 679.352 1119.5 679.173 1113.63C678.812 1101.57 678.857 1089.47 678.789 1077.4C678.779 1075 678.738 1072.6 678.707 1070.21C678.697 1069.74 678.691 1069.24 678.845 1068.79C678.96 1068.42 679.18 1068.1 679.377 1067.77C680.831 1065.38 681.645 1062.59 682.378 1059.89C682.843 1058.17 683.757 1055.56 683.26 1053.79L683.275 1053.77Z" fill="#123A1B"/>
<path id="Vector_15" d="M675.782 1027.43C674.59 1027.41 675.958 1012.04 677.712 1007.74C678.496 1005.82 680.925 1000.62 679.131 999.257C676.472 997.226 673.749 1000.05 665.791 1002.22C656.038 1004.89 640.994 1005.16 640.824 1008.95C640.54 1015.02 656.233 1028.06 654.857 1029.17C654.646 1029.34 636.917 1018.58 632.739 1018.93C626.847 1019.41 620.718 1022.7 617.978 1030.39C617.278 1032.34 615.862 1036.57 618.252 1039.66C620.55 1042.64 625.93 1038.42 631.591 1036.69C639.949 1034.13 647.33 1036.59 647.554 1037.23C647.785 1037.89 634.361 1044.83 631.092 1047.89C631.092 1047.89 626.913 1052.49 627.969 1055.59C628.889 1058.31 652.71 1069.33 660.304 1070.57C667.889 1071.79 674.733 1051.42 676.495 1050.62C681.457 1048.35 687.275 1062.72 697.84 1062.79C704.668 1062.84 710.019 1058.78 715.223 1054.84C721.239 1050.28 728.524 1044.75 728.144 1037.95C727.802 1031.89 721.53 1027.5 716.87 1025.87C706.452 1022.24 701.272 1029.6 700.134 1027.27C699.131 1025.22 701.7 1023.43 709.933 1018.08C716.466 1013.85 721.66 1018.45 722.491 1017.03C723.538 1015.25 703.552 1001.42 694.345 1001.71C675.905 1002.32 677.687 1027.46 675.815 1027.43L675.782 1027.43Z" fill="#F5A736"/>
<path id="Vector_16" d="M675.504 1045.32C685.144 1046.97 693.588 1044.62 694.364 1040.07C695.139 1035.52 687.953 1030.51 678.313 1028.86C668.673 1027.22 660.229 1029.57 659.453 1034.11C658.678 1038.66 665.864 1043.68 675.504 1045.32Z" fill="#701538"/>
<path id="Vector_17" d="M675.661 1135.68C680.293 1126.41 686.765 1117.73 695.885 1110.1C704.272 1103.09 715.799 1096.77 733.898 1096.18" fill="#123A1B"/>
<path id="Vector_18" d="M671.045 1142.68C669.814 1129.6 666.128 1116.38 658.836 1103.17C652.126 1091.04 641.386 1078.29 620.273 1069.3C631.159 1074.88 639.843 1081.33 645.546 1088.07C649.569 1092.83 652.097 1097.71 654.306 1102.56C659.489 1113.98 662.917 1125.4 664.583 1136.72C665.423 1142.44 666.258 1143.44 667.499 1148.7C668.144 1151.45 668.705 1156.59 671.216 1164.5C671.63 1165.79 673.878 1173.7 673.693 1175.04C673.56 1176.07 676.736 1174.09 677.631 1175.1C677.663 1175.14 673.669 1174.96 673.693 1175.04C675.641 1175.24 675.681 1175 677.631 1175.1C678.932 1165.59 671.967 1152.4 671.054 1142.68L671.045 1142.68Z" fill="#123A1B"/>
</g>
<g id="circleleaf">
<path id="Vector_19" d="M383.407 1025.28C394.916 1024.54 401.279 1030.11 401.992 1035.63C402.706 1041.15 396.628 1048.04 385.042 1049.6C378.437 1050.49 352.94 1041.77 351.832 1040.22C351.876 1038.81 375.322 1025.79 383.418 1025.27L383.407 1025.28Z" fill="#246D61"/>
<path id="Vector_20" d="M358.393 1056.73C369.891 1059.42 374.619 1065.57 373.808 1070.09C372.996 1074.61 365.14 1078.27 353.335 1076.2C346.61 1075.01 323.966 1060.98 323.296 1059.45C323.724 1058.36 350.307 1054.85 358.393 1056.73Z" fill="#246D61"/>
<path id="Vector_21" d="M335.65 1089.35C345.568 1095.76 347.938 1103.14 345.645 1107.12C343.352 1111.11 334.717 1111.9 324.317 1105.96C318.392 1102.58 301.815 1081.71 301.705 1080.06C302.473 1079.17 328.683 1084.84 335.661 1089.35H335.65Z" fill="#246D61"/>
<path id="Vector_22" d="M312.106 1118.95C322.024 1125.36 324.394 1132.74 322.101 1136.72C319.808 1140.71 311.173 1141.5 300.773 1135.56C294.848 1132.18 278.271 1111.31 278.161 1109.66C278.929 1108.77 305.139 1114.44 312.117 1118.95H312.106Z" fill="#246D61"/>
<path id="Vector_23" d="M266.455 1081.48C258.611 1072.66 250.953 1071.45 247.365 1074.32C243.778 1077.19 244.315 1085.84 251.765 1095.22C256.01 1100.56 279.16 1113.76 280.816 1113.62C281.573 1112.72 271.973 1087.68 266.455 1081.48Z" fill="#246D61"/>
<path id="Vector_24" d="M294.563 1049.17C288.156 1039.26 280.772 1036.89 276.79 1039.17C272.807 1041.45 272.017 1050.08 277.942 1060.5C281.321 1066.42 302.177 1083.01 303.834 1083.13C304.722 1082.36 299.061 1056.15 294.552 1049.17H294.563Z" fill="#246D61"/>
<path id="Vector_25" d="M320.905 1022.33C315.957 1011.61 308.99 1008.22 304.722 1009.92C300.455 1011.63 298.458 1020.06 302.857 1031.19C305.37 1037.54 323.68 1056.9 325.304 1057.25C326.292 1056.61 324.383 1029.87 320.905 1022.33Z" fill="#246D61"/>
<path id="Vector_26" d="M255.363 1133.4C271.6 1110.25 289.791 1088.55 310.581 1069.42C329.693 1051.83 352.458 1035.93 378.372 1034.2C363.912 1036.82 350.033 1042.58 337.965 1050.98C329.451 1056.91 321.892 1064.1 314.596 1071.46C297.437 1088.79 281.54 1107.35 267.058 1126.97C259.741 1136.88 252.785 1147.05 246.202 1157.46C242.911 1162.66 239.718 1167.93 236.613 1173.25C235.121 1175.8 233.662 1178.37 232.214 1180.95C231.106 1182.93 229.427 1188.17 227.595 1189.41C227.529 1189.45 226.893 1190.33 226.772 1190.46C225.116 1189.47 223.613 1188.15 222.077 1186.96C232.28 1168.61 243.273 1150.6 255.352 1133.39L255.363 1133.4Z" fill="#3C837C"/>
</g>
<g id="bush2">
<path id="Vector_27" d="M472.603 1160.46C475.565 1149.88 480.568 1139.56 488.533 1129.79C495.861 1120.82 506.591 1111.94 525.297 1107.71C515.511 1110.66 507.403 1114.66 501.72 1119.36C497.705 1122.67 494.896 1126.3 492.362 1129.97C486.404 1138.58 481.873 1147.47 478.812 1156.53C477.265 1161.1 476.091 1165.72 475.302 1170.38C474.907 1172.71 474.599 1175.05 474.391 1177.38C474.292 1178.5 474.215 1179.63 474.161 1180.76C474.117 1181.63 474.95 1183.75 474.062 1184.44C474.029 1184.46 473.908 1184.87 473.864 1184.93C472.23 1184.81 470.573 1184.54 468.96 1184.33C469.311 1176.32 470.387 1168.32 472.592 1160.46H472.603Z" fill="#346456"/>
<path id="Vector_28" d="M463.442 1160.86C461.61 1150.03 456.76 1139.82 450.836 1128.68C446.656 1120.84 436.453 1102.42 426.853 1097.01C429.749 1100.86 437.901 1110.98 440.721 1116.22C443.189 1120.82 444.912 1124.52 447.018 1128.45C448.62 1131.44 455.597 1146.96 457.682 1156.29C458.735 1161 459.415 1165.72 459.712 1170.43C459.865 1172.79 459.909 1175.13 459.876 1177.49C459.854 1178.62 459.81 1179.75 459.755 1180.87C459.712 1181.74 458.658 1183.76 459.47 1184.54C459.503 1184.57 459.58 1184.98 459.613 1185.05C461.248 1185.1 462.926 1185.01 464.55 1184.96C465.044 1176.96 464.813 1168.89 463.453 1160.85L463.442 1160.86Z" fill="#346456"/>
<path id="Vector_29" d="M464.363 1160.7C465.548 1149.78 468.774 1138.77 475.027 1127.82C480.776 1117.76 489.893 1107.21 507.655 1099.95C498.495 1104.48 491.155 1109.78 486.317 1115.35C482.905 1119.29 480.732 1123.33 478.834 1127.37C474.369 1136.85 471.374 1146.36 469.849 1155.8C469.081 1160.58 468.686 1165.33 468.664 1170.04C468.664 1172.4 468.741 1174.76 468.927 1177.1C469.015 1178.23 469.125 1179.35 469.256 1180.47C469.355 1181.33 470.518 1183.28 469.761 1184.11C469.728 1184.14 469.673 1184.56 469.651 1184.62C468.017 1184.77 466.349 1184.78 464.714 1184.84C463.738 1176.89 463.486 1168.82 464.374 1160.7H464.363Z" fill="#346456"/>
<path id="Vector_30" d="M458.757 1151.79C455.06 1140.21 449.355 1129.08 440.731 1118.8C432.799 1109.35 421.477 1100.29 402.519 1097.04C412.492 1099.57 420.852 1103.39 426.853 1108.19C431.088 1111.57 434.149 1115.41 436.935 1119.29C443.485 1128.44 448.62 1138 452.295 1147.88C454.16 1152.87 455.641 1157.94 456.76 1163.08C457.32 1165.64 457.781 1168.23 458.154 1170.83C458.329 1172.08 458.483 1173.34 458.625 1174.59C458.724 1175.55 458.055 1177.98 458.976 1178.69C459.009 1178.71 459.163 1179.15 459.207 1179.23C460.831 1178.95 462.454 1178.52 464.056 1178.16C463.146 1169.24 461.511 1160.39 458.768 1151.79H458.757Z" fill="#346456"/>
<path id="Vector_31" d="M488.017 1160.24C490.979 1149.66 495.982 1139.34 503.947 1129.57C511.276 1120.6 522.006 1111.72 540.711 1107.49C530.925 1110.44 522.818 1114.44 517.135 1119.14C513.119 1122.45 510.31 1126.08 507.776 1129.75C501.819 1138.36 497.288 1147.25 494.227 1156.31C492.68 1160.88 491.506 1165.5 490.716 1170.16C490.321 1172.49 490.014 1174.83 489.805 1177.16C489.707 1178.28 489.63 1179.41 489.575 1180.54C489.531 1181.41 490.365 1183.53 489.476 1184.22C489.443 1184.24 489.323 1184.65 489.279 1184.71C487.644 1184.59 485.987 1184.32 484.375 1184.11C484.726 1176.1 485.801 1168.1 488.006 1160.24H488.017Z" fill="#346456"/>
<path id="Vector_32" d="M478.856 1160.64C477.024 1149.81 472.175 1139.6 466.25 1128.46C462.07 1120.62 451.867 1102.2 442.267 1096.79C445.164 1100.64 453.315 1110.76 456.135 1116C458.603 1120.6 460.326 1124.31 462.432 1128.23C464.034 1131.22 471.012 1146.74 473.096 1156.07C474.15 1160.78 474.83 1165.5 475.126 1170.21C475.28 1172.57 475.323 1174.92 475.291 1177.27C475.269 1178.4 475.225 1179.53 475.17 1180.65C475.126 1181.52 474.073 1183.54 474.885 1184.32C474.917 1184.35 474.994 1184.76 475.027 1184.83C476.662 1184.88 478.341 1184.79 479.964 1184.75C480.458 1176.74 480.228 1168.67 478.867 1160.63L478.856 1160.64Z" fill="#346456"/>
<path id="Vector_33" d="M479.789 1160.48C480.974 1149.56 484.199 1138.55 490.453 1127.6C496.201 1117.54 505.319 1106.99 523.081 1099.73C513.92 1104.26 506.58 1109.56 501.742 1115.13C498.33 1119.07 496.158 1123.11 494.26 1127.15C489.794 1136.63 486.799 1146.14 485.274 1155.58C484.506 1160.36 484.111 1165.11 484.089 1169.82C484.089 1172.18 484.166 1174.54 484.353 1176.88C484.44 1178.01 484.55 1179.13 484.682 1180.25C484.781 1181.11 485.943 1183.06 485.186 1183.89C485.154 1183.92 485.099 1184.34 485.077 1184.41C483.442 1184.55 481.774 1184.56 480.14 1184.62C479.163 1176.67 478.911 1168.6 479.8 1160.48H479.789Z" fill="#346456"/>
<path id="Vector_34" d="M474.172 1151.55C470.474 1139.97 464.769 1128.84 456.146 1118.56C448.214 1109.11 436.892 1100.05 417.933 1096.8C427.906 1099.32 436.266 1103.15 442.267 1107.95C446.502 1111.33 449.563 1115.17 452.35 1119.05C458.9 1128.2 464.034 1137.76 467.71 1147.64C469.575 1152.63 471.056 1157.7 472.175 1162.84C472.734 1165.4 473.195 1167.99 473.568 1170.59C473.744 1171.84 473.897 1173.09 474.04 1174.34C474.139 1175.31 473.469 1177.73 474.391 1178.45C474.424 1178.47 474.577 1178.91 474.621 1178.99C476.245 1178.71 477.869 1178.28 479.471 1177.92C478.56 1169 476.925 1160.15 474.182 1151.55H474.172Z" fill="#346456"/>
<path id="Vector_35" d="M458.757 1151.79C455.06 1140.21 449.355 1129.08 440.731 1118.8C432.799 1109.35 421.477 1100.29 402.519 1097.04C412.492 1099.57 420.852 1103.39 426.853 1108.19C431.088 1111.57 434.149 1115.41 436.935 1119.29C443.485 1128.44 448.62 1138 452.295 1147.88C454.16 1152.87 455.641 1157.94 456.76 1163.08C457.32 1165.64 457.781 1168.23 458.154 1170.83C458.329 1172.08 458.483 1173.34 458.625 1174.59C458.724 1175.55 458.055 1177.98 458.976 1178.69C459.009 1178.71 459.163 1179.15 459.207 1179.23C460.831 1178.95 462.454 1178.52 464.056 1178.16C463.146 1169.24 461.511 1160.39 458.768 1151.79H458.757Z" fill="#346456"/>
</g>
<g id="leaves2">
<g id="Group">
<path id="Vector_36" d="M199.711 1094.49C198.01 1091.21 194.061 1087.61 193.325 1086.85C192.283 1085.76 191.23 1081.65 190.605 1079.66C189.738 1076.92 188.827 1065.75 188.663 1061.5C188.454 1056.26 188.531 1053.51 187.039 1051.23C184.581 1047.5 182.925 1046.41 175.245 1045.02C169.738 1044.03 168.114 1045.02 166.534 1039.9C164.362 1032.88 162.288 1025.3 159.71 1021.33C157.395 1017.76 154.553 1016.3 144.241 1014.66C141.52 1014.22 125.82 1009.93 120.883 1008.29C109.034 1004.39 102.814 996.478 101.607 997.52C99.4454 999.385 114.388 1019.07 117.844 1023.62C126.347 1034.82 129.1 1036.3 131.152 1037.07C133.379 1037.9 136.692 1038.62 138.634 1041.63C140.434 1044.43 139.029 1046.1 140.719 1048.24C142.99 1051.11 146.479 1049.31 152.425 1052.02C154.433 1052.95 157.439 1054.31 159.315 1057.21C160.873 1059.63 160.763 1063.5 160.478 1071.15C160.039 1082.75 159.984 1083.79 161.037 1085.1C163.747 1088.51 168.443 1086.84 174.049 1091.27C175.322 1092.28 177.362 1095.56 178.613 1098.99C180.72 1104.74 178.394 1108.72 180.391 1112.9C181.97 1116.22 183.781 1116.08 189.135 1118.63C192.92 1120.43 197.165 1123.02 199.052 1121.36C199.349 1121.11 199.48 1120.81 199.557 1120.65C204.703 1109.1 202.399 1100.47 202.399 1100.47C201.729 1097.98 201.949 1098.82 199.733 1094.5L199.711 1094.49Z" fill="#147F5E"/>
<path id="Vector_37" d="M203.002 1137.8C196.035 1113.63 187.149 1090.11 175.508 1067.97C164.811 1047.61 150.757 1027.61 130.516 1018.55C141.388 1024.99 150.966 1033.9 158.426 1044.48C163.681 1051.94 167.861 1060.18 171.778 1068.49C180.983 1088.05 188.86 1108.28 195.344 1128.98C198.614 1139.42 201.543 1150 204.088 1160.65C205.361 1165.98 206.557 1171.32 207.643 1176.7C208.169 1179.28 208.674 1181.86 209.157 1184.45C209.53 1186.44 209.508 1191.31 210.649 1192.88C210.693 1192.94 210.967 1193.86 211.033 1194C212.613 1193.66 214.16 1192.98 215.685 1192.44C212.295 1174.07 208.191 1155.75 203.013 1137.79L203.002 1137.8Z" fill="#507264"/>
</g>
<g id="Group_2">
<path id="Vector_38" d="M221.225 1095.71C222.926 1092.43 226.875 1088.83 227.61 1088.06C228.653 1086.98 229.706 1082.86 230.331 1080.88C231.198 1078.14 232.108 1066.97 232.273 1062.72C232.482 1057.48 232.405 1054.72 233.897 1052.45C236.354 1048.72 238.011 1047.62 245.691 1046.24C251.198 1045.24 252.822 1046.24 254.402 1041.12C256.574 1034.1 258.648 1026.52 261.226 1022.54C263.541 1018.98 266.382 1017.52 276.695 1015.87C279.416 1015.44 295.116 1011.15 300.053 1009.51C311.902 1005.61 318.122 997.695 319.329 998.738C321.49 1000.6 306.548 1020.28 303.092 1024.84C294.589 1036.04 291.835 1037.52 289.784 1038.29C287.557 1039.12 284.243 1039.84 282.301 1042.85C280.502 1045.65 281.906 1047.32 280.217 1049.46C277.946 1052.33 274.457 1050.53 268.511 1053.24C266.503 1054.16 263.497 1055.52 261.621 1058.43C260.063 1060.85 260.173 1064.72 260.458 1072.36C260.897 1083.97 260.952 1085 259.898 1086.32C257.189 1089.73 252.493 1088.05 246.887 1092.49C245.614 1093.5 243.573 1096.78 242.323 1100.21C240.216 1105.96 242.542 1109.94 240.545 1114.12C238.965 1117.43 237.155 1117.3 231.801 1119.85C228.016 1121.65 223.77 1124.24 221.883 1122.58C221.587 1122.33 221.456 1122.03 221.379 1121.87C216.233 1110.31 218.537 1101.69 218.537 1101.69C219.206 1099.2 218.987 1100.03 221.203 1095.72L221.225 1095.71Z" fill="#147F5E"/>
<path id="Vector_39" d="M217.934 1139.01C224.9 1114.84 233.787 1091.32 245.427 1069.18C256.124 1048.83 270.178 1028.83 290.42 1019.77C279.548 1026.21 269.97 1035.12 262.51 1045.69C257.254 1053.15 253.074 1061.39 249.158 1069.71C239.953 1089.27 232.076 1109.5 225.592 1130.19C222.322 1140.64 219.393 1151.21 216.848 1161.87C215.575 1167.2 214.379 1172.54 213.293 1177.92C212.766 1180.5 212.262 1183.07 211.779 1185.66C211.406 1187.66 211.428 1192.53 210.287 1194.1C210.243 1194.16 209.969 1195.08 209.903 1195.22C208.323 1194.88 206.776 1194.2 205.251 1193.66C208.641 1175.29 212.744 1156.96 217.923 1139L217.934 1139.01Z" fill="#507264"/>
</g>
<g id="Group_3">
<path id="Vector_40" d="M210.484 1143.13C210.484 1135.84 221.324 1139.42 225.668 1130.98C230.66 1121.27 232.953 1122.48 234.774 1108.51C235.29 1104.58 234.742 1100.29 234.193 1096.39C233.425 1090.91 230.221 1086.73 228.872 1081.48C228.499 1080.02 228.367 1078.42 229.004 1077.05C230.616 1073.59 235.06 1075.88 237.813 1074.5C243.924 1071.45 247.589 1064.44 246.799 1057.71C246.141 1052.04 242.531 1046.87 237.605 1043.98C236.991 1043.62 236.343 1043.28 235.893 1042.74C233.579 1039.96 245.197 1034.51 246.919 1033.21C252.306 1029.13 253.787 1025.76 254.819 1022.89C257.002 1016.82 256.794 1011.55 256.64 1007.7C256.388 1001.35 255.148 1000.54 255.422 994.942C255.499 993.417 255.828 988.787 257.847 983.4C261.05 974.897 266.229 970.509 265.746 970.037C265.099 969.401 257.825 979.077 245.098 986.439C233.535 993.12 228.696 994.942 223.836 998.584C221.368 1000.44 216.628 1002.25 214.73 1009.51C214.182 1011.62 212.909 1019.23 213.512 1022.87C214.379 1028.07 215.136 1035.13 214.116 1037.45C213.183 1039.59 211.779 1039.28 204.999 1041.71C201.433 1042.98 197.078 1044 194.631 1047.11C192.305 1050.07 192.349 1054.31 193.369 1057.94C194.488 1061.91 196.255 1065.79 197.703 1069.66C199.217 1073.67 202.431 1075.57 201.367 1080.54C200.632 1083.94 198.262 1086.73 195.805 1089.18C192.415 1092.56 188.147 1096.23 187.379 1101.24C186.315 1108.17 188.213 1115.04 191.318 1121.21C192.887 1124.32 194.741 1127.29 196.705 1130.16C198.493 1132.78 199.634 1135.95 202.761 1137.27C203.397 1137.53 204.088 1137.73 204.637 1138.15C205.591 1138.88 205.394 1140.2 205.46 1141.27C205.481 1141.61 205.525 1141.96 205.69 1142.25C206.118 1143.03 210.462 1144.51 210.462 1143.15L210.484 1143.13Z" fill="#5DB6A0"/>
<path id="Vector_41" d="M208.115 1104.29C210.342 1080.71 214.577 1057.39 221.774 1034.84C228.389 1014.13 238.373 993.12 256.508 981.118C247.073 989.017 239.36 998.968 234.061 1010.08C230.32 1017.93 227.797 1026.29 225.548 1034.67C220.249 1054.39 216.376 1074.49 213.962 1094.77C212.744 1105 211.9 1115.3 211.417 1125.6C211.175 1130.75 211.033 1135.9 210.989 1141.07C210.967 1143.55 210.967 1146.01 210.989 1148.49C211 1150.4 211.954 1154.9 211.132 1156.56C211.099 1156.62 211 1157.51 210.978 1157.67C209.365 1157.63 207.72 1157.29 206.107 1157.06C205.92 1139.48 206.458 1121.81 208.115 1104.29V1104.29Z" fill="#3C837C"/>
</g>
</g>
<g id="leaves4">
<g id="Group_4">
<path id="Vector_42" d="M2049.66 1068.37C2047.6 1064.37 2042.78 1059.99 2041.9 1059.06C2040.63 1057.74 2039.35 1052.73 2038.59 1050.32C2037.53 1046.98 2036.43 1033.38 2036.22 1028.22C2035.96 1021.84 2036.07 1018.49 2034.24 1015.73C2031.24 1011.18 2029.23 1009.85 2019.88 1008.17C2013.17 1006.95 2011.19 1008.17 2009.27 1001.93C2006.62 993.381 2004.09 984.161 2000.96 979.323C1998.14 974.974 1994.68 973.206 1982.14 971.199C1978.83 970.667 1959.72 965.439 1953.72 963.465C1939.29 958.703 1931.73 949.082 1930.26 950.351C1927.63 952.629 1945.82 976.579 1950.02 982.111C1960.37 995.746 1963.72 997.546 1966.22 998.479C1968.93 999.499 1972.96 1000.37 1975.32 1004.03C1977.51 1007.44 1975.8 1009.47 1977.85 1012.07C1980.62 1015.57 1984.86 1013.38 1992.1 1016.68C1994.55 1017.8 1998.19 1019.46 2000.49 1023C2002.39 1025.94 2002.26 1030.65 2001.91 1039.96C2001.38 1054.08 2001.31 1055.34 2002.6 1056.94C2005.9 1061.1 2011.6 1059.06 2018.43 1064.45C2019.98 1065.68 2022.46 1069.67 2023.99 1073.84C2026.55 1080.84 2023.73 1085.69 2026.15 1090.78C2028.07 1094.8 2030.28 1094.66 2036.79 1097.75C2041.4 1099.94 2046.56 1103.09 2048.85 1101.07C2049.21 1100.76 2049.37 1100.41 2049.46 1100.2C2055.73 1086.14 2052.92 1075.64 2052.92 1075.64C2052.1 1072.61 2052.37 1073.63 2049.66 1068.38V1068.37Z" fill="#147F5E"/>
<path id="Vector_43" d="M2053.66 1121.07C2045.19 1091.66 2034.37 1063.03 2020.2 1036.09C2007.17 1011.32 1990.07 986.971 1965.43 975.95C1978.66 983.781 1990.33 994.629 1999.4 1007.5C2005.8 1016.59 2010.87 1026.62 2015.65 1036.74C2026.85 1060.55 2036.43 1085.17 2044.32 1110.34C2048.31 1123.07 2051.86 1135.92 2054.98 1148.89C2056.53 1155.38 2057.98 1161.89 2059.3 1168.43C2059.94 1171.56 2060.56 1174.71 2061.15 1177.86C2061.6 1180.29 2061.57 1186.22 2062.97 1188.13C2063.03 1188.2 2063.36 1189.31 2063.44 1189.5C2065.36 1189.07 2067.24 1188.26 2069.11 1187.6C2064.99 1165.23 2059.99 1142.93 2053.69 1121.07H2053.66Z" fill="#507264"/>
</g>
<g id="Group_5">
<path id="Vector_44" d="M2075.84 1069.84C2077.9 1065.85 2082.71 1061.47 2083.6 1060.54C2084.87 1059.21 2086.15 1054.2 2086.91 1051.79C2087.96 1048.45 2089.07 1034.86 2089.28 1029.7C2089.54 1023.32 2089.43 1019.97 2091.26 1017.2C2094.25 1012.66 2096.27 1011.32 2105.62 1009.64C2112.32 1008.43 2114.31 1009.64 2116.23 1003.4C2118.88 994.856 2121.4 985.637 2124.54 980.799C2127.36 976.449 2130.82 974.681 2143.36 972.674C2146.67 972.143 2165.78 966.915 2171.78 964.94C2186.2 960.179 2193.76 950.557 2195.24 951.826C2197.86 954.104 2179.67 978.055 2175.48 983.586C2165.13 997.221 2161.78 999.022 2159.28 999.955C2156.57 1000.97 2152.53 1001.84 2150.18 1005.51C2147.99 1008.91 2149.69 1010.94 2147.64 1013.55C2144.88 1017.05 2140.64 1014.86 2133.4 1018.16C2130.95 1019.27 2127.3 1020.93 2125.01 1024.48C2123.11 1027.42 2123.24 1032.13 2123.58 1041.43C2124.12 1055.56 2124.19 1056.81 2122.9 1058.42C2119.59 1062.57 2113.9 1060.54 2107.06 1065.93C2105.51 1067.15 2103.04 1071.14 2101.51 1075.32C2098.95 1082.32 2101.77 1087.16 2099.35 1092.25C2097.43 1096.28 2095.22 1096.14 2088.71 1099.23C2084.1 1101.42 2078.94 1104.56 2076.65 1102.55C2076.29 1102.23 2076.13 1101.88 2076.04 1101.68C2069.77 1087.62 2072.58 1077.12 2072.58 1077.12C2073.39 1074.08 2073.12 1075.1 2075.84 1069.85V1069.84Z" fill="#147F5E"/>
<path id="Vector_45" d="M2071.83 1122.55C2080.3 1093.13 2091.13 1064.51 2105.3 1037.56C2118.32 1012.8 2135.43 988.446 2160.06 977.425C2146.84 985.257 2135.17 996.104 2126.1 1008.98C2119.7 1018.07 2114.62 1028.09 2109.85 1038.21C2098.65 1062.02 2089.07 1086.64 2081.17 1111.82C2077.19 1124.54 2073.63 1137.4 2070.52 1150.37C2068.97 1156.86 2067.52 1163.36 2066.19 1169.91C2065.55 1173.04 2064.93 1176.19 2064.35 1179.33C2063.89 1181.76 2063.93 1187.69 2062.53 1189.6C2062.47 1189.68 2062.14 1190.79 2062.06 1190.97C2060.14 1190.55 2058.25 1189.73 2056.39 1189.07C2060.51 1166.71 2065.51 1144.4 2071.81 1122.55H2071.83Z" fill="#507264"/>
</g>
<g id="Group_6">
<path id="Vector_46" d="M2062.76 1129.73C2062.76 1120.86 2075.95 1125.22 2081.25 1114.94C2087.32 1103.13 2090.12 1104.6 2092.33 1087.59C2092.96 1082.79 2092.29 1077.58 2091.63 1072.84C2090.7 1066.15 2086.8 1061.07 2085.15 1054.69C2084.7 1052.91 2084.53 1050.96 2085.32 1049.3C2087.28 1045.1 2092.69 1047.87 2096.03 1046.2C2103.46 1042.47 2107.93 1033.96 2106.98 1025.75C2106.17 1018.85 2101.78 1012.56 2095.79 1009.04C2095.05 1008.61 2094.26 1008.2 2093.71 1007.53C2090.89 1004.13 2105.04 997.503 2107.13 995.92C2113.69 990.952 2115.48 986.851 2116.74 983.348C2119.4 975.961 2119.14 969.561 2118.95 964.865C2118.65 957.141 2117.13 956.144 2117.48 949.342C2117.57 947.488 2117.97 941.847 2120.44 935.296C2124.33 924.948 2130.63 919.611 2130.05 919.036C2129.27 918.266 2120.41 930.046 2104.92 938.994C2090.84 947.13 2084.96 949.342 2079.05 953.779C2076.04 956.035 2070.27 958.248 2067.96 967.088C2067.29 969.648 2065.75 978.911 2066.49 983.348C2067.54 989.682 2068.46 998.273 2067.22 1001.09C2066.08 1003.7 2064.37 1003.32 2056.14 1006.27C2051.8 1007.82 2046.49 1009.06 2043.52 1012.84C2040.69 1016.45 2040.75 1021.59 2041.99 1026.02C2043.35 1030.85 2045.5 1035.58 2047.28 1040.27C2049.12 1045.15 2053.04 1047.46 2051.73 1053.52C2050.84 1057.65 2047.96 1061.06 2044.97 1064.04C2040.84 1068.15 2035.65 1072.61 2034.71 1078.71C2033.41 1087.15 2035.72 1095.51 2039.51 1103.01C2041.42 1106.8 2043.68 1110.41 2046.07 1113.91C2048.24 1117.1 2049.63 1120.96 2053.44 1122.56C2054.22 1122.88 2055.05 1123.11 2055.73 1123.63C2056.89 1124.53 2056.65 1126.14 2056.72 1127.44C2056.74 1127.85 2056.8 1128.27 2057.01 1128.63C2057.53 1129.58 2062.82 1131.38 2062.82 1129.73H2062.76Z" fill="#5DB6A0"/>
<path id="Vector_47" d="M2059.89 1082.46C2062.59 1053.76 2067.75 1025.37 2076.52 997.937C2084.58 972.718 2096.72 947.151 2118.8 932.551C2107.31 942.162 2097.93 954.278 2091.49 967.804C2086.94 977.349 2083.86 987.524 2081.12 997.731C2074.66 1021.74 2069.96 1046.21 2067.02 1070.88C2065.53 1083.35 2064.5 1095.86 2063.93 1108.4C2063.63 1114.67 2063.46 1120.95 2063.4 1127.22C2063.37 1130.24 2063.37 1133.24 2063.4 1136.26C2063.43 1138.58 2064.59 1144.06 2063.58 1146.07C2063.53 1146.15 2063.43 1147.24 2063.38 1147.42C2061.42 1147.38 2059.41 1146.96 2057.46 1146.68C2057.23 1125.28 2057.89 1103.78 2059.9 1082.46H2059.89Z" fill="#3C837C"/>
</g>
</g>
<g id="leaves1">
<g id="Group_7">
<path id="Vector_48" d="M18.7715 1073.72C16.2262 1068.78 10.2798 1063.38 9.17176 1062.23C7.61386 1060.58 6.02304 1054.41 5.07952 1051.43C3.77395 1047.31 2.41354 1030.53 2.1612 1024.15C1.84304 1016.27 1.96372 1012.14 -0.285368 1008.71C-3.98264 1003.1 -6.47309 1001.46 -18.0147 999.377C-26.2979 997.885 -28.7335 999.366 -31.1143 991.675C-34.3727 981.121 -37.4995 969.733 -41.3723 963.764C-44.8501 958.4 -49.1179 956.216 -64.6092 953.737C-68.6904 953.079 -92.3003 946.628 -99.7059 944.181C-117.512 938.3 -126.859 926.419 -128.681 927.988C-131.928 930.796 -109.459 960.374 -104.27 967.209C-91.4885 984.039 -87.3524 986.266 -84.2804 987.418C-80.9342 988.669 -75.9533 989.744 -73.046 994.275C-70.3471 998.477 -72.4426 1000.98 -69.9082 1004.2C-66.4962 1008.53 -61.252 1005.82 -52.3215 1009.9C-49.3044 1011.28 -44.7953 1013.33 -41.9647 1017.71C-39.6169 1021.33 -39.7815 1027.16 -40.2094 1038.65C-40.8567 1056.09 -40.9554 1057.64 -39.3646 1059.63C-35.2833 1064.75 -28.2398 1062.24 -19.803 1068.9C-17.8831 1070.41 -14.8331 1075.35 -12.9461 1080.5C-9.78638 1089.13 -13.2752 1095.13 -10.2801 1101.4C-7.91031 1106.37 -5.1785 1106.18 2.85238 1110.01C8.5464 1112.72 14.9097 1116.6 17.7512 1114.11C18.19 1113.73 18.3875 1113.29 18.5082 1113.04C26.2429 1095.68 22.776 1082.71 22.776 1082.71C21.7776 1078.97 22.1067 1080.21 18.7605 1073.74L18.7715 1073.72Z" fill="#147F5E"/>
<path id="Vector_49" d="M23.7195 1138.8C13.253 1102.47 -0.109829 1067.12 -17.6088 1033.85C-33.6925 1003.27 -54.8119 973.2 -85.2349 959.584C-68.8989 969.261 -54.4938 982.646 -43.2922 998.554C-35.393 1009.78 -29.1175 1022.15 -23.237 1034.66C-9.40238 1064.05 2.43547 1094.46 12.1778 1125.57C17.1039 1141.28 21.4814 1157.15 25.3323 1173.17C27.2522 1181.18 29.0405 1189.22 30.6862 1197.29C31.4761 1201.16 32.2331 1205.04 32.9572 1208.93C33.5167 1211.92 33.4838 1219.25 35.2063 1221.61C35.2721 1221.7 35.689 1223.07 35.7768 1223.3C38.1465 1222.78 40.4724 1221.77 42.7764 1220.95C37.6858 1193.32 31.509 1165.79 23.7305 1138.8H23.7195Z" fill="#507264"/>
</g>
<g id="Group_8">
<path id="Vector_50" d="M51.1036 1075.55C53.6489 1070.61 59.5952 1065.21 60.7033 1064.06C62.2612 1062.42 63.8521 1056.24 64.7956 1053.27C66.1011 1049.14 67.4616 1032.37 67.7139 1025.98C68.0321 1018.1 67.9114 1013.97 70.1605 1010.55C73.8577 1004.93 76.3482 1003.29 87.8898 1001.21C96.173 999.717 98.6086 1001.2 100.989 993.507C104.248 982.953 107.375 971.565 111.247 965.596C114.725 960.232 118.993 958.048 134.484 955.569C138.566 954.911 162.175 948.46 169.581 946.013C187.387 940.132 196.735 928.251 198.556 929.82C201.803 932.628 179.334 962.206 174.145 969.041C161.364 985.871 157.227 988.098 154.156 989.25C150.809 990.501 145.828 991.576 142.921 996.107C140.222 1000.31 142.318 1002.81 139.783 1006.04C136.371 1010.36 131.127 1007.65 122.197 1011.73C119.18 1013.11 114.67 1015.16 111.84 1019.54C109.492 1023.16 109.657 1028.99 110.084 1040.49C110.732 1057.92 110.83 1059.48 109.24 1061.46C105.158 1066.59 98.1149 1064.07 89.6781 1070.73C87.7582 1072.25 84.7082 1077.18 82.8212 1082.33C79.6615 1090.96 83.1503 1096.97 80.1552 1103.23C77.7854 1108.2 75.0536 1108.01 67.0227 1111.84C61.3287 1114.55 54.9654 1118.44 52.1239 1115.95C51.6851 1115.56 51.4876 1115.12 51.3669 1114.87C43.6322 1097.51 47.0991 1084.55 47.0991 1084.55C48.0975 1080.8 47.7684 1082.04 51.1146 1075.57L51.1036 1075.55Z" fill="#147F5E"/>
<path id="Vector_51" d="M46.1555 1140.62C56.622 1104.29 69.9848 1068.94 87.4838 1035.67C103.567 1005.09 124.687 975.021 155.11 961.406C138.774 971.082 124.369 984.467 113.167 1000.38C105.268 1011.6 98.9925 1023.97 93.112 1036.48C79.2774 1065.87 67.4395 1096.28 57.6972 1127.39C52.7711 1143.1 48.3936 1158.97 44.5427 1174.99C42.6228 1183 40.8345 1191.04 39.1888 1199.11C38.3989 1202.98 37.6419 1206.86 36.9178 1210.75C36.3583 1213.74 36.3912 1221.07 34.6687 1223.43C34.6029 1223.52 34.186 1224.89 34.0982 1225.12C31.7284 1224.6 29.4026 1223.59 27.0986 1222.77C32.1892 1195.15 38.366 1167.61 46.1445 1140.62H46.1555Z" fill="#507264"/>
</g>
<g id="Group_9">
<path id="Vector_52" d="M34.954 1146.82C34.954 1135.87 51.2462 1141.24 57.774 1128.56C65.2783 1113.98 68.7232 1115.78 71.466 1094.78C72.234 1088.86 71.4112 1082.42 70.5883 1076.57C69.4364 1068.32 64.62 1062.04 62.5904 1054.16C62.0199 1051.96 61.8224 1049.55 62.7878 1047.5C65.2125 1042.31 71.8939 1045.73 76.03 1043.67C85.2129 1039.08 90.7313 1028.55 89.5355 1018.42C88.5371 1009.91 83.1174 1002.14 75.7228 997.797C74.8012 997.259 73.8358 996.744 73.1446 995.921C69.6668 991.73 87.1328 983.545 89.711 981.593C97.8077 975.449 100.024 970.391 101.582 966.079C104.862 956.962 104.544 949.052 104.325 943.259C103.952 933.714 102.076 932.497 102.503 924.093C102.613 921.811 103.107 914.844 106.157 906.747C110.962 893.977 118.752 887.372 118.028 886.67C117.062 885.727 106.113 900.263 86.9902 911.322C69.6119 921.372 62.338 924.104 55.0422 929.578C51.334 932.354 44.2027 935.086 41.3502 946.013C40.5274 949.184 38.6074 960.616 39.529 966.09C40.8346 973.913 41.9646 984.511 40.4396 988C39.0353 991.214 36.9179 990.742 26.7476 994.385C21.3937 996.305 14.8439 997.83 11.1686 1002.5C7.66881 1006.96 7.73463 1013.31 9.27059 1018.77C10.9492 1024.74 13.6042 1030.58 15.7875 1036.38C18.0585 1042.42 22.8968 1045.27 21.295 1052.73C20.1979 1057.84 16.6322 1062.03 12.935 1065.73C7.84435 1070.81 1.4372 1076.32 0.27426 1083.85C-1.32753 1094.28 1.52497 1104.59 6.18771 1113.86C8.5465 1118.55 11.3332 1122.99 14.2844 1127.32C16.9614 1131.26 18.6838 1136.02 23.3905 1138C24.3559 1138.4 25.3872 1138.68 26.2101 1139.32C27.6363 1140.43 27.3401 1142.42 27.4388 1144.02C27.4717 1144.52 27.5376 1145.05 27.7789 1145.49C28.4262 1146.66 34.954 1148.88 34.954 1146.84V1146.82Z" fill="#5DB6A0"/>
<path id="Vector_53" d="M31.3994 1088.43C34.7347 1052.99 41.1089 1017.93 51.9264 984.05C61.8773 952.914 76.8748 921.339 104.138 903.302C89.9524 915.173 78.3669 930.138 70.4019 946.836C64.7846 958.619 60.9886 971.181 57.5985 983.787C49.6335 1013.43 43.8188 1043.65 40.1873 1074.12C38.3551 1089.52 37.0825 1104.97 36.3694 1120.45C36.0183 1128.2 35.7989 1135.95 35.7221 1143.69C35.6892 1147.41 35.6782 1151.13 35.7221 1154.85C35.744 1157.72 37.1812 1164.48 35.9415 1166.97C35.8976 1167.07 35.755 1168.41 35.7001 1168.64C33.2755 1168.58 30.796 1168.07 28.3824 1167.73C28.1081 1141.3 28.92 1114.75 31.3994 1088.42V1088.43Z" fill="#3C837C"/>
</g>
</g>
<g id="circleflower2">
<path id="Vector_54" opacity="0.8" d="M1676.47 948.35C1706.76 948.35 1731.32 928.594 1731.32 904.224C1731.32 879.854 1706.76 860.098 1676.47 860.098C1646.17 860.098 1621.61 879.854 1621.61 904.224C1621.61 928.594 1646.17 948.35 1676.47 948.35Z" fill="#F6DCC0"/>
<path id="Vector_55" opacity="0.8" d="M1678.67 920.44C1687.07 920.44 1693.88 913.632 1693.88 905.234C1693.88 896.836 1687.07 890.028 1678.67 890.028C1670.27 890.028 1663.47 896.836 1663.47 905.234C1663.47 913.632 1670.27 920.44 1678.67 920.44Z" fill="#F95D15"/>
</g>
<g id="circleflower">
<path id="Vector_56" opacity="0.8" d="M2064.82 871.417C2094.78 871.417 2119.06 851.885 2119.06 827.79C2119.06 803.696 2094.78 784.164 2064.82 784.164C2034.87 784.164 2010.59 803.696 2010.59 827.79C2010.59 851.885 2034.87 871.417 2064.82 871.417Z" fill="#F6DCC0"/>
<path id="Vector_57" opacity="0.8" d="M2067 843.822C2075.31 843.822 2082.04 837.091 2082.04 828.788C2082.04 820.485 2075.31 813.754 2067 813.754C2058.7 813.754 2051.97 820.485 2051.97 828.788C2051.97 837.091 2058.7 843.822 2067 843.822Z" fill="#F95D15"/>
</g>
<g id="threebushes">
<g id="Group_10">
<path id="Vector_58" d="M698.915 1168.06C701.494 1158.85 705.849 1149.86 712.783 1141.35C719.157 1133.54 728.505 1125.81 744.797 1122.12C736.272 1124.69 729.218 1128.18 724.259 1132.27C720.759 1135.16 718.312 1138.32 716.107 1141.51C710.918 1149 706.979 1156.75 704.313 1164.64C702.964 1168.62 701.943 1172.64 701.263 1176.69C700.923 1178.72 700.66 1180.75 700.473 1182.79C700.386 1183.77 700.32 1184.76 700.276 1185.73C700.243 1186.49 700.956 1188.33 700.188 1188.94C700.155 1188.96 700.045 1189.31 700.023 1189.36C698.597 1189.25 697.16 1189.02 695.756 1188.84C696.063 1181.86 697.006 1174.89 698.915 1168.06V1168.06Z" fill="#346456"/>
<path id="Vector_59" d="M690.939 1168.41C689.349 1158.99 685.125 1150.09 679.968 1140.4C676.337 1133.56 667.439 1117.53 659.079 1112.82C661.603 1116.16 668.701 1124.99 671.158 1129.55C673.309 1133.54 674.812 1136.78 676.644 1140.2C678.037 1142.8 684.115 1156.32 685.937 1164.44C686.858 1168.54 687.44 1172.66 687.703 1176.76C687.835 1178.81 687.878 1180.86 687.846 1182.9C687.824 1183.89 687.791 1184.87 687.736 1185.84C687.692 1186.6 686.781 1188.35 687.483 1189.04C687.505 1189.06 687.582 1189.42 687.604 1189.48C689.03 1189.53 690.49 1189.45 691.905 1189.41C692.344 1182.44 692.135 1175.41 690.95 1168.41H690.939Z" fill="#346456"/>
<path id="Vector_60" d="M691.74 1168.27C692.772 1158.75 695.58 1149.18 701.022 1139.64C706.025 1130.88 713.968 1121.71 729.437 1115.38C721.461 1119.32 715.076 1123.93 710.852 1128.78C707.879 1132.2 705.981 1135.73 704.335 1139.24C700.451 1147.49 697.84 1155.77 696.513 1164C695.843 1168.15 695.503 1172.29 695.481 1176.4C695.481 1178.45 695.547 1180.5 695.712 1182.54C695.789 1183.52 695.887 1184.49 695.997 1185.47C696.085 1186.23 697.094 1187.92 696.436 1188.64C696.414 1188.67 696.359 1189.02 696.337 1189.09C694.922 1189.22 693.463 1189.22 692.036 1189.28C691.192 1182.34 690.972 1175.32 691.74 1168.26V1168.27Z" fill="#346456"/>
<path id="Vector_61" d="M686.858 1160.51C683.644 1150.43 678.674 1140.74 671.158 1131.79C664.247 1123.56 654.395 1115.67 637.883 1112.84C646.561 1115.03 653.846 1118.37 659.068 1122.55C662.755 1125.49 665.421 1128.84 667.845 1132.22C673.55 1140.18 678.015 1148.51 681.219 1157.11C682.843 1161.45 684.137 1165.86 685.103 1170.34C685.585 1172.58 685.991 1174.83 686.31 1177.09C686.463 1178.17 686.595 1179.26 686.715 1180.36C686.803 1181.2 686.211 1183.31 687.023 1183.93C687.056 1183.96 687.187 1184.34 687.22 1184.39C688.635 1184.16 690.051 1183.79 691.444 1183.47C690.654 1175.71 689.228 1168 686.836 1160.51H686.858Z" fill="#346456"/>
<path id="Vector_62" d="M712.333 1167.87C714.911 1158.67 719.267 1149.67 726.201 1141.17C732.575 1133.36 741.922 1125.62 758.214 1121.94C749.69 1124.5 742.635 1127.99 737.676 1132.08C734.177 1134.97 731.73 1138.13 729.525 1141.32C724.336 1148.82 720.397 1156.56 717.731 1164.45C716.381 1168.43 715.361 1172.46 714.681 1176.51C714.341 1178.54 714.078 1180.57 713.891 1182.61C713.803 1183.58 713.737 1184.57 713.694 1185.55C713.661 1186.3 714.374 1188.15 713.606 1188.75C713.573 1188.77 713.463 1189.12 713.441 1189.18C712.015 1189.07 710.578 1188.84 709.173 1188.65C709.481 1181.67 710.424 1174.71 712.333 1167.87V1167.87Z" fill="#346456"/>
<path id="Vector_63" d="M704.357 1168.22C702.766 1158.8 698.542 1149.9 693.386 1140.21C689.755 1133.38 680.857 1117.34 672.497 1112.63C675.02 1115.98 682.119 1124.8 684.576 1129.36C686.727 1133.36 688.23 1136.59 690.062 1140.02C691.455 1142.62 697.533 1156.13 699.354 1164.25C700.276 1168.35 700.857 1172.47 701.121 1176.57C701.252 1178.62 701.296 1180.68 701.263 1182.72C701.241 1183.7 701.208 1184.68 701.154 1185.66C701.11 1186.41 700.199 1188.17 700.901 1188.85C700.923 1188.87 701 1189.23 701.022 1189.3C702.448 1189.34 703.907 1189.27 705.323 1189.22C705.761 1182.25 705.553 1175.22 704.368 1168.22H704.357Z" fill="#346456"/>
<path id="Vector_64" d="M705.169 1168.08C706.2 1158.57 709.009 1148.99 714.451 1139.46C719.453 1130.69 727.397 1121.52 742.866 1115.19C734.89 1119.14 728.505 1123.75 724.281 1128.6C721.308 1132.02 719.41 1135.54 717.764 1139.05C713.88 1147.3 711.269 1155.58 709.941 1163.81C709.272 1167.96 708.932 1172.11 708.91 1176.21C708.91 1178.26 708.976 1180.31 709.141 1182.35C709.217 1183.33 709.316 1184.31 709.426 1185.28C709.514 1186.04 710.523 1187.73 709.865 1188.45C709.843 1188.49 709.788 1188.84 709.766 1188.9C708.351 1189.04 706.891 1189.04 705.465 1189.09C704.62 1182.16 704.401 1175.13 705.169 1168.07V1168.08Z" fill="#346456"/>
<path id="Vector_65" d="M700.276 1160.3C697.061 1150.22 692.091 1140.53 684.576 1131.58C677.664 1123.35 667.812 1115.46 651.301 1112.63C659.979 1114.83 667.264 1118.16 672.486 1122.34C676.172 1125.28 678.838 1128.63 681.263 1132.01C686.968 1139.97 691.433 1148.3 694.637 1156.9C696.26 1161.25 697.555 1165.66 698.52 1170.13C699.003 1172.37 699.409 1174.62 699.727 1176.88C699.881 1177.97 700.013 1179.05 700.133 1180.15C700.221 1180.99 699.629 1183.1 700.44 1183.73C700.473 1183.75 700.605 1184.13 700.638 1184.19C702.053 1183.96 703.468 1183.58 704.862 1183.26C704.072 1175.5 702.646 1167.8 700.254 1160.3H700.276Z" fill="#346456"/>
<path id="Vector_66" d="M686.858 1160.51C683.644 1150.43 678.674 1140.74 671.158 1131.79C664.247 1123.56 654.395 1115.67 637.883 1112.84C646.561 1115.03 653.846 1118.37 659.068 1122.55C662.755 1125.49 665.421 1128.84 667.845 1132.22C673.55 1140.18 678.015 1148.51 681.219 1157.11C682.843 1161.45 684.137 1165.86 685.103 1170.34C685.585 1172.58 685.991 1174.83 686.31 1177.09C686.463 1178.17 686.595 1179.26 686.715 1180.36C686.803 1181.2 686.211 1183.31 687.023 1183.93C687.056 1183.96 687.187 1184.34 687.22 1184.39C688.635 1184.16 690.051 1183.79 691.444 1183.47C690.654 1175.71 689.228 1168 686.836 1160.51H686.858Z" fill="#346456"/>
</g>
<g id="Group_11">
<path id="Vector_67" d="M740.606 1165.88C743.184 1156.67 747.54 1147.67 754.473 1139.17C760.848 1131.36 770.195 1123.63 786.487 1119.94C777.962 1122.51 770.908 1126 765.949 1130.09C762.449 1132.97 760.003 1136.13 757.798 1139.33C752.608 1146.82 748.67 1154.56 746.004 1162.45C744.654 1166.43 743.634 1170.46 742.954 1174.51C742.613 1176.54 742.35 1178.57 742.164 1180.61C742.076 1181.59 742.01 1182.57 741.966 1183.55C741.933 1184.31 742.646 1186.15 741.878 1186.75C741.845 1186.78 741.736 1187.13 741.714 1187.18C740.288 1187.07 738.85 1186.84 737.446 1186.65C737.753 1179.68 738.697 1172.71 740.606 1165.88V1165.88Z" fill="#346456"/>
<path id="Vector_68" d="M732.63 1166.23C731.039 1156.8 726.815 1147.9 721.659 1138.22C718.027 1131.38 709.13 1115.34 700.77 1110.64C703.293 1113.98 710.391 1122.8 712.849 1127.37C714.999 1131.36 716.502 1134.6 718.334 1138.02C719.728 1140.62 725.806 1154.14 727.627 1162.25C728.548 1166.36 729.13 1170.47 729.393 1174.58C729.525 1176.63 729.569 1178.68 729.536 1180.72C729.514 1181.71 729.481 1182.68 729.426 1183.66C729.382 1184.42 728.472 1186.17 729.174 1186.85C729.196 1186.87 729.273 1187.24 729.295 1187.3C730.721 1187.35 732.18 1187.27 733.595 1187.22C734.034 1180.26 733.826 1173.23 732.641 1166.23H732.63Z" fill="#346456"/>
<path id="Vector_69" d="M733.442 1166.08C734.473 1156.57 737.281 1146.99 742.723 1137.46C747.726 1128.69 755.669 1119.52 771.138 1113.19C763.162 1117.14 756.777 1121.75 752.553 1126.6C749.58 1130.02 747.682 1133.54 746.036 1137.05C742.153 1145.3 739.542 1153.59 738.214 1161.82C737.545 1165.96 737.205 1170.11 737.183 1174.21C737.183 1176.26 737.249 1178.32 737.413 1180.36C737.49 1181.33 737.589 1182.31 737.698 1183.29C737.786 1184.04 738.795 1185.73 738.137 1186.46C738.115 1186.49 738.06 1186.84 738.038 1186.91C736.623 1187.04 735.164 1187.04 733.738 1187.09C732.893 1180.16 732.674 1173.14 733.442 1166.07V1166.08Z" fill="#346456"/>
<path id="Vector_70" d="M728.548 1158.33C725.334 1148.24 720.364 1138.56 712.849 1129.6C705.937 1121.38 696.085 1113.49 679.573 1110.66C688.251 1112.85 695.536 1116.19 700.759 1120.37C704.445 1123.31 707.111 1126.65 709.535 1130.03C715.24 1138 719.706 1146.32 722.909 1154.93C724.533 1159.27 725.828 1163.68 726.793 1168.16C727.276 1170.4 727.682 1172.64 728 1174.9C728.153 1175.99 728.285 1177.08 728.406 1178.17C728.494 1179.02 727.901 1181.13 728.713 1181.75C728.746 1181.77 728.878 1182.16 728.91 1182.21C730.326 1181.98 731.741 1181.61 733.134 1181.29C732.344 1173.52 730.918 1165.82 728.526 1158.33H728.548Z" fill="#346456"/>
<path id="Vector_71" d="M754.034 1165.68C756.613 1156.47 760.968 1147.48 767.902 1138.97C774.276 1131.16 783.624 1123.43 799.916 1119.74C791.391 1122.31 784.337 1125.8 779.378 1129.89C775.878 1132.78 773.431 1135.93 771.226 1139.13C766.037 1146.62 762.098 1154.37 759.432 1162.25C758.083 1166.24 757.063 1170.26 756.382 1174.31C756.042 1176.34 755.779 1178.37 755.592 1180.41C755.505 1181.39 755.439 1182.38 755.395 1183.35C755.362 1184.11 756.075 1185.95 755.307 1186.56C755.274 1186.58 755.164 1186.93 755.143 1186.98C753.716 1186.87 752.279 1186.64 750.875 1186.46C751.182 1179.48 752.125 1172.51 754.034 1165.68V1165.68Z" fill="#346456"/>
<path id="Vector_72" d="M746.058 1166.03C744.467 1156.6 740.244 1147.71 735.087 1138.02C731.456 1131.18 722.558 1115.14 714.198 1110.44C716.721 1113.78 723.82 1122.6 726.277 1127.17C728.428 1131.16 729.931 1134.4 731.763 1137.82C733.156 1140.42 739.234 1153.94 741.055 1162.06C741.977 1166.16 742.558 1170.27 742.822 1174.38C742.953 1176.43 742.997 1178.48 742.964 1180.52C742.942 1181.51 742.91 1182.49 742.855 1183.46C742.811 1184.22 741.9 1185.97 742.602 1186.65C742.624 1186.68 742.701 1187.04 742.723 1187.1C744.149 1187.15 745.608 1187.07 747.024 1187.03C747.463 1180.06 747.254 1173.03 746.069 1166.03H746.058Z" fill="#346456"/>
<path id="Vector_73" d="M746.859 1165.89C747.891 1156.37 750.699 1146.8 756.141 1137.26C761.144 1128.5 769.087 1119.32 784.556 1112.99C776.58 1116.94 770.195 1121.55 765.971 1126.4C762.998 1129.82 761.1 1133.35 759.454 1136.86C755.57 1145.11 752.959 1153.39 751.632 1161.62C750.962 1165.77 750.622 1169.91 750.6 1174.02C750.6 1176.07 750.666 1178.12 750.831 1180.16C750.908 1181.14 751.006 1182.11 751.116 1183.09C751.204 1183.85 752.213 1185.54 751.555 1186.26C751.533 1186.29 751.478 1186.64 751.456 1186.71C750.041 1186.84 748.582 1186.84 747.155 1186.9C746.311 1179.96 746.091 1172.94 746.859 1165.88V1165.89Z" fill="#346456"/>
<path id="Vector_74" d="M741.977 1158.11C738.763 1148.03 733.793 1138.34 726.277 1129.39C719.366 1121.16 709.514 1113.27 693.002 1110.44C701.68 1112.63 708.965 1115.97 714.187 1120.15C717.874 1123.09 720.54 1126.43 722.964 1129.81C728.669 1137.78 733.134 1146.11 736.338 1154.71C737.962 1159.05 739.256 1163.46 740.222 1167.94C740.704 1170.18 741.11 1172.42 741.429 1174.69C741.582 1175.77 741.714 1176.86 741.835 1177.95C741.922 1178.8 741.33 1180.91 742.142 1181.53C742.175 1181.55 742.306 1181.94 742.339 1181.99C743.754 1181.76 745.17 1181.39 746.563 1181.07C745.773 1173.3 744.347 1165.6 741.955 1158.11H741.977Z" fill="#346456"/>
<path id="Vector_75" d="M728.548 1158.33C725.334 1148.24 720.364 1138.56 712.849 1129.6C705.937 1121.38 696.085 1113.49 679.573 1110.66C688.251 1112.85 695.536 1116.19 700.759 1120.37C704.445 1123.31 707.111 1126.65 709.535 1130.03C715.24 1138 719.706 1146.32 722.909 1154.93C724.533 1159.27 725.828 1163.68 726.793 1168.16C727.276 1170.4 727.682 1172.64 728 1174.9C728.153 1175.99 728.285 1177.08 728.406 1178.17C728.494 1179.02 727.901 1181.13 728.713 1181.75C728.746 1181.77 728.878 1182.16 728.91 1182.21C730.326 1181.98 731.741 1181.61 733.134 1181.29C732.344 1173.52 730.918 1165.82 728.526 1158.33H728.548Z" fill="#346456"/>
</g>
<g id="Group_12">
<path id="Vector_76" d="M661.614 1166.97C664.192 1157.77 668.547 1148.77 675.481 1140.27C681.855 1132.46 691.203 1124.72 707.495 1121.04C698.97 1123.6 691.916 1127.09 686.957 1131.18C683.457 1134.07 681.011 1137.23 678.805 1140.42C673.616 1147.92 669.677 1155.66 667.011 1163.55C665.662 1167.53 664.642 1171.56 663.961 1175.61C663.621 1177.64 663.358 1179.67 663.171 1181.71C663.084 1182.68 663.018 1183.67 662.974 1184.65C662.941 1185.4 663.654 1187.25 662.886 1187.85C662.853 1187.87 662.744 1188.22 662.722 1188.28C661.295 1188.17 659.858 1187.94 658.454 1187.75C658.761 1180.77 659.705 1173.81 661.614 1166.97V1166.97Z" fill="#346456"/>
<path id="Vector_77" d="M653.638 1167.32C652.047 1157.9 647.823 1149 642.666 1139.31C639.035 1132.48 630.137 1116.44 621.777 1111.73C624.301 1115.08 631.399 1123.9 633.857 1128.46C636.007 1132.46 637.51 1135.69 639.342 1139.12C640.735 1141.72 646.813 1155.23 648.635 1163.35C649.556 1167.46 650.138 1171.57 650.401 1175.67C650.533 1177.72 650.577 1179.78 650.544 1181.82C650.522 1182.8 650.489 1183.78 650.434 1184.76C650.39 1185.51 649.479 1187.27 650.182 1187.95C650.204 1187.97 650.28 1188.33 650.302 1188.4C651.729 1188.44 653.188 1188.37 654.603 1188.32C655.042 1181.36 654.833 1174.32 653.649 1167.32H653.638Z" fill="#346456"/>
<path id="Vector_78" d="M654.449 1167.18C655.481 1157.67 658.289 1148.09 663.731 1138.56C668.734 1129.79 676.677 1120.62 692.146 1114.29C684.17 1118.24 677.785 1122.85 673.561 1127.7C670.588 1131.12 668.69 1134.64 667.044 1138.15C663.16 1146.4 660.549 1154.68 659.222 1162.91C658.553 1167.06 658.212 1171.21 658.191 1175.31C658.191 1177.36 658.256 1179.41 658.421 1181.45C658.498 1182.43 658.596 1183.41 658.706 1184.38C658.794 1185.14 659.803 1186.83 659.145 1187.55C659.123 1187.59 659.068 1187.94 659.046 1188C657.631 1188.14 656.172 1188.14 654.746 1188.19C653.901 1181.26 653.681 1174.24 654.449 1167.17V1167.18Z" fill="#346456"/>
<path id="Vector_79" d="M649.556 1159.42C646.342 1149.34 641.372 1139.65 633.857 1130.7C626.945 1122.47 617.093 1114.59 600.581 1111.75C609.259 1113.95 616.544 1117.28 621.766 1121.46C625.453 1124.4 628.119 1127.75 630.543 1131.13C636.248 1139.09 640.714 1147.42 643.917 1156.02C645.541 1160.37 646.835 1164.78 647.801 1169.25C648.284 1171.49 648.69 1173.74 649.008 1176C649.161 1177.09 649.293 1178.17 649.414 1179.27C649.501 1180.12 648.909 1182.22 649.721 1182.85C649.754 1182.87 649.885 1183.25 649.918 1183.31C651.334 1183.08 652.749 1182.71 654.142 1182.39C653.352 1174.62 651.926 1166.92 649.534 1159.42H649.556Z" fill="#346456"/>
<path id="Vector_80" d="M675.042 1166.77C677.62 1157.57 681.976 1148.57 688.91 1140.07C695.284 1132.26 704.631 1124.52 720.923 1120.84C712.399 1123.41 705.344 1126.89 700.385 1130.99C696.886 1133.87 694.439 1137.03 692.234 1140.22C687.045 1147.72 683.106 1155.46 680.44 1163.35C679.09 1167.33 678.07 1171.36 677.39 1175.41C677.05 1177.44 676.787 1179.47 676.6 1181.51C676.512 1182.49 676.446 1183.47 676.403 1184.45C676.37 1185.21 677.083 1187.05 676.315 1187.65C676.282 1187.67 676.172 1188.03 676.15 1188.08C674.724 1187.97 673.287 1187.74 671.882 1187.55C672.19 1180.58 673.133 1173.61 675.042 1166.77V1166.77Z" fill="#346456"/>
<path id="Vector_81" d="M667.066 1167.13C665.475 1157.7 661.251 1148.8 656.095 1139.12C652.464 1132.28 643.566 1116.24 635.206 1111.54C637.729 1114.88 644.828 1123.7 647.285 1128.27C649.436 1132.26 650.939 1135.5 652.771 1138.92C654.164 1141.52 660.242 1155.04 662.063 1163.15C662.985 1167.26 663.566 1171.37 663.83 1175.48C663.961 1177.53 664.005 1179.58 663.972 1181.62C663.95 1182.61 663.917 1183.58 663.863 1184.56C663.819 1185.32 662.908 1187.07 663.61 1187.75C663.632 1187.77 663.709 1188.14 663.731 1188.2C665.157 1188.25 666.616 1188.17 668.032 1188.12C668.47 1181.16 668.262 1174.13 667.077 1167.13H667.066Z" fill="#346456"/>
<path id="Vector_82" d="M667.867 1166.98C668.898 1157.47 671.707 1147.89 677.149 1138.36C682.151 1129.59 690.095 1120.42 705.564 1114.09C697.588 1118.04 691.203 1122.65 686.979 1127.5C684.006 1130.92 682.108 1134.44 680.462 1137.95C676.578 1146.2 673.967 1154.49 672.64 1162.72C671.97 1166.86 671.63 1171.01 671.608 1175.11C671.608 1177.16 671.674 1179.22 671.839 1181.26C671.915 1182.23 672.014 1183.21 672.124 1184.19C672.212 1184.94 673.221 1186.63 672.563 1187.36C672.541 1187.39 672.486 1187.74 672.464 1187.81C671.049 1187.94 669.59 1187.94 668.163 1187.99C667.319 1181.06 667.099 1174.04 667.867 1166.97V1166.98Z" fill="#346456"/>
<path id="Vector_83" d="M662.985 1159.2C659.77 1149.12 654.8 1139.43 647.285 1130.48C640.373 1122.25 630.521 1114.37 614.01 1111.54C622.688 1113.73 629.973 1117.06 635.195 1121.24C638.881 1124.18 641.547 1127.53 643.972 1130.91C649.677 1138.88 654.142 1147.2 657.346 1155.8C658.97 1160.15 660.264 1164.56 661.23 1169.03C661.712 1171.27 662.118 1173.52 662.436 1175.78C662.59 1176.87 662.722 1177.95 662.842 1179.05C662.93 1179.9 662.338 1182 663.149 1182.63C663.182 1182.65 663.314 1183.03 663.347 1183.09C664.762 1182.86 666.178 1182.49 667.571 1182.17C666.781 1174.4 665.355 1166.7 662.963 1159.2H662.985Z" fill="#346456"/>
<path id="Vector_84" d="M649.556 1159.42C646.342 1149.34 641.372 1139.65 633.857 1130.7C626.945 1122.47 617.093 1114.59 600.581 1111.75C609.259 1113.95 616.544 1117.28 621.766 1121.46C625.453 1124.4 628.119 1127.75 630.543 1131.13C636.248 1139.09 640.714 1147.42 643.917 1156.02C645.541 1160.37 646.835 1164.78 647.801 1169.25C648.284 1171.49 648.69 1173.74 649.008 1176C649.161 1177.09 649.293 1178.17 649.414 1179.27C649.501 1180.12 648.909 1182.22 649.721 1182.85C649.754 1182.87 649.885 1183.25 649.918 1183.31C651.334 1183.08 652.749 1182.71 654.142 1182.39C653.352 1174.62 651.926 1166.92 649.534 1159.42H649.556Z" fill="#346456"/>
</g>
</g>
<g id="bush">
<g id="Group_13">
<path id="Vector_85" d="M151.982 1163.24C156.689 1148.07 164.324 1133.33 176.239 1119.52C187.188 1106.83 203.064 1094.41 230.294 1089.03C216.02 1092.92 204.139 1098.39 195.724 1104.95C189.778 1109.58 185.576 1114.73 181.758 1119.93C172.794 1132.15 165.893 1144.82 161.11 1157.8C158.696 1164.36 156.82 1171 155.482 1177.7C154.812 1181.05 154.286 1184.42 153.891 1187.8C153.704 1189.42 153.551 1191.04 153.419 1192.67C153.32 1193.93 154.439 1197.01 153.134 1197.99C153.079 1198.02 152.893 1198.6 152.838 1198.69C150.479 1198.45 148.098 1197.99 145.761 1197.63C146.584 1186.05 148.471 1174.52 151.971 1163.24H151.982Z" fill="#346456"/>
<path id="Vector_86" d="M138.718 1163.46C136.502 1147.73 129.897 1132.75 121.767 1116.42C116.04 1104.91 102.008 1077.85 88.3273 1069.65C92.3647 1075.33 103.753 1090.29 107.626 1098C111.005 1104.73 113.363 1110.17 116.249 1115.93C118.443 1120.32 127.922 1143.04 130.577 1156.63C131.916 1163.48 132.706 1170.34 132.947 1177.16C133.068 1180.58 133.057 1183.99 132.903 1187.39C132.826 1189.02 132.728 1190.65 132.585 1192.28C132.475 1193.53 130.884 1196.41 132.014 1197.58C132.058 1197.63 132.157 1198.22 132.201 1198.33C134.571 1198.46 136.984 1198.39 139.354 1198.4C140.396 1186.85 140.374 1175.17 138.729 1163.47L138.718 1163.46Z" fill="#346456"/>
<path id="Vector_87" d="M140.067 1163.27C142.218 1147.53 147.319 1131.73 156.798 1116.14C165.509 1101.81 179.125 1086.94 205.104 1077.13C191.665 1083.33 180.847 1090.69 173.628 1098.56C168.526 1104.11 165.224 1109.88 162.317 1115.63C155.482 1129.17 150.764 1142.8 148.186 1156.4C146.88 1163.26 146.123 1170.12 145.915 1176.94C145.805 1180.36 145.838 1183.77 146.014 1187.17C146.09 1188.8 146.211 1190.43 146.354 1192.05C146.463 1193.3 148.076 1196.17 146.946 1197.34C146.902 1197.38 146.804 1197.99 146.771 1198.09C144.401 1198.24 141.987 1198.19 139.617 1198.21C138.52 1186.65 138.487 1174.98 140.078 1163.27H140.067Z" fill="#346456"/>
<path id="Vector_88" d="M132.3 1150.16C127.418 1133.27 119.606 1116.94 107.538 1101.74C96.4351 1087.76 80.4172 1074.2 53.121 1068.75C67.4383 1072.8 79.3859 1078.67 87.8775 1085.84C93.8788 1090.9 98.1356 1096.57 102.008 1102.31C111.114 1115.8 118.158 1129.83 123.095 1144.27C125.585 1151.56 127.538 1158.95 128.954 1166.42C129.656 1170.16 130.226 1173.92 130.654 1177.69C130.863 1179.5 131.038 1181.32 131.181 1183.14C131.29 1184.55 130.215 1188.03 131.532 1189.09C131.587 1189.13 131.784 1189.77 131.839 1189.87C134.198 1189.54 136.567 1188.99 138.893 1188.52C137.939 1175.58 135.92 1162.72 132.289 1150.16H132.3Z" fill="#346456"/>
<path id="Vector_89" d="M174.286 1163.54C178.993 1148.37 186.629 1133.63 198.544 1119.82C209.493 1107.12 225.368 1094.71 252.598 1089.33C238.325 1093.21 226.443 1098.69 218.028 1105.25C212.082 1109.88 207.88 1115.02 204.062 1120.22C195.099 1132.45 188.198 1145.12 183.414 1158.1C181.001 1164.66 179.125 1171.29 177.786 1178C177.117 1181.34 176.59 1184.71 176.195 1188.09C176.009 1189.72 175.855 1191.34 175.724 1192.96C175.625 1194.22 176.744 1197.31 175.438 1198.28C175.383 1198.32 175.197 1198.9 175.142 1198.99C172.783 1198.74 170.403 1198.28 168.066 1197.92C168.889 1186.35 170.776 1174.82 174.275 1163.54H174.286Z" fill="#346456"/>
<path id="Vector_90" d="M161.022 1163.76C158.806 1148.03 152.201 1133.05 144.072 1116.71C138.345 1105.2 124.313 1078.15 110.632 1069.94C114.669 1075.63 126.057 1090.59 129.93 1098.29C133.309 1105.03 135.668 1110.47 138.553 1116.23C140.747 1120.62 150.227 1143.34 152.882 1156.92C154.22 1163.78 155.01 1170.64 155.251 1177.46C155.372 1180.87 155.361 1184.28 155.207 1187.69C155.131 1189.32 155.032 1190.94 154.889 1192.58C154.78 1193.83 153.189 1196.7 154.319 1197.88C154.363 1197.92 154.461 1198.51 154.505 1198.62C156.875 1198.76 159.289 1198.69 161.658 1198.7C162.701 1187.15 162.679 1175.46 161.033 1163.77L161.022 1163.76Z" fill="#346456"/>
<path id="Vector_91" d="M162.372 1163.57C164.522 1147.83 169.624 1132.03 179.103 1116.44C187.814 1102.11 201.429 1087.23 227.409 1077.43C213.969 1083.62 203.152 1090.99 195.932 1098.85C190.831 1104.4 187.529 1110.17 184.621 1115.92C177.786 1129.46 173.069 1143.1 170.49 1156.69C169.185 1163.56 168.428 1170.42 168.219 1177.24C168.11 1180.65 168.143 1184.07 168.318 1187.47C168.395 1189.1 168.516 1190.72 168.658 1192.35C168.768 1193.6 170.381 1196.46 169.251 1197.64C169.207 1197.68 169.108 1198.28 169.075 1198.38C166.705 1198.54 164.292 1198.48 161.922 1198.5C160.825 1186.95 160.792 1175.28 162.383 1163.57H162.372Z" fill="#346456"/>
<path id="Vector_92" d="M154.604 1150.42C149.722 1133.52 141.91 1117.2 129.842 1101.99C118.739 1088.01 102.722 1074.45 75.4254 1069C89.7427 1073.05 101.69 1078.92 110.182 1086.09C116.183 1091.15 120.44 1096.82 124.313 1102.56C133.419 1116.05 140.462 1130.09 145.399 1144.53C147.89 1151.81 149.843 1159.2 151.258 1166.68C151.96 1170.42 152.531 1174.17 152.958 1177.94C153.167 1179.75 153.342 1181.57 153.485 1183.4C153.595 1184.8 152.52 1188.28 153.836 1189.34C153.891 1189.39 154.088 1190.02 154.143 1190.12C156.502 1189.79 158.872 1189.24 161.198 1188.77C160.243 1175.84 158.225 1162.97 154.593 1150.42H154.604Z" fill="#346456"/>
<path id="Vector_93" d="M132.3 1150.16C127.418 1133.27 119.606 1116.94 107.538 1101.74C96.4351 1087.76 80.4172 1074.2 53.121 1068.75C67.4383 1072.8 79.3859 1078.67 87.8775 1085.84C93.8788 1090.9 98.1356 1096.57 102.008 1102.31C111.114 1115.8 118.158 1129.83 123.095 1144.27C125.585 1151.56 127.538 1158.95 128.954 1166.42C129.656 1170.16 130.226 1173.92 130.654 1177.69C130.863 1179.5 131.038 1181.32 131.181 1183.14C131.29 1184.55 130.215 1188.03 131.532 1189.09C131.587 1189.13 131.784 1189.77 131.839 1189.87C134.198 1189.54 136.567 1188.99 138.893 1188.52C137.939 1175.58 135.92 1162.72 132.289 1150.16H132.3Z" fill="#346456"/>
</g>
</g>
</g>
<defs>
<linearGradient id="paint0_linear_29_142" x1="598.349" y1="481.191" x2="598.349" y2="896.107" gradientUnits="userSpaceOnUse">
<stop stop-color="#B8E1D4"/>
<stop offset="1" stop-color="#6BBEA4"/>
</linearGradient>
<linearGradient id="paint1_linear_29_142" x1="613.5" y1="642" x2="610.345" y2="925.619" gradientUnits="userSpaceOnUse">
<stop stop-color="#64B5B8"/>
<stop offset="1" stop-color="#026B6F"/>
</linearGradient>
<linearGradient id="paint2_linear_29_142" x1="1610.97" y1="539" x2="1610.97" y2="1067.23" gradientUnits="userSpaceOnUse">
<stop offset="0.0840499" stop-color="#B4DDD4"/>
<stop offset="1" stop-color="#28BA98"/>
</linearGradient>
<linearGradient id="paint3_linear_29_142" x1="1072.5" y1="650" x2="1072.5" y2="968.163" gradientUnits="userSpaceOnUse">
<stop stop-color="#8BC49B"/>
<stop offset="1" stop-color="#279846"/>
</linearGradient>
<linearGradient id="paint4_linear_29_142" x1="977.154" y1="1046.55" x2="1093.37" y2="1528.28" gradientUnits="userSpaceOnUse">
<stop offset="0.42" stop-color="#E3D5A5"/>
<stop offset="0.87" stop-color="#F1BBA3"/>
</linearGradient>
<clipPath id="clip0_29_142">
<rect width="2144.7" height="1178.78" fill="white"/>
</clipPath>
</defs>
</svg>
