<?xml version="1.0" encoding="UTF-8"?><svg id="Layer_1" xmlns="http://www.w3.org/2000/svg" viewBox="0 0 93.58 99.16"><defs><style>.cls-1{fill:#246d61;}.cls-2{fill:#3c837c;}</style></defs><path class="cls-1" d="M79.53,4.25c5.99-.99,9.61,1.58,10.28,4.44,.67,2.86-2.16,6.79-8.14,8.21-3.41,.81-17.22-2.41-17.89-3.16-.05-.74,11.54-8.8,15.75-9.5Z"/><path class="cls-1" d="M68.09,22.04c6.16,.8,8.96,3.77,8.77,6.18s-4.11,4.74-10.4,4.28c-3.58-.26-16.18-6.42-16.61-7.18,.17-.6,13.9-3.84,18.24-3.28Z"/><path class="cls-1" d="M57.9,40.32c5.53,2.83,7.16,6.58,6.17,8.78s-5.47,3.07-11.23,.51c-3.28-1.46-13.06-11.51-13.21-12.37,.36-.5,14.38,1.08,18.27,3.08Z"/><path class="cls-1" d="M47.13,57.06c5.53,2.83,7.16,6.58,6.17,8.78s-5.47,3.07-11.23,.51c-3.28-1.46-13.06-11.51-13.21-12.37,.36-.5,14.38,1.08,18.27,3.08Z"/><path class="cls-1" d="M21.25,39.85c-4.57-4.2-8.65-4.44-10.38-2.75-1.73,1.69-.99,6.2,3.41,10.71,2.51,2.57,15.32,8.27,16.18,8.11,.35-.51-6-13.11-9.22-16.07Z"/><path class="cls-1" d="M34.26,21.45c-3.88-4.86-7.87-5.71-9.83-4.3s-1.93,5.97,1.73,11.11c2.08,2.93,13.88,10.51,14.75,10.49,.42-.45-3.92-13.88-6.65-17.29Z"/><path class="cls-1" d="M46.65,6C43.49,.65,39.66-.76,37.52,.36s-2.75,5.64,.15,11.24c1.65,3.19,12.26,12.36,13.13,12.46,.48-.39-1.93-14.29-4.15-18.06Z"/><path class="cls-2" d="M18.18,67.62c7.28-12.98,15.66-25.3,25.54-36.42,9.08-10.22,20.17-19.74,33.64-22.02-7.44,2.13-14.4,5.89-20.27,10.92-4.14,3.55-7.72,7.71-11.16,11.96-8.07,9.98-15.42,20.55-21.97,31.58-3.31,5.57-6.42,11.27-9.32,17.06-1.45,2.9-2.84,5.82-4.19,8.77-.64,1.42-1.28,2.84-1.9,4.26-.48,1.1-1.08,3.93-1.97,4.67-.03,.03-.32,.52-.37,.6-.92-.43-1.78-1.05-2.64-1.59,4.37-10.15,9.18-20.16,14.6-29.81Z"/></svg>