<?xml version="1.0" encoding="UTF-8"?><svg id="Layer_1" xmlns="http://www.w3.org/2000/svg" viewBox="0 0 30.82 30.58"><defs><style>.cls-1{fill:#fff7df;}.cls-2{fill:#742a34;}.cls-3{fill:#d8c6cc;}.cls-4{fill:#400000;}.cls-5{isolation:isolate;}</style></defs><g><path class="cls-1" d="M15.41,29.92C7.28,29.92,.67,23.36,.67,15.29c0-8.06,6.61-14.62,14.74-14.62s14.74,6.56,14.74,14.63c-.01,8.06-6.62,14.62-14.74,14.62Z"/><path class="cls-3" d="M15.41,1.34c7.76,0,14.07,6.26,14.07,13.96s-6.32,13.96-14.07,13.96S1.33,22.99,1.33,15.3,7.65,1.34,15.41,1.34m0-1.34C6.9,0,0,6.85,0,15.29s6.9,15.29,15.41,15.29,15.41-6.85,15.41-15.29S23.91,0,15.41,0h0Z"/></g><g class="cls-5"><path class="cls-2" d="M27.8,8.75c.2,0,.34,.04,.4,.13,.07,.09,.1,.22,.1,.4-.74,.67-1.28,1.5-1.61,2.49-.33,.99-.51,2.14-.52,3.45,0,.04-.04,.08-.11,.12-.07,.04-.15,.07-.23,.09s-.16,.03-.23,.02c-.07,0-.11-.04-.11-.11,0-.05,0-.12,.01-.2,0-.08,.01-.16,.01-.26,0-.31-.12-.67-.35-1.08s-.55-.8-.96-1.17c-.41-.37-.88-.69-1.43-.94-.54-.26-1.13-.38-1.75-.38-.86,0-1.61,.17-2.27,.52-.66,.35-1.21,.81-1.67,1.39-.45,.58-.79,1.25-1.03,2.01-.24,.77-.36,1.57-.36,2.41,0,.94,.14,1.83,.42,2.66,.28,.83,.68,1.56,1.19,2.18,.51,.62,1.12,1.12,1.84,1.48,.72,.37,1.5,.55,2.36,.55,.58,0,1.1-.09,1.57-.27,.46-.18,.86-.42,1.17-.73,.32-.31,.57-.67,.74-1.09s.26-.87,.26-1.36c0-.39-.07-.79-.2-1.19-.13-.4-.31-.76-.54-1.08s-.5-.58-.8-.79-.64-.3-1-.3c-.22,0-.44,.02-.65,.07-.22,.05-.41,.12-.59,.22-.17,.1-.31,.22-.41,.36-.1,.14-.15,.32-.15,.53,0,.16,.03,.3,.09,.44,.06,.14,.13,.26,.22,.35,.09,.1,.17,.18,.26,.24s.16,.08,.22,.07c.07-.01,.13,.02,.16,.09,.04,.07,.04,.12,.01,.15-.07,.08-.32,.17-.74,.29-.42,.11-.92,.17-1.5,.17-.52,0-.93-.15-1.23-.45-.3-.3-.45-.65-.45-1.04,0-.25,.14-.5,.41-.76,.28-.26,.65-.49,1.13-.69,.48-.2,1.04-.37,1.67-.5,.64-.13,1.32-.2,2.04-.2,.78,0,1.48,.08,2.09,.24,.61,.16,1.12,.37,1.54,.65,.42,.28,.74,.6,.96,.96,.22,.37,.33,.75,.33,1.16,0,.63-.2,1.25-.61,1.88-.41,.62-.94,1.18-1.61,1.67-.67,.49-1.43,.89-2.29,1.2-.86,.31-1.75,.46-2.67,.46-1.39,0-2.62-.17-3.69-.51-1.07-.34-1.96-.82-2.67-1.43-.71-.62-1.25-1.34-1.61-2.18s-.54-1.76-.54-2.77c0-1.09,.25-2.11,.74-3.07,.49-.96,1.17-1.79,2.02-2.52,.86-.72,1.86-1.29,3.02-1.7s2.42-.62,3.76-.62c1.04,0,1.91,.09,2.59,.28,.68,.18,1.23,.33,1.65,.45,.06-.13,.14-.32,.25-.56,.11-.24,.23-.49,.37-.74,.14-.25,.29-.48,.45-.7,.16-.22,.33-.36,.5-.44Z"/></g><g class="cls-5"><path class="cls-4" d="M3.53,13.82s-.07,0-.1,0c-.03,0-.06-.03-.08-.07,0-.01,.02-.06,.06-.13,.04-.08,.11-.16,.21-.25,.1-.09,.22-.17,.37-.24,.15-.07,.33-.11,.55-.11,.26,0,.48,.05,.65,.16,.17,.11,.3,.26,.4,.45s.17,.41,.2,.66c.03,.25,.05,.52,.05,.8,.05,.31,.24,.62,.56,.94,.32,.32,.72,.61,1.2,.86,.47,.25,.99,.46,1.56,.63,.56,.17,1.11,.25,1.64,.26,1.26,.02,2.18-.19,2.76-.64,.58-.45,.86-1.02,.86-1.71,0-.58-.15-1.05-.43-1.4-.28-.36-.66-.64-1.14-.86-.47-.22-1.01-.39-1.61-.52-.6-.13-1.21-.25-1.83-.37-.62-.11-1.23-.24-1.83-.38-.6-.14-1.13-.33-1.61-.57-.47-.24-.85-.56-1.14-.95-.28-.39-.43-.89-.43-1.51,0-.59,.16-1.15,.5-1.69,.34-.53,.82-1.01,1.45-1.41,.63-.41,1.39-.73,2.29-.97,.9-.24,1.92-.37,3.07-.37,1.09,0,2.03,.07,2.81,.24,.78,.16,1.38,.29,1.79,.38,.08-.1,.17-.22,.27-.36,.1-.14,.21-.26,.33-.38,.12-.12,.26-.22,.41-.3,.15-.08,.32-.13,.52-.13,.15,0,.27,.03,.36,.1,.09,.07,.14,.14,.14,.2-.03,.06-.1,.12-.2,.15-.1,.04-.19,.08-.27,.12-.51,.21-.94,.69-1.27,1.44-.34,.75-.53,1.67-.57,2.77-.02,.03-.06,.05-.12,.06-.07,.01-.14,.02-.22,.02-.13,0-.22,0-.27-.02-.05-.38-.2-.78-.45-1.17-.25-.4-.6-.76-1.04-1.08-.44-.33-.98-.59-1.62-.79-.64-.2-1.36-.3-2.18-.3-.5,0-.94,.06-1.34,.17-.4,.11-.73,.26-1,.45s-.48,.4-.62,.63c-.14,.23-.21,.46-.21,.69,0,.54,.29,1.03,.85,1.47,.57,.44,1.42,.77,2.56,.98,.71,.14,1.46,.29,2.23,.46s1.47,.4,2.1,.69c.63,.29,1.16,.66,1.57,1.11,.42,.45,.63,1.02,.63,1.71,0,.68-.2,1.33-.6,1.96-.4,.62-.94,1.18-1.6,1.65-.66,.48-1.41,.86-2.26,1.15-.84,.29-1.7,.43-2.58,.44-.68,0-1.34-.03-1.99-.1-.65-.07-1.24-.15-1.79-.24s-1.03-.19-1.44-.3c-.42-.11-.72-.2-.92-.27,.15-.21,.3-.43,.46-.66,.16-.23,.3-.48,.44-.73,.14-.26,.25-.52,.34-.8,.09-.28,.13-.57,.13-.88,0-.45-.09-.79-.27-1.02-.18-.23-.38-.34-.61-.34-.17,0-.28,.03-.35,.08-.07,.05-.15,.13-.25,.23l-.12-.08Z"/></g></svg>