<?xml version="1.0" encoding="UTF-8"?><svg id="Layer_1" xmlns="http://www.w3.org/2000/svg" viewBox="0 0 469.39 383.23"><defs><style>.cls-1{fill:#fff;}.cls-2,.cls-3,.cls-4{fill:#5a7c5a;}.cls-3{font-size:28.01px;}.cls-3,.cls-4{font-family:KarelleDEMO, 'Karelle DEMO';}.cls-4{font-size:86.67px;}</style></defs><g><path class="cls-1" d="M167.6,183.91c-.47,51.05,44.4,97.75,98.85,97.22,52.67-.51,97.57-43.14,97.48-97.53-.09-54.83-43.78-98.76-99.5-98.14-54.18,.61-97.09,45.68-96.83,98.45Z"/><path d="M167.6,183.91c-.26-52.78,42.65-97.85,96.83-98.45,55.72-.62,99.41,43.31,99.5,98.14,.33,54.6-44.24,97.5-97.48,97.53-54.45,.53-99.33-46.17-98.85-97.22Zm95.33,59.91c8.26-3.38,65.66-9.56,89.13-27.62,1.34-.68,2.38-2.62,2.89-4.2,5.66-17.39,6.16-34.97,1.2-52.58-13.14-46.65-58.4-74.58-107.66-66.55-54.76,8.93-89.76,66.93-72.12,119.42,.83,2.48,2.09,3.85,4.76,4.45,13.82,3.14,27.66,6.21,41.35,9.82,9.07,2.39,17.91,5.65,27.03,8.58-2.04-2.28-4.29-4.35-6-6.8-3.8-5.45-7.87-10.81-10.81-16.72-3.45-6.94-3-14.31,.76-21.27,5.05-9.33,13.36-11.17,21.94-4.9,1.12,.82,2.36,1.47,3.85,2.37,.94-6.89,1.78-13.06,2.65-19.45-8.46,1.8-20.09-1.3-23-5.34,6.2,1.01,12.87,2.1,19.55,3.19,.4-.64,.81-1.28,1.21-1.92-3.43-2.97-6.6-6.35-10.36-8.8-3.72-2.42-8.04-3.91-12.1-5.81,0-.34,.02-.69,.02-1.03,1.06-.16,2.22-.67,3.18-.41,3.47,.93,7.35,1.41,10.2,3.35,5.18,3.53,9.73,7.97,14.62,12.1,3.31-1.86,4.59-4.7,3.65-8.44-3.12-12.32,3.93-25.31,16.26-28.81,4.3-1.22,9.09-.62,13.62-1.15,6.36-.74,9.14,2.37,8.27,9.51-1.4-.81-2.89-2.38-4.39-2.39-5.11-.04-10.41-.29-15.3,.94-9.82,2.46-17,13.43-15.27,22.57,1.02-1.64,1.94-2.98,2.72-4.4,4.69-8.58,12.14-13.56,21.31-16.21,.81-.24,1.86,.34,2.8,.54-.56,.67-1,1.5-1.7,1.98-.78,.54-1.81,.7-2.69,1.12-7.76,3.63-13.42,9.35-17.64,17.11,5.03-1.58,9.44-3.23,13.98-4.32,6.45-1.53,12.56-3.31,15.29-10.44-.45,7.19-3.2,10.23-10.23,12.61-6.93,2.34-13.76,5-20.64,7.51-.22,.08-.49,.05-.98,.09,.4-1.14,.77-2.17,1.29-3.64-7.71,4.64-13.38,23.04-9.9,30.92,2.07-2.27,3.95-4.69,6.18-6.72,6.5-5.92,14.06-5.36,19.72,1.35,6.12,7.27,6.58,15.35,3.08,23.86-5.33,12.95-14.68,22.83-24.69,32.2-1.23,1.15-5.26,3.47-7.05,4.31,1.66-1.59,3.03-2.76,4.23-4.07,6.47-7.06,13.43-13.77,19.17-21.39,3.66-4.86,6.15-10.89,8.01-16.76,2.17-6.86-.12-13.19-5.26-18.3-4.21-4.19-9.27-5.03-13.91-1.35-3.27,2.59-5.61,6.37-8.28,9.69-.87,1.08-1.47,2.37-2.19,3.57-1.21-1.4-1.61-2.57-1.5-3.7,.68-7.16,1.45-14.31,2.24-21.46,.19-1.74,1.15-3.75-1.63-4.27-.97,9.24-1.89,18.12-2.89,27.68-2.03-2.13-3.47-3.8-5.07-5.3-8.37-7.85-18.51-5.11-22.1,5.85-2.46,7.51-1.27,14.51,2.5,21.27,5.24,9.4,12.74,16.82,20.86,23.66,1.11,.94,3.24,2.42,4.63,3.03-.57,.66-55.69-15.94-82.94-23.58,10.97,30.49,46.1,62.73,94.88,58.89,6.19-.49,12.3-1.81,18.22-3.66,6.22-1.95,12.25-4.5,18.03-7.5,5.74-2.99,11.25-6.43,16.42-10.32,5.57-4.19,10.8-8.91,15.27-14.28,3.81-4.58,7.19-9.74,9.01-15.46,.53-1.65,.91-3.35,1.11-5.08-20.23,13.58-88.03,25.5-88.78,22.84Z"/><path d="M263.71,243.98s-.17-1.42-1.57-2.03c-3.05-1.31-2.43-.97-2.43-.97,0,0-1.52-1.1-2.63-2.03-8.12-6.84-15.62-14.26-20.86-23.66-3.77-6.76-4.96-13.75-2.5-21.27,3.59-10.96,13.73-13.7,22.1-5.85,1.6,1.5,3.04,3.17,5.07,5.3,1-9.56,1.93-18.44,2.89-27.68,2.79,.51,1.82,2.53,1.63,4.27-.78,7.15-1.56,14.3-2.24,21.46-.11,1.12,.29,2.29,1.5,3.7,.72-1.2,1.32-2.49,2.19-3.57,2.67-3.32,5.01-7.09,8.28-9.69,4.64-3.68,9.71-2.84,13.91,1.35,5.14,5.11,7.42,11.44,5.26,18.3-1.86,5.87-4.34,11.9-8.01,16.76-5.74,7.62-8.53,10.02-15.01,17.09-1.2,1.31-6.17,6.24-7.84,7.83,2.01,1.58,25.86-23.02,31.18-35.97,3.5-8.51,3.04-16.59-3.08-23.86-5.66-6.72-13.22-7.27-19.72-1.35-2.23,2.03-4.11,4.45-6.18,6.72-3.47-7.88,2.2-26.28,9.9-30.92-.52,1.47-.89,2.5-1.29,3.64,.49-.04,.75,0,.98-.09,6.88-2.51,13.7-5.17,20.64-7.52,7.03-2.38,9.78-5.42,10.23-12.61-2.72,7.12-8.84,8.9-15.29,10.44-4.55,1.08-8.96,2.74-13.98,4.32,4.23-7.76,9.89-13.49,17.64-17.11,.88-.41,1.9-.58,2.69-1.12,.69-.47,1.14-1.31,1.7-1.98-.94-.2-1.99-.78-2.8-.54-9.17,2.66-16.62,7.63-21.31,16.21-.78,1.42-1.7,2.76-2.72,4.4-1.73-9.14,5.45-20.11,15.27-22.57,4.88-1.22,10.19-.97,15.3-.94,1.5,.01,2.99,1.59,4.39,2.39,.87-7.13-1.91-10.25-8.27-9.51-4.53,.53-9.32-.07-13.62,1.15-12.33,3.5-19.38,16.48-16.26,28.81,.95,3.74-.34,6.58-3.65,8.44-4.89-4.12-9.44-8.57-14.62-12.1-2.85-1.94-6.73-2.42-10.2-3.35-.95-.25-2.11,.25-3.18,.41,0,.34-.02,.69-.02,1.03,4.06,1.9,8.38,3.39,12.1,5.81,3.77,2.45,6.93,5.83,10.36,8.8-.4,.64-.81,1.28-1.21,1.92-6.68-1.09-13.36-2.18-19.55-3.19,2.91,4.04,14.54,7.14,23,5.34-.87,6.39-1.71,12.55-2.65,19.45-1.48-.91-2.73-1.55-3.85-2.37-8.58-6.27-16.9-4.43-21.94,4.9-3.76,6.96-4.21,14.33-.76,21.27,2.94,5.91,7.01,11.27,10.81,16.72,1.71,2.45,3.96,4.52,6,6.8-9.12-2.93-17.96-6.19-27.03-8.58-13.7-3.61-27.54-6.69-41.35-9.82-2.67-.61,81.58,26.23,82.58,27.23Zm-.45-86.19c.51-.11,1.02-.22,1.52-.33-1.39-3.78-2.21-7.9-4.27-11.28-5.39-8.83-21.97-12.06-30.31-6.21-.77,.54-1.59,1.9-1.44,2.71,.81,4.39,1.92,8.72,2.93,13.08,.36-.09,.73-.18,1.09-.27-.24-1.76-.89-3.59-.61-5.27,.25-1.48,1.23-3.54,2.43-4.05,12.05-5.1,23.54-.34,28.65,11.62Z"/><path d="M263.26,157.79c-5.11-11.96-16.6-16.72-28.65-11.62-1.2,.51-2.18,2.57-2.43,4.05-.29,1.67,.36,3.5,.61,5.27-.36,.09-.73,.18-1.09,.27-1.01-4.35-2.12-8.69-2.93-13.08-.15-.81,.67-2.17,1.44-2.71,8.34-5.85,24.93-2.62,30.31,6.21,2.06,3.37,2.88,7.5,4.27,11.28-.51,.11-1.02,.22-1.52,.33Z"/></g><path class="cls-2" d="M316.71,264.98c-7,4.9-32.52,14.2-60.35,12.75-27.87-1.45-51.31-18.07-67.02-37.98-5.21-6.6-11.63-21.77-11.63-21.77,0,0,63.4,17.81,78,22,1.15,.33,5,2,7,3,.59,.3,.87,.89,2.73,.79,12.25-.7,38.27-5.79,44.27-7.79,14.73-4.91,42.57-15.53,42.57-15.53,0,0-.27,4.16-2.23,8.85-2.49,5.97-17.35,24.69-20.35,26.69"/><text class="cls-4" transform="translate(168.07 108.54) rotate(121.29) scale(.96 1)"><tspan x="0" y="0"> </tspan></text><text class="cls-3" transform="translate(153.39 134.95) rotate(107.47) scale(.96 1)"><tspan x="0" y="0">G</tspan></text><text class="cls-3" transform="translate(146.11 161.72) rotate(96.35) scale(.96 1)"><tspan x="0" y="0">r</tspan></text><text class="cls-3" transform="translate(144.43 180.66) rotate(86.93) scale(.96 1)"><tspan x="0" y="0">e</tspan></text><text class="cls-3" transform="translate(146.2 202.37) rotate(76.76) scale(.96 1)"><tspan x="0" y="0">e</tspan></text><text class="cls-3" transform="translate(151.91 224.16) rotate(65.52) scale(.96 1)"><tspan x="0" y="0">n</tspan></text><text class="cls-3" transform="translate(161.86 244.43) rotate(57.83) scale(.96 1)"><tspan x="0" y="0"> </tspan></text><text class="cls-3" transform="translate(168.72 255.4) rotate(48.73) scale(.96 1)"><tspan x="0" y="0">A</tspan></text><text class="cls-3" transform="translate(187.52 275.19) rotate(37.66) scale(.96 1)"><tspan x="0" y="0">r</tspan></text><text class="cls-3" transform="translate(202.92 286.55) rotate(28.09) scale(.96 1)"><tspan x="0" y="0">o</tspan></text><text class="cls-3" transform="translate(223.57 296.84) rotate(17.21) scale(.96 1)"><tspan x="0" y="0">u</tspan></text><text class="cls-3" transform="translate(247.13 303.36) rotate(5.7) scale(.96 1)"><tspan x="0" y="0">n</tspan></text><text class="cls-3" transform="translate(272.44 305.05) rotate(-6.09) scale(.96 1)"><tspan x="0" y="0">d</tspan></text><text class="cls-3" transform="translate(294.75 301.91) rotate(-14.19) scale(.96 1)"><tspan x="0" y="0"> </tspan></text><text class="cls-3" transform="translate(306.54 298.91) rotate(-22.22) scale(.96 1)"><tspan x="0" y="0">T</tspan></text><text class="cls-3" transform="translate(327.86 289.61) rotate(-32.95) scale(.96 1)"><tspan x="0" y="0">h</tspan></text><text class="cls-3" transform="translate(348.08 275.52) rotate(-43.95) scale(.96 1)"><tspan x="0" y="0">e</tspan></text><text class="cls-3" transform="translate(361.99 261.31) rotate(-51.32) scale(.96 1)"><tspan x="0" y="0"> </tspan></text><text class="cls-3" transform="translate(371.23 250.13) rotate(-62.68) scale(.96 1)"><tspan x="0" y="0">W</tspan></text><text class="cls-3" transform="translate(386.31 216.78) rotate(-77.02) scale(.96 1)"><tspan x="0" y="0">o</tspan></text><text class="cls-3" transform="translate(390.64 194.98) rotate(-86.66) scale(.96 1)"><tspan x="0" y="0">r</tspan></text><text class="cls-3" transform="translate(391.22 177.74) rotate(-93.51) scale(.96 1)"><tspan x="0" y="0">l</tspan></text><text class="cls-3" transform="translate(390.35 164.68) rotate(-101.87) scale(.96 1)"><tspan x="0" y="0">d</tspan></text></svg>