<?xml version="1.0" encoding="utf-8"?>
<!-- Generator: Adobe Illustrator 26.4.0, SVG Export Plug-In . SVG Version: 6.00 Build 0)  -->
<svg version="1.1" id="Layer_1" xmlns="http://www.w3.org/2000/svg" xmlns:xlink="http://www.w3.org/1999/xlink" x="0px" y="0px"
	 viewBox="0 0 300 300" style="enable-background:new 0 0 300 300;" xml:space="preserve">
<style type="text/css">
	.st0{fill:#FFFFFF;}
	.st1{fill:#5A7C5A;}
</style>
<g>
	<path class="st0" d="M2.3,150.38C1.58,227.59,69.45,298.23,151.8,297.43c79.66-0.78,147.57-65.24,147.44-147.52
		C299.1,66.98,233.02,0.53,148.75,1.48C66.8,2.39,1.9,70.56,2.3,150.38z"/>
	<path d="M2.3,150.38C1.9,70.56,66.8,2.39,148.75,1.48c84.28-0.94,150.36,65.5,150.49,148.43c0.14,82.27-67.78,146.74-147.44,147.52
		C69.45,298.23,1.58,227.59,2.3,150.38z M146.48,241c12.5-5.11,99.31-14.46,134.81-41.77c2.03-1.02,3.6-3.97,4.37-6.35
		c8.56-26.3,9.32-52.89,1.82-79.53C267.61,42.8,199.15,0.55,124.64,12.7C41.82,26.2-11.12,113.93,15.57,193.32
		c1.26,3.75,3.15,5.82,7.19,6.73c20.9,4.74,41.83,9.39,62.55,14.85c13.72,3.62,27.09,8.55,40.88,12.97
		c-3.09-3.45-6.49-6.58-9.08-10.29c-5.74-8.24-11.91-16.36-16.35-25.29c-5.22-10.5-4.54-21.64,1.15-32.17
		c7.63-14.12,20.21-16.89,33.19-7.41c1.69,1.24,3.58,2.22,5.82,3.59c1.42-10.42,2.69-19.75,4.01-29.41
		c-12.8,2.72-30.38-1.97-34.79-8.08c9.37,1.53,19.47,3.18,29.57,4.83c0.61-0.97,1.22-1.93,1.83-2.9c-5.19-4.49-9.97-9.6-15.67-13.31
		c-5.62-3.66-12.16-5.92-18.3-8.79c0.01-0.52,0.02-1.04,0.04-1.56c1.61-0.24,3.36-1.01,4.81-0.62c5.25,1.4,11.12,2.13,15.43,5.07
		c7.83,5.33,14.72,12.06,22.11,18.3c5-2.81,6.95-7.11,5.52-12.77c-4.72-18.64,5.95-38.28,24.6-43.57c6.5-1.84,13.75-0.94,20.6-1.74
		c9.63-1.13,13.82,3.59,12.51,14.38c-2.12-1.22-4.37-3.6-6.64-3.62c-7.73-0.06-15.75-0.43-23.14,1.42
		c-14.85,3.72-25.71,20.31-23.1,34.13c1.54-2.48,2.94-4.5,4.11-6.65c7.1-12.98,18.37-20.5,32.23-24.52
		c1.23-0.36,2.82,0.52,4.24,0.82c-0.84,1.02-1.52,2.27-2.57,2.99c-1.18,0.81-2.73,1.07-4.06,1.69
		c-11.73,5.49-20.29,14.14-26.68,25.89c7.6-2.38,14.27-4.89,21.15-6.53c9.75-2.32,19-5.01,23.12-15.79
		c-0.68,10.88-4.84,15.48-15.47,19.07c-10.49,3.55-20.81,7.57-31.21,11.37c-0.34,0.12-0.74,0.07-1.48,0.13
		c0.61-1.72,1.16-3.27,1.95-5.5c-11.66,7.01-20.23,34.85-14.98,46.77c3.13-3.43,5.97-7.09,9.35-10.16
		c9.83-8.95,21.26-8.11,29.82,2.05c9.26,10.99,9.96,23.22,4.66,36.09c-8.06,19.58-22.2,34.53-37.34,48.7
		C155.28,236.22,157.52,236.87,146.48,241c2.52-2.41,4.58-4.17,6.4-6.16c9.79-10.68,20.31-20.83,28.99-32.35
		c5.54-7.35,9.3-16.47,12.11-25.35c3.28-10.37-0.18-19.95-7.95-27.68c-6.36-6.33-14.02-7.61-21.05-2.04
		c-4.94,3.92-8.49,9.63-12.52,14.65c-1.31,1.63-2.22,3.59-3.31,5.4c-1.83-2.12-2.43-3.89-2.27-5.59c1.03-10.83,2.2-21.65,3.38-32.46
		c0.29-2.63,1.75-5.68-2.47-6.45c-1.46,13.98-2.87,27.4-4.38,41.87c-3.07-3.22-5.25-5.75-7.66-8.01c-12.67-11.87-28-7.73-33.43,8.85
		c-3.72,11.37-1.93,21.94,3.77,32.17c7.93,14.22,19.27,25.44,31.56,35.79c1.68,1.42,4.31,1.97,6.4,2.9
		c-0.87,1-83.63-22.41-124.85-33.98c16.59,46.11,69.72,94.88,143.5,89.06c51.84-4.08,113.9-49.56,118.06-85.92
		C250.16,226.24,147.62,245.02,146.48,241z"/>
	<path d="M146.61,239.81c0,0,0.8-0.73-1.33-1.64c-4.61-1.98-1.08-2.05-1.41-1.71c-0.25-0.64-4.55-1.42-6.23-2.84
		c-12.29-10.35-23.63-21.57-31.56-35.79c-5.7-10.22-7.5-20.8-3.77-32.17c5.43-16.58,20.77-20.72,33.43-8.85
		c2.42,2.27,4.59,4.79,7.66,8.01c1.51-14.46,2.92-27.89,4.38-41.87c4.22,0.77,2.76,3.82,2.47,6.45
		c-1.19,10.81-2.35,21.63-3.38,32.46c-0.16,1.7,0.44,3.47,2.27,5.59c1.09-1.81,2-3.77,3.31-5.4c4.04-5.02,7.58-10.73,12.52-14.65
		c7.02-5.57,14.68-4.3,21.05,2.04c7.77,7.73,11.23,17.31,7.95,27.68c-2.81,8.88-6.57,18-12.11,25.35
		c-8.68,11.52-12.91,15.16-22.7,25.84c-1.82,1.99-9.34,9.44-11.85,11.84c3.04,2.39,39.11-34.82,47.16-54.4
		c5.29-12.87,4.6-25.1-4.66-36.09c-8.56-10.16-19.99-10.99-29.82-2.05c-3.38,3.07-6.22,6.73-9.35,10.16
		c-5.25-11.92,3.32-39.75,14.98-46.77c-0.79,2.23-1.34,3.78-1.95,5.5c0.74-0.06,1.14-0.01,1.48-0.13
		c10.4-3.8,20.73-7.82,31.21-11.37c10.63-3.59,14.79-8.2,15.47-19.07c-4.11,10.77-13.36,13.46-23.12,15.79
		c-6.88,1.64-13.54,4.14-21.15,6.53c6.39-11.74,14.95-20.4,26.68-25.89c1.33-0.62,2.88-0.88,4.06-1.69
		c1.05-0.72,1.73-1.97,2.57-2.99c-1.42-0.3-3.01-1.18-4.24-0.82c-13.87,4.02-25.14,11.54-32.23,24.52
		c-1.17,2.15-2.57,4.17-4.11,6.65c-2.61-13.82,8.25-30.42,23.1-34.13c7.38-1.85,15.41-1.47,23.14-1.42c2.27,0.02,4.52,2.4,6.64,3.62
		c1.31-10.79-2.89-15.5-12.51-14.38c-6.85,0.8-14.1-0.1-20.6,1.74c-18.65,5.29-29.32,24.93-24.6,43.57
		c1.43,5.65-0.52,9.95-5.52,12.77c-7.39-6.24-14.27-12.97-22.11-18.3c-4.31-2.93-10.18-3.66-15.43-5.07
		c-1.44-0.39-3.2,0.38-4.81,0.62c-0.01,0.52-0.02,1.04-0.04,1.56c6.14,2.87,12.67,5.13,18.3,8.79c5.7,3.71,10.48,8.82,15.67,13.31
		c-0.61,0.97-1.22,1.93-1.83,2.9c-10.1-1.65-20.2-3.3-29.57-4.83c4.4,6.11,21.99,10.8,34.79,8.08c-1.32,9.66-2.59,18.99-4.01,29.41
		c-2.24-1.37-4.12-2.35-5.82-3.59c-12.98-9.48-25.56-6.7-33.19,7.41c-5.69,10.53-6.37,21.67-1.15,32.17
		c4.44,8.94,10.61,17.05,16.35,25.29c2.58,3.71,5.99,6.84,9.08,10.29c-13.79-4.43-27.16-9.36-40.88-12.97
		c-20.72-5.46-41.65-10.11-62.55-14.85C18.72,199.14,150.18,248.08,146.61,239.81z M146.98,110.87c0.77-0.16,1.54-0.33,2.31-0.49
		c-2.1-5.72-3.34-11.96-6.45-17.05c-8.15-13.36-33.23-18.24-45.85-9.4c-1.16,0.82-2.4,2.88-2.18,4.1
		c1.23,6.64,2.91,13.19,4.43,19.78c0.55-0.14,1.1-0.27,1.65-0.41c-0.37-2.67-1.35-5.44-0.92-7.97c0.38-2.24,1.86-5.35,3.68-6.12
		C121.87,85.59,139.24,92.79,146.98,110.87z"/>
	<path d="M146.98,110.87c-7.73-18.08-25.11-25.28-43.33-17.57c-1.82,0.77-3.3,3.88-3.68,6.12c-0.43,2.53,0.55,5.3,0.92,7.97
		c-0.55,0.14-1.1,0.27-1.65,0.41c-1.52-6.58-3.2-13.14-4.43-19.78c-0.23-1.22,1.01-3.28,2.18-4.1c12.62-8.84,37.7-3.96,45.85,9.4
		c3.11,5.1,4.36,11.34,6.45,17.05C148.51,110.54,147.75,110.71,146.98,110.87z"/>
</g>
<path class="st1" d="M214.96,279.22c-33.68,18.15-72.16,13.76-78.41,13.07c-40.27-4.47-77.61-27.33-101.36-57.45
	c-7.87-9.98-15.91-32.8-15.91-32.8s75.32,21.62,82.71,23.7c6.68,1.88,38.55,17.1,48.29,15.18c16.87-3.32,55.7-9.15,72.89-13.27
	c38.59-9.25,58.45-22,58.45-22s-0.32,6.32-3.37,13.38c-3.93,9.13-18.18,27.92-24.7,33.81"/>
</svg>
