<svg width="67" height="67" viewBox="0 0 67 67" fill="none" xmlns="http://www.w3.org/2000/svg">
<circle cx="33.5" cy="33.5" r="33.5" fill="#F2F2E4"/>
<path d="M33.1164 23.1299C26.8418 23.1299 21.7807 27.8899 21.7807 33.7911C21.7807 39.6923 26.8418 44.4522 33.1164 44.4522C39.391 44.4522 44.4521 39.6923 44.4521 33.7911C44.4521 27.8899 39.391 23.1299 33.1164 23.1299ZM33.1164 40.7222C29.0616 40.7222 25.7467 37.6138 25.7467 33.7911C25.7467 29.9683 29.0517 26.8599 33.1164 26.8599C37.1811 26.8599 40.4861 29.9683 40.4861 33.7911C40.4861 37.6138 37.1712 40.7222 33.1164 40.7222ZM47.5597 22.6938C47.5597 24.0763 46.3759 25.1805 44.9157 25.1805C43.4458 25.1805 42.2717 24.0671 42.2717 22.6938C42.2717 21.3206 43.4556 20.2072 44.9157 20.2072C46.3759 20.2072 47.5597 21.3206 47.5597 22.6938ZM55.0675 25.2176C54.8998 21.8866 54.0908 18.936 51.4962 16.505C48.9114 14.074 45.7741 13.3132 42.2323 13.1461C38.582 12.9513 27.6409 12.9513 23.9906 13.1461C20.4587 13.3039 17.3214 14.0647 14.7268 16.4957C12.1321 18.9267 11.333 21.8773 11.1554 25.2083C10.9482 28.6414 10.9482 38.9314 11.1554 42.3645C11.3231 45.6955 12.1321 48.6461 14.7268 51.0771C17.3214 53.5081 20.4489 54.269 23.9906 54.436C27.6409 54.6308 38.582 54.6308 42.2323 54.436C45.7741 54.2782 48.9114 53.5174 51.4962 51.0771C54.081 48.6461 54.89 45.6955 55.0675 42.3645C55.2747 38.9314 55.2747 28.6507 55.0675 25.2176ZM50.3517 46.0481C49.5822 47.8667 48.0925 49.2678 46.149 50.0008C43.2386 51.0864 36.3326 50.8359 33.1164 50.8359C29.9002 50.8359 22.9843 51.0771 20.0838 50.0008C18.1502 49.2771 16.6604 47.876 15.881 46.0481C14.7268 43.3109 14.9931 36.8159 14.9931 33.7911C14.9931 30.7662 14.7366 24.2619 15.881 21.534C16.6506 19.7154 18.1403 18.3143 20.0838 17.5813C22.9942 16.4957 29.9002 16.7462 33.1164 16.7462C36.3326 16.7462 43.2484 16.505 46.149 17.5813C48.0826 18.305 49.5723 19.7061 50.3517 21.534C51.506 24.2712 51.2396 30.7662 51.2396 33.7911C51.2396 36.8159 51.506 43.3202 50.3517 46.0481Z" fill="#5A7C5A"/>
</svg>
