<?xml version="1.0" encoding="UTF-8"?><svg id="Layer_1" xmlns="http://www.w3.org/2000/svg" xmlns:xlink="http://www.w3.org/1999/xlink" viewBox="0 0 1943.62 1096.15"><defs><style>.cls-1{fill:url(#linear-gradient);}.cls-2{fill:#8cc76d;}.cls-3{fill:url(#linear-gradient-2);}.cls-4{fill:#f6dcc0;opacity:.8;}</style><linearGradient id="linear-gradient" x1="972.08" y1="-371.14" x2="970.3" y2="1518.64" gradientUnits="userSpaceOnUse"><stop offset=".23" stop-color="#dff0e3"/><stop offset=".57" stop-color="#d4f1f5"/></linearGradient><linearGradient id="linear-gradient-2" x1="871.39" y1="746.73" x2="977.87" y2="1185.53" gradientUnits="userSpaceOnUse"><stop offset=".25" stop-color="#e3d5a5"/><stop offset=".87" stop-color="#f1e5a3"/></linearGradient></defs><polygon class="cls-1" points="1936.8 1093.36 5.63 1094 5.63 2 1936.8 0 1936.8 1093.36"/><path class="cls-2" d="M1943.62,498.57c-162.37,67.42-614.91,151.5-905.35,162.37-294.09,11.01-691.12-93.67-740.25-107.5C175.37,518.92,71.76,473.71,0,438.13l.9,657.34,1942.63,.68,.1-597.58Z"/><path class="cls-3" d="M930.2,1091.13c21.42-18,52.69-41.05,65.72-51.27,7.33-5.75,34.36-32.78,46.63-49.16,10.76-14.37,20.86-19.37,17.18-46.18-5.51-40.14-45.67-43.37-52.77-47.67-9.82-5.96-126.66-41.04-225.8-53.63-82.91-10.53-141.58-25.03-164.44-70.02-3.75-7.38-18.19-30.98-11.04-50.65,5.56-15.31,22.92-22.08,40.5-26.82,43.13-11.62,73.81-3.3,120.26,2.98,44.78,6.05,78.9,6.78,110.45,7.45,5.96,.13,1.03-.03,94.49-2.98,12.81-.4,35.1-1.1,62.59-8.94,17.98-5.13,27.72-10.27,30.68-11.92,8.72-4.84,26.67-16.15,29.76-17.87,9-5,11.6-6.96,12-7,.44-.04,7.83-1.01,8-1,.07-.23-3.1,8.2-4,11-.97,3.01-4,18-13,33-3.71,6.18-14.57,18.8-49.94,29.54-24.54,7.45-71.18,13.41-115.36,13.41-21.39,0-62.09-1.49-100.63-1.49-12.27,0-33.13,1.49-66.27-4.47-.2-.04-47.87-6.98-55.22-7.45-23.32-1.49-45.41,1.49-46.63,8.94-1.23,7.45,14.63,13.18,40.5,20.86,39.21,11.63,66.05,12.94,104.31,16.39,4.83,.44,63.79,5.82,122.72,14.9,8.26,1.27,42.32,8.3,110.45,22.35,49.55,10.22,74.78,15.74,96.95,35.76,10.1,9.12,29.75,26.86,38.04,58.1,9.69,36.52-1.75,70.35-14.73,108.76-7.9,23.36-37.96,78.98-37.96,78.98,0,0-196.28-1.47-193.43-3.87Z"/><ellipse class="cls-4" cx="367.83" cy="848.25" rx="16.33" ry="13.13"/><ellipse class="cls-4" cx="1324.83" cy="751.25" rx="16.33" ry="13.13"/><ellipse class="cls-4" cx="399.73" cy="952.31" rx="12.69" ry="10.59"/></svg>