<?xml version="1.0" encoding="UTF-8"?><svg id="Layer_1" xmlns="http://www.w3.org/2000/svg" xmlns:xlink="http://www.w3.org/1999/xlink" viewBox="0 0 1946.47 783.02"><defs><style>.cls-1{fill:url(#linear-gradient);}.cls-2{fill:#8cc76d;}.cls-3{fill:#279846;}.cls-4{fill:#f6dcc0;opacity:.8;}</style><linearGradient id="linear-gradient" x1="874" y1="422.85" x2="983.21" y2="872.86" gradientUnits="userSpaceOnUse"><stop offset=".25" stop-color="#e3d5a5"/><stop offset=".87" stop-color="#f1e5a3"/></linearGradient></defs><path preserveAspectRatio="xMinYMin" class="cls-3" d="M1942.4,10.54c.99-8.06-30.74-7.72-55.58-8.47-27.4-.83-48.96,3.48-62.75,6.58-46.13,10.35-79.74,29.05-127.33,49.29-51.54,21.92-141.57,63.63-185.21,62.56-43.89-1.07-106.75-45.5-185.21-39.81-19.41,1.41-55.04,11.2-146.62,54.98-135.43,64.74-145.4,67.52-198.07,89.11-41.17,16.87-151.86,52.25-212.22,53.08-42.07,.58-118.33-32.23-163.34-53.08-44.24-20.5-135.32-73.5-262.38-119.44-78.95-28.54-181.35-54.98-227.65-73.94C65.4,10.65,27.57,12.55,.4,0V346.11c149.97-7.31,305.04,102.16,380,32.89,68.46-63.27,226.13-15.28,306.97-7.8,165.01,15.26,153.03,28.8,261.03,33.8,40.96,1.9,179.9-16.94,237-18,108-2,167.28-22.34,215.97-17.69,70.03,6.69,530.7,93.9,541.03-23.2,12-136.11-7.03-278.2,0-335.57Z"/><path class="cls-2" d="M1943.4,117c-162.37,67.42-640.56,209.13-931,220-294.09,11.01-665.24-83.17-714.38-97C175.37,205.48,71.76,160.27,0,124.7L.9,782.04l1942.63,.68-.13-665.72Z"/><path class="cls-1" d="M912.4,781c21.42-18,72.49-57.35,85.52-67.57,7.33-5.75,34.36-32.78,46.63-49.16,10.76-14.37,20.86-19.37,17.18-46.18-5.51-40.14-45.67-43.37-52.77-47.67-9.82-5.96-126.66-41.04-225.8-53.63-82.91-10.53-141.58-25.03-164.44-70.02-3.75-7.38-18.19-30.98-11.04-50.65,5.56-15.31,22.92-22.08,40.5-26.82,43.13-11.62,73.81-3.3,120.26,2.98,44.78,6.05,78.9,6.78,110.45,7.45,5.96,.13,1.03-.03,94.49-2.98,12.81-.4,35.1-1.1,62.59-8.94,17.98-5.13,27.72-10.27,30.68-11.92,8.72-4.84,26.67-16.15,29.76-17.87,9-5,11.6-6.96,12-7,.44-.04,7.83-1.01,8-1,.07-.23-3.1,8.2-4,11-.97,3.01-4,18-13,33-3.71,6.18-14.57,18.8-49.94,29.54-24.54,7.45-71.18,13.41-115.36,13.41-21.39,0-62.09-1.49-100.63-1.49-12.27,0-33.13,1.49-66.27-4.47-.2-.04-47.87-6.98-55.22-7.45-23.32-1.49-45.41,1.49-46.63,8.94-1.23,7.45,14.63,13.18,40.5,20.86,39.21,11.63,66.05,12.94,104.31,16.39,4.83,.44,63.79,5.82,122.72,14.9,8.26,1.27,42.32,8.3,110.45,22.35,49.55,10.22,74.78,15.74,96.95,35.76,10.1,9.12,29.75,26.86,38.04,58.1,9.69,36.52-1.75,70.35-14.73,108.76-7.9,23.36-43.19,93.41-43.19,93.41,0,0-210.85,.39-208-2Z"/><ellipse class="cls-4" cx="367.83" cy="534.82" rx="16.33" ry="13.13"/><ellipse class="cls-4" cx="1324.83" cy="437.82" rx="16.33" ry="13.13"/><ellipse class="cls-4" cx="399.73" cy="638.87" rx="12.69" ry="10.59"/></svg>
